M48
; DRILL file {KiCad 6.0.11+dfsg-1} date Fri 14 Jul 2023 21:47:47 BST
; FORMAT={-:-/ absolute / metric / decimal}
; #@! TF.CreationDate,2023-07-14T21:47:47+01:00
; #@! TF.GenerationSoftware,Kicad,Pcbnew,6.0.11+dfsg-1
; #@! TF.FileFunction,Plated,1,2,PTH
FMAT,2
METRIC
; #@! TA.AperFunction,Plated,PTH,ViaDrill
T1C0.500
; #@! TA.AperFunction,Plated,PTH,ComponentDrill
T2C0.800
; #@! TA.AperFunction,Plated,PTH,ComponentDrill
T3C0.900
; #@! TA.AperFunction,Plated,PTH,ComponentDrill
T4C1.100
; #@! TA.AperFunction,Plated,PTH,ComponentDrill
T5C1.300
; #@! TA.AperFunction,Plated,PTH,ComponentDrill
T6C1.700
%
G90
G05
T1
X134.5Y-16.0
X134.5Y-21.0
X134.5Y-26.0
X134.5Y-31.0
X134.5Y-36.0
X134.5Y-41.0
X134.5Y-46.0
X134.5Y-51.0
X134.5Y-56.0
X134.5Y-61.0
X134.5Y-66.0
X134.5Y-71.0
X134.5Y-76.0
X134.5Y-81.0
X134.5Y-86.0
X134.5Y-91.0
X134.5Y-96.0
X134.5Y-101.0
X134.5Y-106.0
X134.5Y-111.0
X134.5Y-116.0
X134.5Y-121.0
X134.5Y-126.0
X139.5Y-16.0
X144.5Y-16.0
X144.8Y-97.0
X144.8Y-102.5
X144.8Y-108.0
X145.0Y-26.5
X145.0Y-30.5
X145.5Y-46.0
X145.5Y-51.0
X145.5Y-56.0
X145.5Y-61.0
X145.5Y-66.0
X147.0Y-26.5
X147.0Y-30.5
X147.0Y-79.0
X149.0Y-26.5
X149.0Y-30.5
X149.3Y-97.0
X149.3Y-102.5
X149.3Y-108.0
X149.5Y-16.0
X151.0Y-26.5
X151.0Y-30.5
X152.0Y-41.0
X152.0Y-79.0
X153.0Y-26.5
X153.0Y-30.5
X154.5Y-16.0
X155.0Y-26.5
X155.0Y-30.5
X157.0Y-26.5
X157.0Y-30.5
X157.0Y-79.0
X159.0Y-26.5
X159.0Y-30.5
X159.0Y-50.0
X159.0Y-54.0
X159.0Y-58.0
X159.0Y-61.5
X159.5Y-16.0
X161.0Y-26.5
X161.0Y-30.5
X161.0Y-36.0
X161.0Y-41.0
X161.0Y-46.5
X161.0Y-50.0
X161.0Y-54.0
X161.0Y-58.0
X161.0Y-61.5
X162.0Y-74.0
X162.0Y-79.0
X163.0Y-26.5
X163.0Y-30.5
X163.0Y-36.0
X163.0Y-41.0
X163.0Y-46.5
X163.0Y-50.0
X163.0Y-58.0
X163.0Y-61.5
X164.5Y-16.0
X166.0Y-26.5
X166.0Y-30.5
X166.0Y-36.0
X166.0Y-41.0
X166.0Y-46.5
X166.0Y-50.0
X166.0Y-58.0
X166.0Y-61.5
X168.0Y-26.5
X168.0Y-30.5
X168.0Y-36.0
X168.0Y-41.0
X168.0Y-46.5
X168.0Y-50.0
X168.0Y-54.0
X168.0Y-58.0
X168.0Y-61.5
X169.5Y-16.0
X170.0Y-26.5
X170.0Y-30.5
X170.0Y-50.0
X170.0Y-54.0
X170.0Y-58.0
X170.0Y-61.5
X171.0Y-74.0
X171.0Y-79.0
X171.0Y-84.0
X171.0Y-89.0
X171.0Y-94.0
X171.0Y-99.0
X171.0Y-104.0
X172.0Y-26.5
X172.0Y-30.5
X174.0Y-26.5
X174.0Y-30.5
X174.5Y-16.0
X176.0Y-26.5
X176.0Y-30.5
X177.3Y-41.0
X178.0Y-26.5
X178.0Y-30.5
X178.0Y-84.0
X178.0Y-89.0
X178.0Y-94.0
X178.0Y-99.0
X179.5Y-16.0
X180.0Y-26.5
X180.0Y-30.5
X182.0Y-26.5
X182.0Y-30.5
X183.5Y-46.0
X183.5Y-51.0
X183.5Y-56.0
X183.5Y-61.0
X183.5Y-66.0
X184.0Y-26.5
X184.0Y-30.5
X184.5Y-16.0
X186.0Y-26.5
X186.0Y-30.5
X188.0Y-26.5
X188.0Y-30.5
X188.5Y-41.0
X188.5Y-46.0
X188.5Y-51.0
X188.5Y-56.0
X188.5Y-61.0
X188.5Y-66.0
X189.5Y-16.0
X190.0Y-26.5
X190.0Y-30.5
X192.0Y-111.0
X192.0Y-116.0
X192.0Y-121.0
X192.0Y-126.0
X194.5Y-16.0
X199.5Y-16.0
X199.5Y-21.0
X199.5Y-26.0
X199.5Y-31.0
X199.5Y-36.0
X199.5Y-41.0
X199.5Y-46.0
X199.5Y-51.0
X199.5Y-56.0
X199.5Y-61.0
X199.5Y-66.0
X199.5Y-71.0
X199.5Y-76.0
X199.5Y-81.0
X199.5Y-86.0
X199.5Y-91.0
X199.5Y-96.0
X199.5Y-101.0
X199.5Y-106.0
X199.5Y-111.0
X199.5Y-116.0
X199.5Y-121.0
X199.5Y-126.0
T2
X148.92Y-114.0
X159.08Y-114.0
T3
X156.0Y-123.2
X158.54Y-123.2
T4
X152.0Y-70.0
X152.32Y-119.0
X162.0Y-70.0
X162.48Y-119.0
X169.5Y-70.0
X177.0Y-70.0
T5
X147.0Y-76.25
X147.0Y-98.75
T6
X144.942Y-39.25
X145.243Y-105.95
X148.903Y-39.25
X149.202Y-105.95
X172.742Y-105.95
X176.702Y-105.95
X185.142Y-39.25
X189.102Y-39.25
X189.343Y-106.0
X193.302Y-106.0
T0
M30
