%TF.GenerationSoftware,KiCad,Pcbnew,6.0.11+dfsg-1*%
%TF.CreationDate,2023-07-14T21:47:47+01:00*%
%TF.ProjectId,bridge-rectifier,62726964-6765-42d7-9265-637469666965,rev?*%
%TF.SameCoordinates,Original*%
%TF.FileFunction,Drillmap*%
%TF.FilePolarity,Positive*%
%FSLAX45Y45*%
G04 Gerber Fmt 4.5, Leading zero omitted, Abs format (unit mm)*
G04 Created by KiCad (PCBNEW 6.0.11+dfsg-1) date 2023-07-14 21:47:47*
%MOMM*%
%LPD*%
G01*
G04 APERTURE LIST*
%ADD10C,0.100000*%
%ADD11C,0.200000*%
%ADD12C,0.050000*%
%ADD13C,0.080000*%
%ADD14C,0.090000*%
%ADD15C,0.110000*%
%ADD16C,0.130000*%
%ADD17C,0.170000*%
G04 APERTURE END LIST*
D10*
X13200000Y-1400000D02*
X20200000Y-1400000D01*
X20200000Y-1400000D02*
X20200000Y-12800000D01*
X20200000Y-12800000D02*
X13200000Y-12800000D01*
X13200000Y-12800000D02*
X13200000Y-1400000D01*
D11*
D12*
X13425000Y-1575000D02*
X13475000Y-1625000D01*
X13475000Y-1575000D02*
X13425000Y-1625000D01*
X13425000Y-2075000D02*
X13475000Y-2125000D01*
X13475000Y-2075000D02*
X13425000Y-2125000D01*
X13425000Y-2575000D02*
X13475000Y-2625000D01*
X13475000Y-2575000D02*
X13425000Y-2625000D01*
X13425000Y-3075000D02*
X13475000Y-3125000D01*
X13475000Y-3075000D02*
X13425000Y-3125000D01*
X13425000Y-3575000D02*
X13475000Y-3625000D01*
X13475000Y-3575000D02*
X13425000Y-3625000D01*
X13425000Y-4075000D02*
X13475000Y-4125000D01*
X13475000Y-4075000D02*
X13425000Y-4125000D01*
X13425000Y-4575000D02*
X13475000Y-4625000D01*
X13475000Y-4575000D02*
X13425000Y-4625000D01*
X13425000Y-5075000D02*
X13475000Y-5125000D01*
X13475000Y-5075000D02*
X13425000Y-5125000D01*
X13425000Y-5575000D02*
X13475000Y-5625000D01*
X13475000Y-5575000D02*
X13425000Y-5625000D01*
X13425000Y-6075000D02*
X13475000Y-6125000D01*
X13475000Y-6075000D02*
X13425000Y-6125000D01*
X13425000Y-6575000D02*
X13475000Y-6625000D01*
X13475000Y-6575000D02*
X13425000Y-6625000D01*
X13425000Y-7075000D02*
X13475000Y-7125000D01*
X13475000Y-7075000D02*
X13425000Y-7125000D01*
X13425000Y-7575000D02*
X13475000Y-7625000D01*
X13475000Y-7575000D02*
X13425000Y-7625000D01*
X13425000Y-8075000D02*
X13475000Y-8125000D01*
X13475000Y-8075000D02*
X13425000Y-8125000D01*
X13425000Y-8575000D02*
X13475000Y-8625000D01*
X13475000Y-8575000D02*
X13425000Y-8625000D01*
X13425000Y-9075000D02*
X13475000Y-9125000D01*
X13475000Y-9075000D02*
X13425000Y-9125000D01*
X13425000Y-9575000D02*
X13475000Y-9625000D01*
X13475000Y-9575000D02*
X13425000Y-9625000D01*
X13425000Y-10075000D02*
X13475000Y-10125000D01*
X13475000Y-10075000D02*
X13425000Y-10125000D01*
X13425000Y-10575000D02*
X13475000Y-10625000D01*
X13475000Y-10575000D02*
X13425000Y-10625000D01*
X13425000Y-11075000D02*
X13475000Y-11125000D01*
X13475000Y-11075000D02*
X13425000Y-11125000D01*
X13425000Y-11575000D02*
X13475000Y-11625000D01*
X13475000Y-11575000D02*
X13425000Y-11625000D01*
X13425000Y-12075000D02*
X13475000Y-12125000D01*
X13475000Y-12075000D02*
X13425000Y-12125000D01*
X13425000Y-12575000D02*
X13475000Y-12625000D01*
X13475000Y-12575000D02*
X13425000Y-12625000D01*
X13925000Y-1575000D02*
X13975000Y-1625000D01*
X13975000Y-1575000D02*
X13925000Y-1625000D01*
X14425000Y-1575000D02*
X14475000Y-1625000D01*
X14475000Y-1575000D02*
X14425000Y-1625000D01*
X14455000Y-9675000D02*
X14505000Y-9725000D01*
X14505000Y-9675000D02*
X14455000Y-9725000D01*
X14455000Y-10225000D02*
X14505000Y-10275000D01*
X14505000Y-10225000D02*
X14455000Y-10275000D01*
X14455000Y-10775000D02*
X14505000Y-10825000D01*
X14505000Y-10775000D02*
X14455000Y-10825000D01*
X14475000Y-2625000D02*
X14525000Y-2675000D01*
X14525000Y-2625000D02*
X14475000Y-2675000D01*
X14475000Y-3025000D02*
X14525000Y-3075000D01*
X14525000Y-3025000D02*
X14475000Y-3075000D01*
X14525000Y-4575000D02*
X14575000Y-4625000D01*
X14575000Y-4575000D02*
X14525000Y-4625000D01*
X14525000Y-5075000D02*
X14575000Y-5125000D01*
X14575000Y-5075000D02*
X14525000Y-5125000D01*
X14525000Y-5575000D02*
X14575000Y-5625000D01*
X14575000Y-5575000D02*
X14525000Y-5625000D01*
X14525000Y-6075000D02*
X14575000Y-6125000D01*
X14575000Y-6075000D02*
X14525000Y-6125000D01*
X14525000Y-6575000D02*
X14575000Y-6625000D01*
X14575000Y-6575000D02*
X14525000Y-6625000D01*
X14675000Y-2625000D02*
X14725000Y-2675000D01*
X14725000Y-2625000D02*
X14675000Y-2675000D01*
X14675000Y-3025000D02*
X14725000Y-3075000D01*
X14725000Y-3025000D02*
X14675000Y-3075000D01*
X14675000Y-7875000D02*
X14725000Y-7925000D01*
X14725000Y-7875000D02*
X14675000Y-7925000D01*
X14875000Y-2625000D02*
X14925000Y-2675000D01*
X14925000Y-2625000D02*
X14875000Y-2675000D01*
X14875000Y-3025000D02*
X14925000Y-3075000D01*
X14925000Y-3025000D02*
X14875000Y-3075000D01*
X14905000Y-9675000D02*
X14955000Y-9725000D01*
X14955000Y-9675000D02*
X14905000Y-9725000D01*
X14905000Y-10225000D02*
X14955000Y-10275000D01*
X14955000Y-10225000D02*
X14905000Y-10275000D01*
X14905000Y-10775000D02*
X14955000Y-10825000D01*
X14955000Y-10775000D02*
X14905000Y-10825000D01*
X14925000Y-1575000D02*
X14975000Y-1625000D01*
X14975000Y-1575000D02*
X14925000Y-1625000D01*
X15075000Y-2625000D02*
X15125000Y-2675000D01*
X15125000Y-2625000D02*
X15075000Y-2675000D01*
X15075000Y-3025000D02*
X15125000Y-3075000D01*
X15125000Y-3025000D02*
X15075000Y-3075000D01*
X15175000Y-4075000D02*
X15225000Y-4125000D01*
X15225000Y-4075000D02*
X15175000Y-4125000D01*
X15175000Y-7875000D02*
X15225000Y-7925000D01*
X15225000Y-7875000D02*
X15175000Y-7925000D01*
X15275000Y-2625000D02*
X15325000Y-2675000D01*
X15325000Y-2625000D02*
X15275000Y-2675000D01*
X15275000Y-3025000D02*
X15325000Y-3075000D01*
X15325000Y-3025000D02*
X15275000Y-3075000D01*
X15425000Y-1575000D02*
X15475000Y-1625000D01*
X15475000Y-1575000D02*
X15425000Y-1625000D01*
X15475000Y-2625000D02*
X15525000Y-2675000D01*
X15525000Y-2625000D02*
X15475000Y-2675000D01*
X15475000Y-3025000D02*
X15525000Y-3075000D01*
X15525000Y-3025000D02*
X15475000Y-3075000D01*
X15675000Y-2625000D02*
X15725000Y-2675000D01*
X15725000Y-2625000D02*
X15675000Y-2675000D01*
X15675000Y-3025000D02*
X15725000Y-3075000D01*
X15725000Y-3025000D02*
X15675000Y-3075000D01*
X15675000Y-7875000D02*
X15725000Y-7925000D01*
X15725000Y-7875000D02*
X15675000Y-7925000D01*
X15875000Y-2625000D02*
X15925000Y-2675000D01*
X15925000Y-2625000D02*
X15875000Y-2675000D01*
X15875000Y-3025000D02*
X15925000Y-3075000D01*
X15925000Y-3025000D02*
X15875000Y-3075000D01*
X15875000Y-4975000D02*
X15925000Y-5025000D01*
X15925000Y-4975000D02*
X15875000Y-5025000D01*
X15875000Y-5375000D02*
X15925000Y-5425000D01*
X15925000Y-5375000D02*
X15875000Y-5425000D01*
X15875000Y-5775000D02*
X15925000Y-5825000D01*
X15925000Y-5775000D02*
X15875000Y-5825000D01*
X15875000Y-6125000D02*
X15925000Y-6175000D01*
X15925000Y-6125000D02*
X15875000Y-6175000D01*
X15925000Y-1575000D02*
X15975000Y-1625000D01*
X15975000Y-1575000D02*
X15925000Y-1625000D01*
X16075000Y-2625000D02*
X16125000Y-2675000D01*
X16125000Y-2625000D02*
X16075000Y-2675000D01*
X16075000Y-3025000D02*
X16125000Y-3075000D01*
X16125000Y-3025000D02*
X16075000Y-3075000D01*
X16075000Y-3575000D02*
X16125000Y-3625000D01*
X16125000Y-3575000D02*
X16075000Y-3625000D01*
X16075000Y-4075000D02*
X16125000Y-4125000D01*
X16125000Y-4075000D02*
X16075000Y-4125000D01*
X16075000Y-4625000D02*
X16125000Y-4675000D01*
X16125000Y-4625000D02*
X16075000Y-4675000D01*
X16075000Y-4975000D02*
X16125000Y-5025000D01*
X16125000Y-4975000D02*
X16075000Y-5025000D01*
X16075000Y-5375000D02*
X16125000Y-5425000D01*
X16125000Y-5375000D02*
X16075000Y-5425000D01*
X16075000Y-5775000D02*
X16125000Y-5825000D01*
X16125000Y-5775000D02*
X16075000Y-5825000D01*
X16075000Y-6125000D02*
X16125000Y-6175000D01*
X16125000Y-6125000D02*
X16075000Y-6175000D01*
X16175000Y-7375000D02*
X16225000Y-7425000D01*
X16225000Y-7375000D02*
X16175000Y-7425000D01*
X16175000Y-7875000D02*
X16225000Y-7925000D01*
X16225000Y-7875000D02*
X16175000Y-7925000D01*
X16275000Y-2625000D02*
X16325000Y-2675000D01*
X16325000Y-2625000D02*
X16275000Y-2675000D01*
X16275000Y-3025000D02*
X16325000Y-3075000D01*
X16325000Y-3025000D02*
X16275000Y-3075000D01*
X16275000Y-3575000D02*
X16325000Y-3625000D01*
X16325000Y-3575000D02*
X16275000Y-3625000D01*
X16275000Y-4075000D02*
X16325000Y-4125000D01*
X16325000Y-4075000D02*
X16275000Y-4125000D01*
X16275000Y-4625000D02*
X16325000Y-4675000D01*
X16325000Y-4625000D02*
X16275000Y-4675000D01*
X16275000Y-4975000D02*
X16325000Y-5025000D01*
X16325000Y-4975000D02*
X16275000Y-5025000D01*
X16275000Y-5775000D02*
X16325000Y-5825000D01*
X16325000Y-5775000D02*
X16275000Y-5825000D01*
X16275000Y-6125000D02*
X16325000Y-6175000D01*
X16325000Y-6125000D02*
X16275000Y-6175000D01*
X16425000Y-1575000D02*
X16475000Y-1625000D01*
X16475000Y-1575000D02*
X16425000Y-1625000D01*
X16575000Y-2625000D02*
X16625000Y-2675000D01*
X16625000Y-2625000D02*
X16575000Y-2675000D01*
X16575000Y-3025000D02*
X16625000Y-3075000D01*
X16625000Y-3025000D02*
X16575000Y-3075000D01*
X16575000Y-3575000D02*
X16625000Y-3625000D01*
X16625000Y-3575000D02*
X16575000Y-3625000D01*
X16575000Y-4075000D02*
X16625000Y-4125000D01*
X16625000Y-4075000D02*
X16575000Y-4125000D01*
X16575000Y-4625000D02*
X16625000Y-4675000D01*
X16625000Y-4625000D02*
X16575000Y-4675000D01*
X16575000Y-4975000D02*
X16625000Y-5025000D01*
X16625000Y-4975000D02*
X16575000Y-5025000D01*
X16575000Y-5775000D02*
X16625000Y-5825000D01*
X16625000Y-5775000D02*
X16575000Y-5825000D01*
X16575000Y-6125000D02*
X16625000Y-6175000D01*
X16625000Y-6125000D02*
X16575000Y-6175000D01*
X16775000Y-2625000D02*
X16825000Y-2675000D01*
X16825000Y-2625000D02*
X16775000Y-2675000D01*
X16775000Y-3025000D02*
X16825000Y-3075000D01*
X16825000Y-3025000D02*
X16775000Y-3075000D01*
X16775000Y-3575000D02*
X16825000Y-3625000D01*
X16825000Y-3575000D02*
X16775000Y-3625000D01*
X16775000Y-4075000D02*
X16825000Y-4125000D01*
X16825000Y-4075000D02*
X16775000Y-4125000D01*
X16775000Y-4625000D02*
X16825000Y-4675000D01*
X16825000Y-4625000D02*
X16775000Y-4675000D01*
X16775000Y-4975000D02*
X16825000Y-5025000D01*
X16825000Y-4975000D02*
X16775000Y-5025000D01*
X16775000Y-5375000D02*
X16825000Y-5425000D01*
X16825000Y-5375000D02*
X16775000Y-5425000D01*
X16775000Y-5775000D02*
X16825000Y-5825000D01*
X16825000Y-5775000D02*
X16775000Y-5825000D01*
X16775000Y-6125000D02*
X16825000Y-6175000D01*
X16825000Y-6125000D02*
X16775000Y-6175000D01*
X16925000Y-1575000D02*
X16975000Y-1625000D01*
X16975000Y-1575000D02*
X16925000Y-1625000D01*
X16975000Y-2625000D02*
X17025000Y-2675000D01*
X17025000Y-2625000D02*
X16975000Y-2675000D01*
X16975000Y-3025000D02*
X17025000Y-3075000D01*
X17025000Y-3025000D02*
X16975000Y-3075000D01*
X16975000Y-4975000D02*
X17025000Y-5025000D01*
X17025000Y-4975000D02*
X16975000Y-5025000D01*
X16975000Y-5375000D02*
X17025000Y-5425000D01*
X17025000Y-5375000D02*
X16975000Y-5425000D01*
X16975000Y-5775000D02*
X17025000Y-5825000D01*
X17025000Y-5775000D02*
X16975000Y-5825000D01*
X16975000Y-6125000D02*
X17025000Y-6175000D01*
X17025000Y-6125000D02*
X16975000Y-6175000D01*
X17075000Y-7375000D02*
X17125000Y-7425000D01*
X17125000Y-7375000D02*
X17075000Y-7425000D01*
X17075000Y-7875000D02*
X17125000Y-7925000D01*
X17125000Y-7875000D02*
X17075000Y-7925000D01*
X17075000Y-8375000D02*
X17125000Y-8425000D01*
X17125000Y-8375000D02*
X17075000Y-8425000D01*
X17075000Y-8875000D02*
X17125000Y-8925000D01*
X17125000Y-8875000D02*
X17075000Y-8925000D01*
X17075000Y-9375000D02*
X17125000Y-9425000D01*
X17125000Y-9375000D02*
X17075000Y-9425000D01*
X17075000Y-9875000D02*
X17125000Y-9925000D01*
X17125000Y-9875000D02*
X17075000Y-9925000D01*
X17075000Y-10375000D02*
X17125000Y-10425000D01*
X17125000Y-10375000D02*
X17075000Y-10425000D01*
X17175000Y-2625000D02*
X17225000Y-2675000D01*
X17225000Y-2625000D02*
X17175000Y-2675000D01*
X17175000Y-3025000D02*
X17225000Y-3075000D01*
X17225000Y-3025000D02*
X17175000Y-3075000D01*
X17375000Y-2625000D02*
X17425000Y-2675000D01*
X17425000Y-2625000D02*
X17375000Y-2675000D01*
X17375000Y-3025000D02*
X17425000Y-3075000D01*
X17425000Y-3025000D02*
X17375000Y-3075000D01*
X17425000Y-1575000D02*
X17475000Y-1625000D01*
X17475000Y-1575000D02*
X17425000Y-1625000D01*
X17575000Y-2625000D02*
X17625000Y-2675000D01*
X17625000Y-2625000D02*
X17575000Y-2675000D01*
X17575000Y-3025000D02*
X17625000Y-3075000D01*
X17625000Y-3025000D02*
X17575000Y-3075000D01*
X17705000Y-4075000D02*
X17755000Y-4125000D01*
X17755000Y-4075000D02*
X17705000Y-4125000D01*
X17775000Y-2625000D02*
X17825000Y-2675000D01*
X17825000Y-2625000D02*
X17775000Y-2675000D01*
X17775000Y-3025000D02*
X17825000Y-3075000D01*
X17825000Y-3025000D02*
X17775000Y-3075000D01*
X17775000Y-8375000D02*
X17825000Y-8425000D01*
X17825000Y-8375000D02*
X17775000Y-8425000D01*
X17775000Y-8875000D02*
X17825000Y-8925000D01*
X17825000Y-8875000D02*
X17775000Y-8925000D01*
X17775000Y-9375000D02*
X17825000Y-9425000D01*
X17825000Y-9375000D02*
X17775000Y-9425000D01*
X17775000Y-9875000D02*
X17825000Y-9925000D01*
X17825000Y-9875000D02*
X17775000Y-9925000D01*
X17925000Y-1575000D02*
X17975000Y-1625000D01*
X17975000Y-1575000D02*
X17925000Y-1625000D01*
X17975000Y-2625000D02*
X18025000Y-2675000D01*
X18025000Y-2625000D02*
X17975000Y-2675000D01*
X17975000Y-3025000D02*
X18025000Y-3075000D01*
X18025000Y-3025000D02*
X17975000Y-3075000D01*
X18175000Y-2625000D02*
X18225000Y-2675000D01*
X18225000Y-2625000D02*
X18175000Y-2675000D01*
X18175000Y-3025000D02*
X18225000Y-3075000D01*
X18225000Y-3025000D02*
X18175000Y-3075000D01*
X18325000Y-4575000D02*
X18375000Y-4625000D01*
X18375000Y-4575000D02*
X18325000Y-4625000D01*
X18325000Y-5075000D02*
X18375000Y-5125000D01*
X18375000Y-5075000D02*
X18325000Y-5125000D01*
X18325000Y-5575000D02*
X18375000Y-5625000D01*
X18375000Y-5575000D02*
X18325000Y-5625000D01*
X18325000Y-6075000D02*
X18375000Y-6125000D01*
X18375000Y-6075000D02*
X18325000Y-6125000D01*
X18325000Y-6575000D02*
X18375000Y-6625000D01*
X18375000Y-6575000D02*
X18325000Y-6625000D01*
X18375000Y-2625000D02*
X18425000Y-2675000D01*
X18425000Y-2625000D02*
X18375000Y-2675000D01*
X18375000Y-3025000D02*
X18425000Y-3075000D01*
X18425000Y-3025000D02*
X18375000Y-3075000D01*
X18425000Y-1575000D02*
X18475000Y-1625000D01*
X18475000Y-1575000D02*
X18425000Y-1625000D01*
X18575000Y-2625000D02*
X18625000Y-2675000D01*
X18625000Y-2625000D02*
X18575000Y-2675000D01*
X18575000Y-3025000D02*
X18625000Y-3075000D01*
X18625000Y-3025000D02*
X18575000Y-3075000D01*
X18775000Y-2625000D02*
X18825000Y-2675000D01*
X18825000Y-2625000D02*
X18775000Y-2675000D01*
X18775000Y-3025000D02*
X18825000Y-3075000D01*
X18825000Y-3025000D02*
X18775000Y-3075000D01*
X18825000Y-4075000D02*
X18875000Y-4125000D01*
X18875000Y-4075000D02*
X18825000Y-4125000D01*
X18825000Y-4575000D02*
X18875000Y-4625000D01*
X18875000Y-4575000D02*
X18825000Y-4625000D01*
X18825000Y-5075000D02*
X18875000Y-5125000D01*
X18875000Y-5075000D02*
X18825000Y-5125000D01*
X18825000Y-5575000D02*
X18875000Y-5625000D01*
X18875000Y-5575000D02*
X18825000Y-5625000D01*
X18825000Y-6075000D02*
X18875000Y-6125000D01*
X18875000Y-6075000D02*
X18825000Y-6125000D01*
X18825000Y-6575000D02*
X18875000Y-6625000D01*
X18875000Y-6575000D02*
X18825000Y-6625000D01*
X18925000Y-1575000D02*
X18975000Y-1625000D01*
X18975000Y-1575000D02*
X18925000Y-1625000D01*
X18975000Y-2625000D02*
X19025000Y-2675000D01*
X19025000Y-2625000D02*
X18975000Y-2675000D01*
X18975000Y-3025000D02*
X19025000Y-3075000D01*
X19025000Y-3025000D02*
X18975000Y-3075000D01*
X19175000Y-11075000D02*
X19225000Y-11125000D01*
X19225000Y-11075000D02*
X19175000Y-11125000D01*
X19175000Y-11575000D02*
X19225000Y-11625000D01*
X19225000Y-11575000D02*
X19175000Y-11625000D01*
X19175000Y-12075000D02*
X19225000Y-12125000D01*
X19225000Y-12075000D02*
X19175000Y-12125000D01*
X19175000Y-12575000D02*
X19225000Y-12625000D01*
X19225000Y-12575000D02*
X19175000Y-12625000D01*
X19425000Y-1575000D02*
X19475000Y-1625000D01*
X19475000Y-1575000D02*
X19425000Y-1625000D01*
X19925000Y-1575000D02*
X19975000Y-1625000D01*
X19975000Y-1575000D02*
X19925000Y-1625000D01*
X19925000Y-2075000D02*
X19975000Y-2125000D01*
X19975000Y-2075000D02*
X19925000Y-2125000D01*
X19925000Y-2575000D02*
X19975000Y-2625000D01*
X19975000Y-2575000D02*
X19925000Y-2625000D01*
X19925000Y-3075000D02*
X19975000Y-3125000D01*
X19975000Y-3075000D02*
X19925000Y-3125000D01*
X19925000Y-3575000D02*
X19975000Y-3625000D01*
X19975000Y-3575000D02*
X19925000Y-3625000D01*
X19925000Y-4075000D02*
X19975000Y-4125000D01*
X19975000Y-4075000D02*
X19925000Y-4125000D01*
X19925000Y-4575000D02*
X19975000Y-4625000D01*
X19975000Y-4575000D02*
X19925000Y-4625000D01*
X19925000Y-5075000D02*
X19975000Y-5125000D01*
X19975000Y-5075000D02*
X19925000Y-5125000D01*
X19925000Y-5575000D02*
X19975000Y-5625000D01*
X19975000Y-5575000D02*
X19925000Y-5625000D01*
X19925000Y-6075000D02*
X19975000Y-6125000D01*
X19975000Y-6075000D02*
X19925000Y-6125000D01*
X19925000Y-6575000D02*
X19975000Y-6625000D01*
X19975000Y-6575000D02*
X19925000Y-6625000D01*
X19925000Y-7075000D02*
X19975000Y-7125000D01*
X19975000Y-7075000D02*
X19925000Y-7125000D01*
X19925000Y-7575000D02*
X19975000Y-7625000D01*
X19975000Y-7575000D02*
X19925000Y-7625000D01*
X19925000Y-8075000D02*
X19975000Y-8125000D01*
X19975000Y-8075000D02*
X19925000Y-8125000D01*
X19925000Y-8575000D02*
X19975000Y-8625000D01*
X19975000Y-8575000D02*
X19925000Y-8625000D01*
X19925000Y-9075000D02*
X19975000Y-9125000D01*
X19975000Y-9075000D02*
X19925000Y-9125000D01*
X19925000Y-9575000D02*
X19975000Y-9625000D01*
X19975000Y-9575000D02*
X19925000Y-9625000D01*
X19925000Y-10075000D02*
X19975000Y-10125000D01*
X19975000Y-10075000D02*
X19925000Y-10125000D01*
X19925000Y-10575000D02*
X19975000Y-10625000D01*
X19975000Y-10575000D02*
X19925000Y-10625000D01*
X19925000Y-11075000D02*
X19975000Y-11125000D01*
X19975000Y-11075000D02*
X19925000Y-11125000D01*
X19925000Y-11575000D02*
X19975000Y-11625000D01*
X19975000Y-11575000D02*
X19925000Y-11625000D01*
X19925000Y-12075000D02*
X19975000Y-12125000D01*
X19975000Y-12075000D02*
X19925000Y-12125000D01*
X19925000Y-12575000D02*
X19975000Y-12625000D01*
X19975000Y-12575000D02*
X19925000Y-12625000D01*
D13*
X14932000Y-11400000D02*
G75*
G03*
X14932000Y-11400000I-40000J0D01*
G01*
X15948000Y-11400000D02*
G75*
G03*
X15948000Y-11400000I-40000J0D01*
G01*
D14*
X15600000Y-12275000D02*
X15600000Y-12365000D01*
X15555000Y-12320000D02*
X15645000Y-12320000D01*
X15854000Y-12275000D02*
X15854000Y-12365000D01*
X15809000Y-12320000D02*
X15899000Y-12320000D01*
D15*
X15238891Y-7038891D02*
X15238891Y-6961109D01*
X15161109Y-6961109D01*
X15161109Y-7038891D01*
X15238891Y-7038891D01*
X15270891Y-11938891D02*
X15270891Y-11861109D01*
X15193109Y-11861109D01*
X15193109Y-11938891D01*
X15270891Y-11938891D01*
X16238891Y-7038891D02*
X16238891Y-6961109D01*
X16161109Y-6961109D01*
X16161109Y-7038891D01*
X16238891Y-7038891D01*
X16286891Y-11938891D02*
X16286891Y-11861109D01*
X16209109Y-11861109D01*
X16209109Y-11938891D01*
X16286891Y-11938891D01*
X16988891Y-7038891D02*
X16988891Y-6961109D01*
X16911109Y-6961109D01*
X16911109Y-7038891D01*
X16988891Y-7038891D01*
X17738891Y-7038891D02*
X17738891Y-6961109D01*
X17661109Y-6961109D01*
X17661109Y-7038891D01*
X17738891Y-7038891D01*
D16*
X14700000Y-7690000D02*
X14765000Y-7625000D01*
X14700000Y-7560000D01*
X14635000Y-7625000D01*
X14700000Y-7690000D01*
X14700000Y-9940000D02*
X14765000Y-9875000D01*
X14700000Y-9810000D01*
X14635000Y-9875000D01*
X14700000Y-9940000D01*
D17*
X14409250Y-3840000D02*
X14579250Y-4010000D01*
X14579250Y-3840000D02*
X14409250Y-4010000D01*
X14579250Y-3925000D02*
G75*
G03*
X14579250Y-3925000I-85000J0D01*
G01*
X14439250Y-10510000D02*
X14609250Y-10680000D01*
X14609250Y-10510000D02*
X14439250Y-10680000D01*
X14609250Y-10595000D02*
G75*
G03*
X14609250Y-10595000I-85000J0D01*
G01*
X14805250Y-3840000D02*
X14975250Y-4010000D01*
X14975250Y-3840000D02*
X14805250Y-4010000D01*
X14975250Y-3925000D02*
G75*
G03*
X14975250Y-3925000I-85000J0D01*
G01*
X14835250Y-10510000D02*
X15005250Y-10680000D01*
X15005250Y-10510000D02*
X14835250Y-10680000D01*
X15005250Y-10595000D02*
G75*
G03*
X15005250Y-10595000I-85000J0D01*
G01*
X17189250Y-10510000D02*
X17359250Y-10680000D01*
X17359250Y-10510000D02*
X17189250Y-10680000D01*
X17359250Y-10595000D02*
G75*
G03*
X17359250Y-10595000I-85000J0D01*
G01*
X17585250Y-10510000D02*
X17755250Y-10680000D01*
X17755250Y-10510000D02*
X17585250Y-10680000D01*
X17755250Y-10595000D02*
G75*
G03*
X17755250Y-10595000I-85000J0D01*
G01*
X18429250Y-3840000D02*
X18599250Y-4010000D01*
X18599250Y-3840000D02*
X18429250Y-4010000D01*
X18599250Y-3925000D02*
G75*
G03*
X18599250Y-3925000I-85000J0D01*
G01*
X18825250Y-3840000D02*
X18995250Y-4010000D01*
X18995250Y-3840000D02*
X18825250Y-4010000D01*
X18995250Y-3925000D02*
G75*
G03*
X18995250Y-3925000I-85000J0D01*
G01*
X18849250Y-10515000D02*
X19019250Y-10685000D01*
X19019250Y-10515000D02*
X18849250Y-10685000D01*
X19019250Y-10600000D02*
G75*
G03*
X19019250Y-10600000I-85000J0D01*
G01*
X19245250Y-10515000D02*
X19415250Y-10685000D01*
X19415250Y-10515000D02*
X19245250Y-10685000D01*
X19415250Y-10600000D02*
G75*
G03*
X19415250Y-10600000I-85000J0D01*
G01*
D11*
X13452619Y-13115476D02*
X13452619Y-12915476D01*
X13500238Y-12915476D01*
X13528809Y-12925000D01*
X13547857Y-12944048D01*
X13557381Y-12963095D01*
X13566905Y-13001190D01*
X13566905Y-13029762D01*
X13557381Y-13067857D01*
X13547857Y-13086905D01*
X13528809Y-13105952D01*
X13500238Y-13115476D01*
X13452619Y-13115476D01*
X13652619Y-13115476D02*
X13652619Y-12982143D01*
X13652619Y-13020238D02*
X13662143Y-13001190D01*
X13671667Y-12991667D01*
X13690714Y-12982143D01*
X13709762Y-12982143D01*
X13776428Y-13115476D02*
X13776428Y-12982143D01*
X13776428Y-12915476D02*
X13766905Y-12925000D01*
X13776428Y-12934524D01*
X13785952Y-12925000D01*
X13776428Y-12915476D01*
X13776428Y-12934524D01*
X13900238Y-13115476D02*
X13881190Y-13105952D01*
X13871667Y-13086905D01*
X13871667Y-12915476D01*
X14005000Y-13115476D02*
X13985952Y-13105952D01*
X13976428Y-13086905D01*
X13976428Y-12915476D01*
X14233571Y-13115476D02*
X14233571Y-12915476D01*
X14300238Y-13058333D01*
X14366905Y-12915476D01*
X14366905Y-13115476D01*
X14547857Y-13115476D02*
X14547857Y-13010714D01*
X14538333Y-12991667D01*
X14519286Y-12982143D01*
X14481190Y-12982143D01*
X14462143Y-12991667D01*
X14547857Y-13105952D02*
X14528809Y-13115476D01*
X14481190Y-13115476D01*
X14462143Y-13105952D01*
X14452619Y-13086905D01*
X14452619Y-13067857D01*
X14462143Y-13048809D01*
X14481190Y-13039286D01*
X14528809Y-13039286D01*
X14547857Y-13029762D01*
X14643095Y-12982143D02*
X14643095Y-13182143D01*
X14643095Y-12991667D02*
X14662143Y-12982143D01*
X14700238Y-12982143D01*
X14719286Y-12991667D01*
X14728809Y-13001190D01*
X14738333Y-13020238D01*
X14738333Y-13077381D01*
X14728809Y-13096428D01*
X14719286Y-13105952D01*
X14700238Y-13115476D01*
X14662143Y-13115476D01*
X14643095Y-13105952D01*
X14824048Y-13096428D02*
X14833571Y-13105952D01*
X14824048Y-13115476D01*
X14814524Y-13105952D01*
X14824048Y-13096428D01*
X14824048Y-13115476D01*
X14824048Y-12991667D02*
X14833571Y-13001190D01*
X14824048Y-13010714D01*
X14814524Y-13001190D01*
X14824048Y-12991667D01*
X14824048Y-13010714D01*
D12*
X13145000Y-13420000D02*
X13195000Y-13470000D01*
X13195000Y-13420000D02*
X13145000Y-13470000D01*
D11*
X13490714Y-13335476D02*
X13509762Y-13335476D01*
X13528809Y-13345000D01*
X13538333Y-13354524D01*
X13547857Y-13373571D01*
X13557381Y-13411667D01*
X13557381Y-13459286D01*
X13547857Y-13497381D01*
X13538333Y-13516428D01*
X13528809Y-13525952D01*
X13509762Y-13535476D01*
X13490714Y-13535476D01*
X13471667Y-13525952D01*
X13462143Y-13516428D01*
X13452619Y-13497381D01*
X13443095Y-13459286D01*
X13443095Y-13411667D01*
X13452619Y-13373571D01*
X13462143Y-13354524D01*
X13471667Y-13345000D01*
X13490714Y-13335476D01*
X13643095Y-13516428D02*
X13652619Y-13525952D01*
X13643095Y-13535476D01*
X13633571Y-13525952D01*
X13643095Y-13516428D01*
X13643095Y-13535476D01*
X13833571Y-13335476D02*
X13738333Y-13335476D01*
X13728809Y-13430714D01*
X13738333Y-13421190D01*
X13757381Y-13411667D01*
X13805000Y-13411667D01*
X13824048Y-13421190D01*
X13833571Y-13430714D01*
X13843095Y-13449762D01*
X13843095Y-13497381D01*
X13833571Y-13516428D01*
X13824048Y-13525952D01*
X13805000Y-13535476D01*
X13757381Y-13535476D01*
X13738333Y-13525952D01*
X13728809Y-13516428D01*
X13966905Y-13335476D02*
X13985952Y-13335476D01*
X14005000Y-13345000D01*
X14014524Y-13354524D01*
X14024048Y-13373571D01*
X14033571Y-13411667D01*
X14033571Y-13459286D01*
X14024048Y-13497381D01*
X14014524Y-13516428D01*
X14005000Y-13525952D01*
X13985952Y-13535476D01*
X13966905Y-13535476D01*
X13947857Y-13525952D01*
X13938333Y-13516428D01*
X13928809Y-13497381D01*
X13919286Y-13459286D01*
X13919286Y-13411667D01*
X13928809Y-13373571D01*
X13938333Y-13354524D01*
X13947857Y-13345000D01*
X13966905Y-13335476D01*
X14157381Y-13335476D02*
X14176428Y-13335476D01*
X14195476Y-13345000D01*
X14205000Y-13354524D01*
X14214524Y-13373571D01*
X14224048Y-13411667D01*
X14224048Y-13459286D01*
X14214524Y-13497381D01*
X14205000Y-13516428D01*
X14195476Y-13525952D01*
X14176428Y-13535476D01*
X14157381Y-13535476D01*
X14138333Y-13525952D01*
X14128809Y-13516428D01*
X14119286Y-13497381D01*
X14109762Y-13459286D01*
X14109762Y-13411667D01*
X14119286Y-13373571D01*
X14128809Y-13354524D01*
X14138333Y-13345000D01*
X14157381Y-13335476D01*
X14309762Y-13535476D02*
X14309762Y-13402143D01*
X14309762Y-13421190D02*
X14319286Y-13411667D01*
X14338333Y-13402143D01*
X14366905Y-13402143D01*
X14385952Y-13411667D01*
X14395476Y-13430714D01*
X14395476Y-13535476D01*
X14395476Y-13430714D02*
X14405000Y-13411667D01*
X14424048Y-13402143D01*
X14452619Y-13402143D01*
X14471667Y-13411667D01*
X14481190Y-13430714D01*
X14481190Y-13535476D01*
X14576428Y-13535476D02*
X14576428Y-13402143D01*
X14576428Y-13421190D02*
X14585952Y-13411667D01*
X14605000Y-13402143D01*
X14633571Y-13402143D01*
X14652619Y-13411667D01*
X14662143Y-13430714D01*
X14662143Y-13535476D01*
X14662143Y-13430714D02*
X14671667Y-13411667D01*
X14690714Y-13402143D01*
X14719286Y-13402143D01*
X14738333Y-13411667D01*
X14747857Y-13430714D01*
X14747857Y-13535476D01*
X15138333Y-13325952D02*
X14966905Y-13583095D01*
X15395476Y-13335476D02*
X15414524Y-13335476D01*
X15433571Y-13345000D01*
X15443095Y-13354524D01*
X15452619Y-13373571D01*
X15462143Y-13411667D01*
X15462143Y-13459286D01*
X15452619Y-13497381D01*
X15443095Y-13516428D01*
X15433571Y-13525952D01*
X15414524Y-13535476D01*
X15395476Y-13535476D01*
X15376428Y-13525952D01*
X15366905Y-13516428D01*
X15357381Y-13497381D01*
X15347857Y-13459286D01*
X15347857Y-13411667D01*
X15357381Y-13373571D01*
X15366905Y-13354524D01*
X15376428Y-13345000D01*
X15395476Y-13335476D01*
X15547857Y-13516428D02*
X15557381Y-13525952D01*
X15547857Y-13535476D01*
X15538333Y-13525952D01*
X15547857Y-13516428D01*
X15547857Y-13535476D01*
X15681190Y-13335476D02*
X15700238Y-13335476D01*
X15719286Y-13345000D01*
X15728809Y-13354524D01*
X15738333Y-13373571D01*
X15747857Y-13411667D01*
X15747857Y-13459286D01*
X15738333Y-13497381D01*
X15728809Y-13516428D01*
X15719286Y-13525952D01*
X15700238Y-13535476D01*
X15681190Y-13535476D01*
X15662143Y-13525952D01*
X15652619Y-13516428D01*
X15643095Y-13497381D01*
X15633571Y-13459286D01*
X15633571Y-13411667D01*
X15643095Y-13373571D01*
X15652619Y-13354524D01*
X15662143Y-13345000D01*
X15681190Y-13335476D01*
X15938333Y-13535476D02*
X15824048Y-13535476D01*
X15881190Y-13535476D02*
X15881190Y-13335476D01*
X15862143Y-13364048D01*
X15843095Y-13383095D01*
X15824048Y-13392619D01*
X16033571Y-13535476D02*
X16071667Y-13535476D01*
X16090714Y-13525952D01*
X16100238Y-13516428D01*
X16119286Y-13487857D01*
X16128809Y-13449762D01*
X16128809Y-13373571D01*
X16119286Y-13354524D01*
X16109762Y-13345000D01*
X16090714Y-13335476D01*
X16052619Y-13335476D01*
X16033571Y-13345000D01*
X16024048Y-13354524D01*
X16014524Y-13373571D01*
X16014524Y-13421190D01*
X16024048Y-13440238D01*
X16033571Y-13449762D01*
X16052619Y-13459286D01*
X16090714Y-13459286D01*
X16109762Y-13449762D01*
X16119286Y-13440238D01*
X16128809Y-13421190D01*
X16195476Y-13335476D02*
X16328809Y-13335476D01*
X16243095Y-13535476D01*
X16395476Y-13335476D02*
X16395476Y-13373571D01*
X16471667Y-13335476D02*
X16471667Y-13373571D01*
X16766905Y-13611667D02*
X16757381Y-13602143D01*
X16738333Y-13573571D01*
X16728809Y-13554524D01*
X16719286Y-13525952D01*
X16709762Y-13478333D01*
X16709762Y-13440238D01*
X16719286Y-13392619D01*
X16728809Y-13364048D01*
X16738333Y-13345000D01*
X16757381Y-13316428D01*
X16766905Y-13306905D01*
X16947857Y-13535476D02*
X16833571Y-13535476D01*
X16890714Y-13535476D02*
X16890714Y-13335476D01*
X16871667Y-13364048D01*
X16852619Y-13383095D01*
X16833571Y-13392619D01*
X17062143Y-13421190D02*
X17043095Y-13411667D01*
X17033571Y-13402143D01*
X17024048Y-13383095D01*
X17024048Y-13373571D01*
X17033571Y-13354524D01*
X17043095Y-13345000D01*
X17062143Y-13335476D01*
X17100238Y-13335476D01*
X17119286Y-13345000D01*
X17128810Y-13354524D01*
X17138333Y-13373571D01*
X17138333Y-13383095D01*
X17128810Y-13402143D01*
X17119286Y-13411667D01*
X17100238Y-13421190D01*
X17062143Y-13421190D01*
X17043095Y-13430714D01*
X17033571Y-13440238D01*
X17024048Y-13459286D01*
X17024048Y-13497381D01*
X17033571Y-13516428D01*
X17043095Y-13525952D01*
X17062143Y-13535476D01*
X17100238Y-13535476D01*
X17119286Y-13525952D01*
X17128810Y-13516428D01*
X17138333Y-13497381D01*
X17138333Y-13459286D01*
X17128810Y-13440238D01*
X17119286Y-13430714D01*
X17100238Y-13421190D01*
X17214524Y-13354524D02*
X17224048Y-13345000D01*
X17243095Y-13335476D01*
X17290714Y-13335476D01*
X17309762Y-13345000D01*
X17319286Y-13354524D01*
X17328810Y-13373571D01*
X17328810Y-13392619D01*
X17319286Y-13421190D01*
X17205000Y-13535476D01*
X17328810Y-13535476D01*
X17566905Y-13535476D02*
X17566905Y-13335476D01*
X17652619Y-13535476D02*
X17652619Y-13430714D01*
X17643095Y-13411667D01*
X17624048Y-13402143D01*
X17595476Y-13402143D01*
X17576429Y-13411667D01*
X17566905Y-13421190D01*
X17776429Y-13535476D02*
X17757381Y-13525952D01*
X17747857Y-13516428D01*
X17738333Y-13497381D01*
X17738333Y-13440238D01*
X17747857Y-13421190D01*
X17757381Y-13411667D01*
X17776429Y-13402143D01*
X17805000Y-13402143D01*
X17824048Y-13411667D01*
X17833571Y-13421190D01*
X17843095Y-13440238D01*
X17843095Y-13497381D01*
X17833571Y-13516428D01*
X17824048Y-13525952D01*
X17805000Y-13535476D01*
X17776429Y-13535476D01*
X17957381Y-13535476D02*
X17938333Y-13525952D01*
X17928810Y-13506905D01*
X17928810Y-13335476D01*
X18109762Y-13525952D02*
X18090714Y-13535476D01*
X18052619Y-13535476D01*
X18033571Y-13525952D01*
X18024048Y-13506905D01*
X18024048Y-13430714D01*
X18033571Y-13411667D01*
X18052619Y-13402143D01*
X18090714Y-13402143D01*
X18109762Y-13411667D01*
X18119286Y-13430714D01*
X18119286Y-13449762D01*
X18024048Y-13468809D01*
X18195476Y-13525952D02*
X18214524Y-13535476D01*
X18252619Y-13535476D01*
X18271667Y-13525952D01*
X18281190Y-13506905D01*
X18281190Y-13497381D01*
X18271667Y-13478333D01*
X18252619Y-13468809D01*
X18224048Y-13468809D01*
X18205000Y-13459286D01*
X18195476Y-13440238D01*
X18195476Y-13430714D01*
X18205000Y-13411667D01*
X18224048Y-13402143D01*
X18252619Y-13402143D01*
X18271667Y-13411667D01*
X18347857Y-13611667D02*
X18357381Y-13602143D01*
X18376429Y-13573571D01*
X18385952Y-13554524D01*
X18395476Y-13525952D01*
X18405000Y-13478333D01*
X18405000Y-13440238D01*
X18395476Y-13392619D01*
X18385952Y-13364048D01*
X18376429Y-13345000D01*
X18357381Y-13316428D01*
X18347857Y-13306905D01*
D13*
X13195000Y-13709000D02*
G75*
G03*
X13195000Y-13709000I-40000J0D01*
G01*
D11*
X13490714Y-13599476D02*
X13509762Y-13599476D01*
X13528809Y-13609000D01*
X13538333Y-13618524D01*
X13547857Y-13637571D01*
X13557381Y-13675667D01*
X13557381Y-13723286D01*
X13547857Y-13761381D01*
X13538333Y-13780428D01*
X13528809Y-13789952D01*
X13509762Y-13799476D01*
X13490714Y-13799476D01*
X13471667Y-13789952D01*
X13462143Y-13780428D01*
X13452619Y-13761381D01*
X13443095Y-13723286D01*
X13443095Y-13675667D01*
X13452619Y-13637571D01*
X13462143Y-13618524D01*
X13471667Y-13609000D01*
X13490714Y-13599476D01*
X13643095Y-13780428D02*
X13652619Y-13789952D01*
X13643095Y-13799476D01*
X13633571Y-13789952D01*
X13643095Y-13780428D01*
X13643095Y-13799476D01*
X13766905Y-13685190D02*
X13747857Y-13675667D01*
X13738333Y-13666143D01*
X13728809Y-13647095D01*
X13728809Y-13637571D01*
X13738333Y-13618524D01*
X13747857Y-13609000D01*
X13766905Y-13599476D01*
X13805000Y-13599476D01*
X13824048Y-13609000D01*
X13833571Y-13618524D01*
X13843095Y-13637571D01*
X13843095Y-13647095D01*
X13833571Y-13666143D01*
X13824048Y-13675667D01*
X13805000Y-13685190D01*
X13766905Y-13685190D01*
X13747857Y-13694714D01*
X13738333Y-13704238D01*
X13728809Y-13723286D01*
X13728809Y-13761381D01*
X13738333Y-13780428D01*
X13747857Y-13789952D01*
X13766905Y-13799476D01*
X13805000Y-13799476D01*
X13824048Y-13789952D01*
X13833571Y-13780428D01*
X13843095Y-13761381D01*
X13843095Y-13723286D01*
X13833571Y-13704238D01*
X13824048Y-13694714D01*
X13805000Y-13685190D01*
X13966905Y-13599476D02*
X13985952Y-13599476D01*
X14005000Y-13609000D01*
X14014524Y-13618524D01*
X14024048Y-13637571D01*
X14033571Y-13675667D01*
X14033571Y-13723286D01*
X14024048Y-13761381D01*
X14014524Y-13780428D01*
X14005000Y-13789952D01*
X13985952Y-13799476D01*
X13966905Y-13799476D01*
X13947857Y-13789952D01*
X13938333Y-13780428D01*
X13928809Y-13761381D01*
X13919286Y-13723286D01*
X13919286Y-13675667D01*
X13928809Y-13637571D01*
X13938333Y-13618524D01*
X13947857Y-13609000D01*
X13966905Y-13599476D01*
X14157381Y-13599476D02*
X14176428Y-13599476D01*
X14195476Y-13609000D01*
X14205000Y-13618524D01*
X14214524Y-13637571D01*
X14224048Y-13675667D01*
X14224048Y-13723286D01*
X14214524Y-13761381D01*
X14205000Y-13780428D01*
X14195476Y-13789952D01*
X14176428Y-13799476D01*
X14157381Y-13799476D01*
X14138333Y-13789952D01*
X14128809Y-13780428D01*
X14119286Y-13761381D01*
X14109762Y-13723286D01*
X14109762Y-13675667D01*
X14119286Y-13637571D01*
X14128809Y-13618524D01*
X14138333Y-13609000D01*
X14157381Y-13599476D01*
X14309762Y-13799476D02*
X14309762Y-13666143D01*
X14309762Y-13685190D02*
X14319286Y-13675667D01*
X14338333Y-13666143D01*
X14366905Y-13666143D01*
X14385952Y-13675667D01*
X14395476Y-13694714D01*
X14395476Y-13799476D01*
X14395476Y-13694714D02*
X14405000Y-13675667D01*
X14424048Y-13666143D01*
X14452619Y-13666143D01*
X14471667Y-13675667D01*
X14481190Y-13694714D01*
X14481190Y-13799476D01*
X14576428Y-13799476D02*
X14576428Y-13666143D01*
X14576428Y-13685190D02*
X14585952Y-13675667D01*
X14605000Y-13666143D01*
X14633571Y-13666143D01*
X14652619Y-13675667D01*
X14662143Y-13694714D01*
X14662143Y-13799476D01*
X14662143Y-13694714D02*
X14671667Y-13675667D01*
X14690714Y-13666143D01*
X14719286Y-13666143D01*
X14738333Y-13675667D01*
X14747857Y-13694714D01*
X14747857Y-13799476D01*
X15138333Y-13589952D02*
X14966905Y-13847095D01*
X15395476Y-13599476D02*
X15414524Y-13599476D01*
X15433571Y-13609000D01*
X15443095Y-13618524D01*
X15452619Y-13637571D01*
X15462143Y-13675667D01*
X15462143Y-13723286D01*
X15452619Y-13761381D01*
X15443095Y-13780428D01*
X15433571Y-13789952D01*
X15414524Y-13799476D01*
X15395476Y-13799476D01*
X15376428Y-13789952D01*
X15366905Y-13780428D01*
X15357381Y-13761381D01*
X15347857Y-13723286D01*
X15347857Y-13675667D01*
X15357381Y-13637571D01*
X15366905Y-13618524D01*
X15376428Y-13609000D01*
X15395476Y-13599476D01*
X15547857Y-13780428D02*
X15557381Y-13789952D01*
X15547857Y-13799476D01*
X15538333Y-13789952D01*
X15547857Y-13780428D01*
X15547857Y-13799476D01*
X15681190Y-13599476D02*
X15700238Y-13599476D01*
X15719286Y-13609000D01*
X15728809Y-13618524D01*
X15738333Y-13637571D01*
X15747857Y-13675667D01*
X15747857Y-13723286D01*
X15738333Y-13761381D01*
X15728809Y-13780428D01*
X15719286Y-13789952D01*
X15700238Y-13799476D01*
X15681190Y-13799476D01*
X15662143Y-13789952D01*
X15652619Y-13780428D01*
X15643095Y-13761381D01*
X15633571Y-13723286D01*
X15633571Y-13675667D01*
X15643095Y-13637571D01*
X15652619Y-13618524D01*
X15662143Y-13609000D01*
X15681190Y-13599476D01*
X15814524Y-13599476D02*
X15938333Y-13599476D01*
X15871667Y-13675667D01*
X15900238Y-13675667D01*
X15919286Y-13685190D01*
X15928809Y-13694714D01*
X15938333Y-13713762D01*
X15938333Y-13761381D01*
X15928809Y-13780428D01*
X15919286Y-13789952D01*
X15900238Y-13799476D01*
X15843095Y-13799476D01*
X15824048Y-13789952D01*
X15814524Y-13780428D01*
X16128809Y-13799476D02*
X16014524Y-13799476D01*
X16071667Y-13799476D02*
X16071667Y-13599476D01*
X16052619Y-13628048D01*
X16033571Y-13647095D01*
X16014524Y-13656619D01*
X16309762Y-13599476D02*
X16214524Y-13599476D01*
X16205000Y-13694714D01*
X16214524Y-13685190D01*
X16233571Y-13675667D01*
X16281190Y-13675667D01*
X16300238Y-13685190D01*
X16309762Y-13694714D01*
X16319286Y-13713762D01*
X16319286Y-13761381D01*
X16309762Y-13780428D01*
X16300238Y-13789952D01*
X16281190Y-13799476D01*
X16233571Y-13799476D01*
X16214524Y-13789952D01*
X16205000Y-13780428D01*
X16395476Y-13599476D02*
X16395476Y-13637571D01*
X16471667Y-13599476D02*
X16471667Y-13637571D01*
X16766905Y-13875667D02*
X16757381Y-13866143D01*
X16738333Y-13837571D01*
X16728809Y-13818524D01*
X16719286Y-13789952D01*
X16709762Y-13742333D01*
X16709762Y-13704238D01*
X16719286Y-13656619D01*
X16728809Y-13628048D01*
X16738333Y-13609000D01*
X16757381Y-13580428D01*
X16766905Y-13570905D01*
X16833571Y-13618524D02*
X16843095Y-13609000D01*
X16862143Y-13599476D01*
X16909762Y-13599476D01*
X16928810Y-13609000D01*
X16938333Y-13618524D01*
X16947857Y-13637571D01*
X16947857Y-13656619D01*
X16938333Y-13685190D01*
X16824048Y-13799476D01*
X16947857Y-13799476D01*
X17185952Y-13799476D02*
X17185952Y-13599476D01*
X17271667Y-13799476D02*
X17271667Y-13694714D01*
X17262143Y-13675667D01*
X17243095Y-13666143D01*
X17214524Y-13666143D01*
X17195476Y-13675667D01*
X17185952Y-13685190D01*
X17395476Y-13799476D02*
X17376429Y-13789952D01*
X17366905Y-13780428D01*
X17357381Y-13761381D01*
X17357381Y-13704238D01*
X17366905Y-13685190D01*
X17376429Y-13675667D01*
X17395476Y-13666143D01*
X17424048Y-13666143D01*
X17443095Y-13675667D01*
X17452619Y-13685190D01*
X17462143Y-13704238D01*
X17462143Y-13761381D01*
X17452619Y-13780428D01*
X17443095Y-13789952D01*
X17424048Y-13799476D01*
X17395476Y-13799476D01*
X17576429Y-13799476D02*
X17557381Y-13789952D01*
X17547857Y-13770905D01*
X17547857Y-13599476D01*
X17728810Y-13789952D02*
X17709762Y-13799476D01*
X17671667Y-13799476D01*
X17652619Y-13789952D01*
X17643095Y-13770905D01*
X17643095Y-13694714D01*
X17652619Y-13675667D01*
X17671667Y-13666143D01*
X17709762Y-13666143D01*
X17728810Y-13675667D01*
X17738333Y-13694714D01*
X17738333Y-13713762D01*
X17643095Y-13732809D01*
X17814524Y-13789952D02*
X17833571Y-13799476D01*
X17871667Y-13799476D01*
X17890714Y-13789952D01*
X17900238Y-13770905D01*
X17900238Y-13761381D01*
X17890714Y-13742333D01*
X17871667Y-13732809D01*
X17843095Y-13732809D01*
X17824048Y-13723286D01*
X17814524Y-13704238D01*
X17814524Y-13694714D01*
X17824048Y-13675667D01*
X17843095Y-13666143D01*
X17871667Y-13666143D01*
X17890714Y-13675667D01*
X17966905Y-13875667D02*
X17976429Y-13866143D01*
X17995476Y-13837571D01*
X18005000Y-13818524D01*
X18014524Y-13789952D01*
X18024048Y-13742333D01*
X18024048Y-13704238D01*
X18014524Y-13656619D01*
X18005000Y-13628048D01*
X17995476Y-13609000D01*
X17976429Y-13580428D01*
X17966905Y-13570905D01*
D14*
X13150000Y-13928000D02*
X13150000Y-14018000D01*
X13105000Y-13973000D02*
X13195000Y-13973000D01*
D11*
X13490714Y-13863476D02*
X13509762Y-13863476D01*
X13528809Y-13873000D01*
X13538333Y-13882524D01*
X13547857Y-13901571D01*
X13557381Y-13939667D01*
X13557381Y-13987286D01*
X13547857Y-14025381D01*
X13538333Y-14044428D01*
X13528809Y-14053952D01*
X13509762Y-14063476D01*
X13490714Y-14063476D01*
X13471667Y-14053952D01*
X13462143Y-14044428D01*
X13452619Y-14025381D01*
X13443095Y-13987286D01*
X13443095Y-13939667D01*
X13452619Y-13901571D01*
X13462143Y-13882524D01*
X13471667Y-13873000D01*
X13490714Y-13863476D01*
X13643095Y-14044428D02*
X13652619Y-14053952D01*
X13643095Y-14063476D01*
X13633571Y-14053952D01*
X13643095Y-14044428D01*
X13643095Y-14063476D01*
X13747857Y-14063476D02*
X13785952Y-14063476D01*
X13805000Y-14053952D01*
X13814524Y-14044428D01*
X13833571Y-14015857D01*
X13843095Y-13977762D01*
X13843095Y-13901571D01*
X13833571Y-13882524D01*
X13824048Y-13873000D01*
X13805000Y-13863476D01*
X13766905Y-13863476D01*
X13747857Y-13873000D01*
X13738333Y-13882524D01*
X13728809Y-13901571D01*
X13728809Y-13949190D01*
X13738333Y-13968238D01*
X13747857Y-13977762D01*
X13766905Y-13987286D01*
X13805000Y-13987286D01*
X13824048Y-13977762D01*
X13833571Y-13968238D01*
X13843095Y-13949190D01*
X13966905Y-13863476D02*
X13985952Y-13863476D01*
X14005000Y-13873000D01*
X14014524Y-13882524D01*
X14024048Y-13901571D01*
X14033571Y-13939667D01*
X14033571Y-13987286D01*
X14024048Y-14025381D01*
X14014524Y-14044428D01*
X14005000Y-14053952D01*
X13985952Y-14063476D01*
X13966905Y-14063476D01*
X13947857Y-14053952D01*
X13938333Y-14044428D01*
X13928809Y-14025381D01*
X13919286Y-13987286D01*
X13919286Y-13939667D01*
X13928809Y-13901571D01*
X13938333Y-13882524D01*
X13947857Y-13873000D01*
X13966905Y-13863476D01*
X14157381Y-13863476D02*
X14176428Y-13863476D01*
X14195476Y-13873000D01*
X14205000Y-13882524D01*
X14214524Y-13901571D01*
X14224048Y-13939667D01*
X14224048Y-13987286D01*
X14214524Y-14025381D01*
X14205000Y-14044428D01*
X14195476Y-14053952D01*
X14176428Y-14063476D01*
X14157381Y-14063476D01*
X14138333Y-14053952D01*
X14128809Y-14044428D01*
X14119286Y-14025381D01*
X14109762Y-13987286D01*
X14109762Y-13939667D01*
X14119286Y-13901571D01*
X14128809Y-13882524D01*
X14138333Y-13873000D01*
X14157381Y-13863476D01*
X14309762Y-14063476D02*
X14309762Y-13930143D01*
X14309762Y-13949190D02*
X14319286Y-13939667D01*
X14338333Y-13930143D01*
X14366905Y-13930143D01*
X14385952Y-13939667D01*
X14395476Y-13958714D01*
X14395476Y-14063476D01*
X14395476Y-13958714D02*
X14405000Y-13939667D01*
X14424048Y-13930143D01*
X14452619Y-13930143D01*
X14471667Y-13939667D01*
X14481190Y-13958714D01*
X14481190Y-14063476D01*
X14576428Y-14063476D02*
X14576428Y-13930143D01*
X14576428Y-13949190D02*
X14585952Y-13939667D01*
X14605000Y-13930143D01*
X14633571Y-13930143D01*
X14652619Y-13939667D01*
X14662143Y-13958714D01*
X14662143Y-14063476D01*
X14662143Y-13958714D02*
X14671667Y-13939667D01*
X14690714Y-13930143D01*
X14719286Y-13930143D01*
X14738333Y-13939667D01*
X14747857Y-13958714D01*
X14747857Y-14063476D01*
X15138333Y-13853952D02*
X14966905Y-14111095D01*
X15395476Y-13863476D02*
X15414524Y-13863476D01*
X15433571Y-13873000D01*
X15443095Y-13882524D01*
X15452619Y-13901571D01*
X15462143Y-13939667D01*
X15462143Y-13987286D01*
X15452619Y-14025381D01*
X15443095Y-14044428D01*
X15433571Y-14053952D01*
X15414524Y-14063476D01*
X15395476Y-14063476D01*
X15376428Y-14053952D01*
X15366905Y-14044428D01*
X15357381Y-14025381D01*
X15347857Y-13987286D01*
X15347857Y-13939667D01*
X15357381Y-13901571D01*
X15366905Y-13882524D01*
X15376428Y-13873000D01*
X15395476Y-13863476D01*
X15547857Y-14044428D02*
X15557381Y-14053952D01*
X15547857Y-14063476D01*
X15538333Y-14053952D01*
X15547857Y-14044428D01*
X15547857Y-14063476D01*
X15681190Y-13863476D02*
X15700238Y-13863476D01*
X15719286Y-13873000D01*
X15728809Y-13882524D01*
X15738333Y-13901571D01*
X15747857Y-13939667D01*
X15747857Y-13987286D01*
X15738333Y-14025381D01*
X15728809Y-14044428D01*
X15719286Y-14053952D01*
X15700238Y-14063476D01*
X15681190Y-14063476D01*
X15662143Y-14053952D01*
X15652619Y-14044428D01*
X15643095Y-14025381D01*
X15633571Y-13987286D01*
X15633571Y-13939667D01*
X15643095Y-13901571D01*
X15652619Y-13882524D01*
X15662143Y-13873000D01*
X15681190Y-13863476D01*
X15814524Y-13863476D02*
X15938333Y-13863476D01*
X15871667Y-13939667D01*
X15900238Y-13939667D01*
X15919286Y-13949190D01*
X15928809Y-13958714D01*
X15938333Y-13977762D01*
X15938333Y-14025381D01*
X15928809Y-14044428D01*
X15919286Y-14053952D01*
X15900238Y-14063476D01*
X15843095Y-14063476D01*
X15824048Y-14053952D01*
X15814524Y-14044428D01*
X16119286Y-13863476D02*
X16024048Y-13863476D01*
X16014524Y-13958714D01*
X16024048Y-13949190D01*
X16043095Y-13939667D01*
X16090714Y-13939667D01*
X16109762Y-13949190D01*
X16119286Y-13958714D01*
X16128809Y-13977762D01*
X16128809Y-14025381D01*
X16119286Y-14044428D01*
X16109762Y-14053952D01*
X16090714Y-14063476D01*
X16043095Y-14063476D01*
X16024048Y-14053952D01*
X16014524Y-14044428D01*
X16300238Y-13930143D02*
X16300238Y-14063476D01*
X16252619Y-13853952D02*
X16205000Y-13996809D01*
X16328809Y-13996809D01*
X16395476Y-13863476D02*
X16395476Y-13901571D01*
X16471667Y-13863476D02*
X16471667Y-13901571D01*
X16766905Y-14139667D02*
X16757381Y-14130143D01*
X16738333Y-14101571D01*
X16728809Y-14082524D01*
X16719286Y-14053952D01*
X16709762Y-14006333D01*
X16709762Y-13968238D01*
X16719286Y-13920619D01*
X16728809Y-13892048D01*
X16738333Y-13873000D01*
X16757381Y-13844428D01*
X16766905Y-13834905D01*
X16833571Y-13882524D02*
X16843095Y-13873000D01*
X16862143Y-13863476D01*
X16909762Y-13863476D01*
X16928810Y-13873000D01*
X16938333Y-13882524D01*
X16947857Y-13901571D01*
X16947857Y-13920619D01*
X16938333Y-13949190D01*
X16824048Y-14063476D01*
X16947857Y-14063476D01*
X17185952Y-14063476D02*
X17185952Y-13863476D01*
X17271667Y-14063476D02*
X17271667Y-13958714D01*
X17262143Y-13939667D01*
X17243095Y-13930143D01*
X17214524Y-13930143D01*
X17195476Y-13939667D01*
X17185952Y-13949190D01*
X17395476Y-14063476D02*
X17376429Y-14053952D01*
X17366905Y-14044428D01*
X17357381Y-14025381D01*
X17357381Y-13968238D01*
X17366905Y-13949190D01*
X17376429Y-13939667D01*
X17395476Y-13930143D01*
X17424048Y-13930143D01*
X17443095Y-13939667D01*
X17452619Y-13949190D01*
X17462143Y-13968238D01*
X17462143Y-14025381D01*
X17452619Y-14044428D01*
X17443095Y-14053952D01*
X17424048Y-14063476D01*
X17395476Y-14063476D01*
X17576429Y-14063476D02*
X17557381Y-14053952D01*
X17547857Y-14034905D01*
X17547857Y-13863476D01*
X17728810Y-14053952D02*
X17709762Y-14063476D01*
X17671667Y-14063476D01*
X17652619Y-14053952D01*
X17643095Y-14034905D01*
X17643095Y-13958714D01*
X17652619Y-13939667D01*
X17671667Y-13930143D01*
X17709762Y-13930143D01*
X17728810Y-13939667D01*
X17738333Y-13958714D01*
X17738333Y-13977762D01*
X17643095Y-13996809D01*
X17814524Y-14053952D02*
X17833571Y-14063476D01*
X17871667Y-14063476D01*
X17890714Y-14053952D01*
X17900238Y-14034905D01*
X17900238Y-14025381D01*
X17890714Y-14006333D01*
X17871667Y-13996809D01*
X17843095Y-13996809D01*
X17824048Y-13987286D01*
X17814524Y-13968238D01*
X17814524Y-13958714D01*
X17824048Y-13939667D01*
X17843095Y-13930143D01*
X17871667Y-13930143D01*
X17890714Y-13939667D01*
X17966905Y-14139667D02*
X17976429Y-14130143D01*
X17995476Y-14101571D01*
X18005000Y-14082524D01*
X18014524Y-14053952D01*
X18024048Y-14006333D01*
X18024048Y-13968238D01*
X18014524Y-13920619D01*
X18005000Y-13892048D01*
X17995476Y-13873000D01*
X17976429Y-13844428D01*
X17966905Y-13834905D01*
D15*
X13178891Y-14275891D02*
X13178891Y-14198109D01*
X13101109Y-14198109D01*
X13101109Y-14275891D01*
X13178891Y-14275891D01*
D11*
X13557381Y-14327476D02*
X13443095Y-14327476D01*
X13500238Y-14327476D02*
X13500238Y-14127476D01*
X13481190Y-14156048D01*
X13462143Y-14175095D01*
X13443095Y-14184619D01*
X13643095Y-14308428D02*
X13652619Y-14317952D01*
X13643095Y-14327476D01*
X13633571Y-14317952D01*
X13643095Y-14308428D01*
X13643095Y-14327476D01*
X13843095Y-14327476D02*
X13728809Y-14327476D01*
X13785952Y-14327476D02*
X13785952Y-14127476D01*
X13766905Y-14156048D01*
X13747857Y-14175095D01*
X13728809Y-14184619D01*
X13966905Y-14127476D02*
X13985952Y-14127476D01*
X14005000Y-14137000D01*
X14014524Y-14146524D01*
X14024048Y-14165571D01*
X14033571Y-14203667D01*
X14033571Y-14251286D01*
X14024048Y-14289381D01*
X14014524Y-14308428D01*
X14005000Y-14317952D01*
X13985952Y-14327476D01*
X13966905Y-14327476D01*
X13947857Y-14317952D01*
X13938333Y-14308428D01*
X13928809Y-14289381D01*
X13919286Y-14251286D01*
X13919286Y-14203667D01*
X13928809Y-14165571D01*
X13938333Y-14146524D01*
X13947857Y-14137000D01*
X13966905Y-14127476D01*
X14157381Y-14127476D02*
X14176428Y-14127476D01*
X14195476Y-14137000D01*
X14205000Y-14146524D01*
X14214524Y-14165571D01*
X14224048Y-14203667D01*
X14224048Y-14251286D01*
X14214524Y-14289381D01*
X14205000Y-14308428D01*
X14195476Y-14317952D01*
X14176428Y-14327476D01*
X14157381Y-14327476D01*
X14138333Y-14317952D01*
X14128809Y-14308428D01*
X14119286Y-14289381D01*
X14109762Y-14251286D01*
X14109762Y-14203667D01*
X14119286Y-14165571D01*
X14128809Y-14146524D01*
X14138333Y-14137000D01*
X14157381Y-14127476D01*
X14309762Y-14327476D02*
X14309762Y-14194143D01*
X14309762Y-14213190D02*
X14319286Y-14203667D01*
X14338333Y-14194143D01*
X14366905Y-14194143D01*
X14385952Y-14203667D01*
X14395476Y-14222714D01*
X14395476Y-14327476D01*
X14395476Y-14222714D02*
X14405000Y-14203667D01*
X14424048Y-14194143D01*
X14452619Y-14194143D01*
X14471667Y-14203667D01*
X14481190Y-14222714D01*
X14481190Y-14327476D01*
X14576428Y-14327476D02*
X14576428Y-14194143D01*
X14576428Y-14213190D02*
X14585952Y-14203667D01*
X14605000Y-14194143D01*
X14633571Y-14194143D01*
X14652619Y-14203667D01*
X14662143Y-14222714D01*
X14662143Y-14327476D01*
X14662143Y-14222714D02*
X14671667Y-14203667D01*
X14690714Y-14194143D01*
X14719286Y-14194143D01*
X14738333Y-14203667D01*
X14747857Y-14222714D01*
X14747857Y-14327476D01*
X15138333Y-14117952D02*
X14966905Y-14375095D01*
X15395476Y-14127476D02*
X15414524Y-14127476D01*
X15433571Y-14137000D01*
X15443095Y-14146524D01*
X15452619Y-14165571D01*
X15462143Y-14203667D01*
X15462143Y-14251286D01*
X15452619Y-14289381D01*
X15443095Y-14308428D01*
X15433571Y-14317952D01*
X15414524Y-14327476D01*
X15395476Y-14327476D01*
X15376428Y-14317952D01*
X15366905Y-14308428D01*
X15357381Y-14289381D01*
X15347857Y-14251286D01*
X15347857Y-14203667D01*
X15357381Y-14165571D01*
X15366905Y-14146524D01*
X15376428Y-14137000D01*
X15395476Y-14127476D01*
X15547857Y-14308428D02*
X15557381Y-14317952D01*
X15547857Y-14327476D01*
X15538333Y-14317952D01*
X15547857Y-14308428D01*
X15547857Y-14327476D01*
X15681190Y-14127476D02*
X15700238Y-14127476D01*
X15719286Y-14137000D01*
X15728809Y-14146524D01*
X15738333Y-14165571D01*
X15747857Y-14203667D01*
X15747857Y-14251286D01*
X15738333Y-14289381D01*
X15728809Y-14308428D01*
X15719286Y-14317952D01*
X15700238Y-14327476D01*
X15681190Y-14327476D01*
X15662143Y-14317952D01*
X15652619Y-14308428D01*
X15643095Y-14289381D01*
X15633571Y-14251286D01*
X15633571Y-14203667D01*
X15643095Y-14165571D01*
X15652619Y-14146524D01*
X15662143Y-14137000D01*
X15681190Y-14127476D01*
X15919286Y-14194143D02*
X15919286Y-14327476D01*
X15871667Y-14117952D02*
X15824048Y-14260809D01*
X15947857Y-14260809D01*
X16005000Y-14127476D02*
X16128809Y-14127476D01*
X16062143Y-14203667D01*
X16090714Y-14203667D01*
X16109762Y-14213190D01*
X16119286Y-14222714D01*
X16128809Y-14241762D01*
X16128809Y-14289381D01*
X16119286Y-14308428D01*
X16109762Y-14317952D01*
X16090714Y-14327476D01*
X16033571Y-14327476D01*
X16014524Y-14317952D01*
X16005000Y-14308428D01*
X16195476Y-14127476D02*
X16319286Y-14127476D01*
X16252619Y-14203667D01*
X16281190Y-14203667D01*
X16300238Y-14213190D01*
X16309762Y-14222714D01*
X16319286Y-14241762D01*
X16319286Y-14289381D01*
X16309762Y-14308428D01*
X16300238Y-14317952D01*
X16281190Y-14327476D01*
X16224048Y-14327476D01*
X16205000Y-14317952D01*
X16195476Y-14308428D01*
X16395476Y-14127476D02*
X16395476Y-14165571D01*
X16471667Y-14127476D02*
X16471667Y-14165571D01*
X16766905Y-14403667D02*
X16757381Y-14394143D01*
X16738333Y-14365571D01*
X16728809Y-14346524D01*
X16719286Y-14317952D01*
X16709762Y-14270333D01*
X16709762Y-14232238D01*
X16719286Y-14184619D01*
X16728809Y-14156048D01*
X16738333Y-14137000D01*
X16757381Y-14108428D01*
X16766905Y-14098905D01*
X16928810Y-14127476D02*
X16890714Y-14127476D01*
X16871667Y-14137000D01*
X16862143Y-14146524D01*
X16843095Y-14175095D01*
X16833571Y-14213190D01*
X16833571Y-14289381D01*
X16843095Y-14308428D01*
X16852619Y-14317952D01*
X16871667Y-14327476D01*
X16909762Y-14327476D01*
X16928810Y-14317952D01*
X16938333Y-14308428D01*
X16947857Y-14289381D01*
X16947857Y-14241762D01*
X16938333Y-14222714D01*
X16928810Y-14213190D01*
X16909762Y-14203667D01*
X16871667Y-14203667D01*
X16852619Y-14213190D01*
X16843095Y-14222714D01*
X16833571Y-14241762D01*
X17185952Y-14327476D02*
X17185952Y-14127476D01*
X17271667Y-14327476D02*
X17271667Y-14222714D01*
X17262143Y-14203667D01*
X17243095Y-14194143D01*
X17214524Y-14194143D01*
X17195476Y-14203667D01*
X17185952Y-14213190D01*
X17395476Y-14327476D02*
X17376429Y-14317952D01*
X17366905Y-14308428D01*
X17357381Y-14289381D01*
X17357381Y-14232238D01*
X17366905Y-14213190D01*
X17376429Y-14203667D01*
X17395476Y-14194143D01*
X17424048Y-14194143D01*
X17443095Y-14203667D01*
X17452619Y-14213190D01*
X17462143Y-14232238D01*
X17462143Y-14289381D01*
X17452619Y-14308428D01*
X17443095Y-14317952D01*
X17424048Y-14327476D01*
X17395476Y-14327476D01*
X17576429Y-14327476D02*
X17557381Y-14317952D01*
X17547857Y-14298905D01*
X17547857Y-14127476D01*
X17728810Y-14317952D02*
X17709762Y-14327476D01*
X17671667Y-14327476D01*
X17652619Y-14317952D01*
X17643095Y-14298905D01*
X17643095Y-14222714D01*
X17652619Y-14203667D01*
X17671667Y-14194143D01*
X17709762Y-14194143D01*
X17728810Y-14203667D01*
X17738333Y-14222714D01*
X17738333Y-14241762D01*
X17643095Y-14260809D01*
X17814524Y-14317952D02*
X17833571Y-14327476D01*
X17871667Y-14327476D01*
X17890714Y-14317952D01*
X17900238Y-14298905D01*
X17900238Y-14289381D01*
X17890714Y-14270333D01*
X17871667Y-14260809D01*
X17843095Y-14260809D01*
X17824048Y-14251286D01*
X17814524Y-14232238D01*
X17814524Y-14222714D01*
X17824048Y-14203667D01*
X17843095Y-14194143D01*
X17871667Y-14194143D01*
X17890714Y-14203667D01*
X17966905Y-14403667D02*
X17976429Y-14394143D01*
X17995476Y-14365571D01*
X18005000Y-14346524D01*
X18014524Y-14317952D01*
X18024048Y-14270333D01*
X18024048Y-14232238D01*
X18014524Y-14184619D01*
X18005000Y-14156048D01*
X17995476Y-14137000D01*
X17976429Y-14108428D01*
X17966905Y-14098905D01*
D16*
X13130000Y-14566000D02*
X13195000Y-14501000D01*
X13130000Y-14436000D01*
X13065000Y-14501000D01*
X13130000Y-14566000D01*
D11*
X13557381Y-14591476D02*
X13443095Y-14591476D01*
X13500238Y-14591476D02*
X13500238Y-14391476D01*
X13481190Y-14420048D01*
X13462143Y-14439095D01*
X13443095Y-14448619D01*
X13643095Y-14572428D02*
X13652619Y-14581952D01*
X13643095Y-14591476D01*
X13633571Y-14581952D01*
X13643095Y-14572428D01*
X13643095Y-14591476D01*
X13719286Y-14391476D02*
X13843095Y-14391476D01*
X13776428Y-14467667D01*
X13805000Y-14467667D01*
X13824048Y-14477190D01*
X13833571Y-14486714D01*
X13843095Y-14505762D01*
X13843095Y-14553381D01*
X13833571Y-14572428D01*
X13824048Y-14581952D01*
X13805000Y-14591476D01*
X13747857Y-14591476D01*
X13728809Y-14581952D01*
X13719286Y-14572428D01*
X13966905Y-14391476D02*
X13985952Y-14391476D01*
X14005000Y-14401000D01*
X14014524Y-14410524D01*
X14024048Y-14429571D01*
X14033571Y-14467667D01*
X14033571Y-14515286D01*
X14024048Y-14553381D01*
X14014524Y-14572428D01*
X14005000Y-14581952D01*
X13985952Y-14591476D01*
X13966905Y-14591476D01*
X13947857Y-14581952D01*
X13938333Y-14572428D01*
X13928809Y-14553381D01*
X13919286Y-14515286D01*
X13919286Y-14467667D01*
X13928809Y-14429571D01*
X13938333Y-14410524D01*
X13947857Y-14401000D01*
X13966905Y-14391476D01*
X14157381Y-14391476D02*
X14176428Y-14391476D01*
X14195476Y-14401000D01*
X14205000Y-14410524D01*
X14214524Y-14429571D01*
X14224048Y-14467667D01*
X14224048Y-14515286D01*
X14214524Y-14553381D01*
X14205000Y-14572428D01*
X14195476Y-14581952D01*
X14176428Y-14591476D01*
X14157381Y-14591476D01*
X14138333Y-14581952D01*
X14128809Y-14572428D01*
X14119286Y-14553381D01*
X14109762Y-14515286D01*
X14109762Y-14467667D01*
X14119286Y-14429571D01*
X14128809Y-14410524D01*
X14138333Y-14401000D01*
X14157381Y-14391476D01*
X14309762Y-14591476D02*
X14309762Y-14458143D01*
X14309762Y-14477190D02*
X14319286Y-14467667D01*
X14338333Y-14458143D01*
X14366905Y-14458143D01*
X14385952Y-14467667D01*
X14395476Y-14486714D01*
X14395476Y-14591476D01*
X14395476Y-14486714D02*
X14405000Y-14467667D01*
X14424048Y-14458143D01*
X14452619Y-14458143D01*
X14471667Y-14467667D01*
X14481190Y-14486714D01*
X14481190Y-14591476D01*
X14576428Y-14591476D02*
X14576428Y-14458143D01*
X14576428Y-14477190D02*
X14585952Y-14467667D01*
X14605000Y-14458143D01*
X14633571Y-14458143D01*
X14652619Y-14467667D01*
X14662143Y-14486714D01*
X14662143Y-14591476D01*
X14662143Y-14486714D02*
X14671667Y-14467667D01*
X14690714Y-14458143D01*
X14719286Y-14458143D01*
X14738333Y-14467667D01*
X14747857Y-14486714D01*
X14747857Y-14591476D01*
X15138333Y-14381952D02*
X14966905Y-14639095D01*
X15395476Y-14391476D02*
X15414524Y-14391476D01*
X15433571Y-14401000D01*
X15443095Y-14410524D01*
X15452619Y-14429571D01*
X15462143Y-14467667D01*
X15462143Y-14515286D01*
X15452619Y-14553381D01*
X15443095Y-14572428D01*
X15433571Y-14581952D01*
X15414524Y-14591476D01*
X15395476Y-14591476D01*
X15376428Y-14581952D01*
X15366905Y-14572428D01*
X15357381Y-14553381D01*
X15347857Y-14515286D01*
X15347857Y-14467667D01*
X15357381Y-14429571D01*
X15366905Y-14410524D01*
X15376428Y-14401000D01*
X15395476Y-14391476D01*
X15547857Y-14572428D02*
X15557381Y-14581952D01*
X15547857Y-14591476D01*
X15538333Y-14581952D01*
X15547857Y-14572428D01*
X15547857Y-14591476D01*
X15681190Y-14391476D02*
X15700238Y-14391476D01*
X15719286Y-14401000D01*
X15728809Y-14410524D01*
X15738333Y-14429571D01*
X15747857Y-14467667D01*
X15747857Y-14515286D01*
X15738333Y-14553381D01*
X15728809Y-14572428D01*
X15719286Y-14581952D01*
X15700238Y-14591476D01*
X15681190Y-14591476D01*
X15662143Y-14581952D01*
X15652619Y-14572428D01*
X15643095Y-14553381D01*
X15633571Y-14515286D01*
X15633571Y-14467667D01*
X15643095Y-14429571D01*
X15652619Y-14410524D01*
X15662143Y-14401000D01*
X15681190Y-14391476D01*
X15928809Y-14391476D02*
X15833571Y-14391476D01*
X15824048Y-14486714D01*
X15833571Y-14477190D01*
X15852619Y-14467667D01*
X15900238Y-14467667D01*
X15919286Y-14477190D01*
X15928809Y-14486714D01*
X15938333Y-14505762D01*
X15938333Y-14553381D01*
X15928809Y-14572428D01*
X15919286Y-14581952D01*
X15900238Y-14591476D01*
X15852619Y-14591476D01*
X15833571Y-14581952D01*
X15824048Y-14572428D01*
X16128809Y-14591476D02*
X16014524Y-14591476D01*
X16071667Y-14591476D02*
X16071667Y-14391476D01*
X16052619Y-14420048D01*
X16033571Y-14439095D01*
X16014524Y-14448619D01*
X16205000Y-14410524D02*
X16214524Y-14401000D01*
X16233571Y-14391476D01*
X16281190Y-14391476D01*
X16300238Y-14401000D01*
X16309762Y-14410524D01*
X16319286Y-14429571D01*
X16319286Y-14448619D01*
X16309762Y-14477190D01*
X16195476Y-14591476D01*
X16319286Y-14591476D01*
X16395476Y-14391476D02*
X16395476Y-14429571D01*
X16471667Y-14391476D02*
X16471667Y-14429571D01*
X16766905Y-14667667D02*
X16757381Y-14658143D01*
X16738333Y-14629571D01*
X16728809Y-14610524D01*
X16719286Y-14581952D01*
X16709762Y-14534333D01*
X16709762Y-14496238D01*
X16719286Y-14448619D01*
X16728809Y-14420048D01*
X16738333Y-14401000D01*
X16757381Y-14372428D01*
X16766905Y-14362905D01*
X16833571Y-14410524D02*
X16843095Y-14401000D01*
X16862143Y-14391476D01*
X16909762Y-14391476D01*
X16928810Y-14401000D01*
X16938333Y-14410524D01*
X16947857Y-14429571D01*
X16947857Y-14448619D01*
X16938333Y-14477190D01*
X16824048Y-14591476D01*
X16947857Y-14591476D01*
X17185952Y-14591476D02*
X17185952Y-14391476D01*
X17271667Y-14591476D02*
X17271667Y-14486714D01*
X17262143Y-14467667D01*
X17243095Y-14458143D01*
X17214524Y-14458143D01*
X17195476Y-14467667D01*
X17185952Y-14477190D01*
X17395476Y-14591476D02*
X17376429Y-14581952D01*
X17366905Y-14572428D01*
X17357381Y-14553381D01*
X17357381Y-14496238D01*
X17366905Y-14477190D01*
X17376429Y-14467667D01*
X17395476Y-14458143D01*
X17424048Y-14458143D01*
X17443095Y-14467667D01*
X17452619Y-14477190D01*
X17462143Y-14496238D01*
X17462143Y-14553381D01*
X17452619Y-14572428D01*
X17443095Y-14581952D01*
X17424048Y-14591476D01*
X17395476Y-14591476D01*
X17576429Y-14591476D02*
X17557381Y-14581952D01*
X17547857Y-14562905D01*
X17547857Y-14391476D01*
X17728810Y-14581952D02*
X17709762Y-14591476D01*
X17671667Y-14591476D01*
X17652619Y-14581952D01*
X17643095Y-14562905D01*
X17643095Y-14486714D01*
X17652619Y-14467667D01*
X17671667Y-14458143D01*
X17709762Y-14458143D01*
X17728810Y-14467667D01*
X17738333Y-14486714D01*
X17738333Y-14505762D01*
X17643095Y-14524809D01*
X17814524Y-14581952D02*
X17833571Y-14591476D01*
X17871667Y-14591476D01*
X17890714Y-14581952D01*
X17900238Y-14562905D01*
X17900238Y-14553381D01*
X17890714Y-14534333D01*
X17871667Y-14524809D01*
X17843095Y-14524809D01*
X17824048Y-14515286D01*
X17814524Y-14496238D01*
X17814524Y-14486714D01*
X17824048Y-14467667D01*
X17843095Y-14458143D01*
X17871667Y-14458143D01*
X17890714Y-14467667D01*
X17966905Y-14667667D02*
X17976429Y-14658143D01*
X17995476Y-14629571D01*
X18005000Y-14610524D01*
X18014524Y-14581952D01*
X18024048Y-14534333D01*
X18024048Y-14496238D01*
X18014524Y-14448619D01*
X18005000Y-14420048D01*
X17995476Y-14401000D01*
X17976429Y-14372428D01*
X17966905Y-14362905D01*
D17*
X13025000Y-14680000D02*
X13195000Y-14850000D01*
X13195000Y-14680000D02*
X13025000Y-14850000D01*
X13195000Y-14765000D02*
G75*
G03*
X13195000Y-14765000I-85000J0D01*
G01*
D11*
X13557381Y-14855476D02*
X13443095Y-14855476D01*
X13500238Y-14855476D02*
X13500238Y-14655476D01*
X13481190Y-14684048D01*
X13462143Y-14703095D01*
X13443095Y-14712619D01*
X13643095Y-14836428D02*
X13652619Y-14845952D01*
X13643095Y-14855476D01*
X13633571Y-14845952D01*
X13643095Y-14836428D01*
X13643095Y-14855476D01*
X13719286Y-14655476D02*
X13852619Y-14655476D01*
X13766905Y-14855476D01*
X13966905Y-14655476D02*
X13985952Y-14655476D01*
X14005000Y-14665000D01*
X14014524Y-14674524D01*
X14024048Y-14693571D01*
X14033571Y-14731667D01*
X14033571Y-14779286D01*
X14024048Y-14817381D01*
X14014524Y-14836428D01*
X14005000Y-14845952D01*
X13985952Y-14855476D01*
X13966905Y-14855476D01*
X13947857Y-14845952D01*
X13938333Y-14836428D01*
X13928809Y-14817381D01*
X13919286Y-14779286D01*
X13919286Y-14731667D01*
X13928809Y-14693571D01*
X13938333Y-14674524D01*
X13947857Y-14665000D01*
X13966905Y-14655476D01*
X14157381Y-14655476D02*
X14176428Y-14655476D01*
X14195476Y-14665000D01*
X14205000Y-14674524D01*
X14214524Y-14693571D01*
X14224048Y-14731667D01*
X14224048Y-14779286D01*
X14214524Y-14817381D01*
X14205000Y-14836428D01*
X14195476Y-14845952D01*
X14176428Y-14855476D01*
X14157381Y-14855476D01*
X14138333Y-14845952D01*
X14128809Y-14836428D01*
X14119286Y-14817381D01*
X14109762Y-14779286D01*
X14109762Y-14731667D01*
X14119286Y-14693571D01*
X14128809Y-14674524D01*
X14138333Y-14665000D01*
X14157381Y-14655476D01*
X14309762Y-14855476D02*
X14309762Y-14722143D01*
X14309762Y-14741190D02*
X14319286Y-14731667D01*
X14338333Y-14722143D01*
X14366905Y-14722143D01*
X14385952Y-14731667D01*
X14395476Y-14750714D01*
X14395476Y-14855476D01*
X14395476Y-14750714D02*
X14405000Y-14731667D01*
X14424048Y-14722143D01*
X14452619Y-14722143D01*
X14471667Y-14731667D01*
X14481190Y-14750714D01*
X14481190Y-14855476D01*
X14576428Y-14855476D02*
X14576428Y-14722143D01*
X14576428Y-14741190D02*
X14585952Y-14731667D01*
X14605000Y-14722143D01*
X14633571Y-14722143D01*
X14652619Y-14731667D01*
X14662143Y-14750714D01*
X14662143Y-14855476D01*
X14662143Y-14750714D02*
X14671667Y-14731667D01*
X14690714Y-14722143D01*
X14719286Y-14722143D01*
X14738333Y-14731667D01*
X14747857Y-14750714D01*
X14747857Y-14855476D01*
X15138333Y-14645952D02*
X14966905Y-14903095D01*
X15395476Y-14655476D02*
X15414524Y-14655476D01*
X15433571Y-14665000D01*
X15443095Y-14674524D01*
X15452619Y-14693571D01*
X15462143Y-14731667D01*
X15462143Y-14779286D01*
X15452619Y-14817381D01*
X15443095Y-14836428D01*
X15433571Y-14845952D01*
X15414524Y-14855476D01*
X15395476Y-14855476D01*
X15376428Y-14845952D01*
X15366905Y-14836428D01*
X15357381Y-14817381D01*
X15347857Y-14779286D01*
X15347857Y-14731667D01*
X15357381Y-14693571D01*
X15366905Y-14674524D01*
X15376428Y-14665000D01*
X15395476Y-14655476D01*
X15547857Y-14836428D02*
X15557381Y-14845952D01*
X15547857Y-14855476D01*
X15538333Y-14845952D01*
X15547857Y-14836428D01*
X15547857Y-14855476D01*
X15681190Y-14655476D02*
X15700238Y-14655476D01*
X15719286Y-14665000D01*
X15728809Y-14674524D01*
X15738333Y-14693571D01*
X15747857Y-14731667D01*
X15747857Y-14779286D01*
X15738333Y-14817381D01*
X15728809Y-14836428D01*
X15719286Y-14845952D01*
X15700238Y-14855476D01*
X15681190Y-14855476D01*
X15662143Y-14845952D01*
X15652619Y-14836428D01*
X15643095Y-14817381D01*
X15633571Y-14779286D01*
X15633571Y-14731667D01*
X15643095Y-14693571D01*
X15652619Y-14674524D01*
X15662143Y-14665000D01*
X15681190Y-14655476D01*
X15919286Y-14655476D02*
X15881190Y-14655476D01*
X15862143Y-14665000D01*
X15852619Y-14674524D01*
X15833571Y-14703095D01*
X15824048Y-14741190D01*
X15824048Y-14817381D01*
X15833571Y-14836428D01*
X15843095Y-14845952D01*
X15862143Y-14855476D01*
X15900238Y-14855476D01*
X15919286Y-14845952D01*
X15928809Y-14836428D01*
X15938333Y-14817381D01*
X15938333Y-14769762D01*
X15928809Y-14750714D01*
X15919286Y-14741190D01*
X15900238Y-14731667D01*
X15862143Y-14731667D01*
X15843095Y-14741190D01*
X15833571Y-14750714D01*
X15824048Y-14769762D01*
X16109762Y-14655476D02*
X16071667Y-14655476D01*
X16052619Y-14665000D01*
X16043095Y-14674524D01*
X16024048Y-14703095D01*
X16014524Y-14741190D01*
X16014524Y-14817381D01*
X16024048Y-14836428D01*
X16033571Y-14845952D01*
X16052619Y-14855476D01*
X16090714Y-14855476D01*
X16109762Y-14845952D01*
X16119286Y-14836428D01*
X16128809Y-14817381D01*
X16128809Y-14769762D01*
X16119286Y-14750714D01*
X16109762Y-14741190D01*
X16090714Y-14731667D01*
X16052619Y-14731667D01*
X16033571Y-14741190D01*
X16024048Y-14750714D01*
X16014524Y-14769762D01*
X16224048Y-14855476D02*
X16262143Y-14855476D01*
X16281190Y-14845952D01*
X16290714Y-14836428D01*
X16309762Y-14807857D01*
X16319286Y-14769762D01*
X16319286Y-14693571D01*
X16309762Y-14674524D01*
X16300238Y-14665000D01*
X16281190Y-14655476D01*
X16243095Y-14655476D01*
X16224048Y-14665000D01*
X16214524Y-14674524D01*
X16205000Y-14693571D01*
X16205000Y-14741190D01*
X16214524Y-14760238D01*
X16224048Y-14769762D01*
X16243095Y-14779286D01*
X16281190Y-14779286D01*
X16300238Y-14769762D01*
X16309762Y-14760238D01*
X16319286Y-14741190D01*
X16395476Y-14655476D02*
X16395476Y-14693571D01*
X16471667Y-14655476D02*
X16471667Y-14693571D01*
X16766905Y-14931667D02*
X16757381Y-14922143D01*
X16738333Y-14893571D01*
X16728809Y-14874524D01*
X16719286Y-14845952D01*
X16709762Y-14798333D01*
X16709762Y-14760238D01*
X16719286Y-14712619D01*
X16728809Y-14684048D01*
X16738333Y-14665000D01*
X16757381Y-14636428D01*
X16766905Y-14626905D01*
X16947857Y-14855476D02*
X16833571Y-14855476D01*
X16890714Y-14855476D02*
X16890714Y-14655476D01*
X16871667Y-14684048D01*
X16852619Y-14703095D01*
X16833571Y-14712619D01*
X17071667Y-14655476D02*
X17090714Y-14655476D01*
X17109762Y-14665000D01*
X17119286Y-14674524D01*
X17128810Y-14693571D01*
X17138333Y-14731667D01*
X17138333Y-14779286D01*
X17128810Y-14817381D01*
X17119286Y-14836428D01*
X17109762Y-14845952D01*
X17090714Y-14855476D01*
X17071667Y-14855476D01*
X17052619Y-14845952D01*
X17043095Y-14836428D01*
X17033571Y-14817381D01*
X17024048Y-14779286D01*
X17024048Y-14731667D01*
X17033571Y-14693571D01*
X17043095Y-14674524D01*
X17052619Y-14665000D01*
X17071667Y-14655476D01*
X17376429Y-14855476D02*
X17376429Y-14655476D01*
X17462143Y-14855476D02*
X17462143Y-14750714D01*
X17452619Y-14731667D01*
X17433571Y-14722143D01*
X17405000Y-14722143D01*
X17385952Y-14731667D01*
X17376429Y-14741190D01*
X17585952Y-14855476D02*
X17566905Y-14845952D01*
X17557381Y-14836428D01*
X17547857Y-14817381D01*
X17547857Y-14760238D01*
X17557381Y-14741190D01*
X17566905Y-14731667D01*
X17585952Y-14722143D01*
X17614524Y-14722143D01*
X17633571Y-14731667D01*
X17643095Y-14741190D01*
X17652619Y-14760238D01*
X17652619Y-14817381D01*
X17643095Y-14836428D01*
X17633571Y-14845952D01*
X17614524Y-14855476D01*
X17585952Y-14855476D01*
X17766905Y-14855476D02*
X17747857Y-14845952D01*
X17738333Y-14826905D01*
X17738333Y-14655476D01*
X17919286Y-14845952D02*
X17900238Y-14855476D01*
X17862143Y-14855476D01*
X17843095Y-14845952D01*
X17833571Y-14826905D01*
X17833571Y-14750714D01*
X17843095Y-14731667D01*
X17862143Y-14722143D01*
X17900238Y-14722143D01*
X17919286Y-14731667D01*
X17928810Y-14750714D01*
X17928810Y-14769762D01*
X17833571Y-14788809D01*
X18005000Y-14845952D02*
X18024048Y-14855476D01*
X18062143Y-14855476D01*
X18081190Y-14845952D01*
X18090714Y-14826905D01*
X18090714Y-14817381D01*
X18081190Y-14798333D01*
X18062143Y-14788809D01*
X18033571Y-14788809D01*
X18014524Y-14779286D01*
X18005000Y-14760238D01*
X18005000Y-14750714D01*
X18014524Y-14731667D01*
X18033571Y-14722143D01*
X18062143Y-14722143D01*
X18081190Y-14731667D01*
X18157381Y-14931667D02*
X18166905Y-14922143D01*
X18185952Y-14893571D01*
X18195476Y-14874524D01*
X18205000Y-14845952D01*
X18214524Y-14798333D01*
X18214524Y-14760238D01*
X18205000Y-14712619D01*
X18195476Y-14684048D01*
X18185952Y-14665000D01*
X18166905Y-14636428D01*
X18157381Y-14626905D01*
M02*
