G04 #@! TF.GenerationSoftware,KiCad,Pcbnew,6.0.11+dfsg-1*
G04 #@! TF.CreationDate,2023-07-14T21:47:45+01:00*
G04 #@! TF.ProjectId,bridge-rectifier,62726964-6765-42d7-9265-637469666965,rev?*
G04 #@! TF.SameCoordinates,Original*
G04 #@! TF.FileFunction,Legend,Bot*
G04 #@! TF.FilePolarity,Positive*
%FSLAX46Y46*%
G04 Gerber Fmt 4.6, Leading zero omitted, Abs format (unit mm)*
G04 Created by KiCad (PCBNEW 6.0.11+dfsg-1) date 2023-07-14 21:47:45*
%MOMM*%
%LPD*%
G01*
G04 APERTURE LIST*
G04 Aperture macros list*
%AMRoundRect*
0 Rectangle with rounded corners*
0 $1 Rounding radius*
0 $2 $3 $4 $5 $6 $7 $8 $9 X,Y pos of 4 corners*
0 Add a 4 corners polygon primitive as box body*
4,1,4,$2,$3,$4,$5,$6,$7,$8,$9,$2,$3,0*
0 Add four circle primitives for the rounded corners*
1,1,$1+$1,$2,$3*
1,1,$1+$1,$4,$5*
1,1,$1+$1,$6,$7*
1,1,$1+$1,$8,$9*
0 Add four rect primitives between the rounded corners*
20,1,$1+$1,$2,$3,$4,$5,0*
20,1,$1+$1,$4,$5,$6,$7,0*
20,1,$1+$1,$6,$7,$8,$9,0*
20,1,$1+$1,$8,$9,$2,$3,0*%
G04 Aperture macros list end*
%ADD10C,0.300000*%
%ADD11C,0.150000*%
%ADD12RoundRect,0.250001X-1.099999X-1.099999X1.099999X-1.099999X1.099999X1.099999X-1.099999X1.099999X0*%
%ADD13C,2.700000*%
%ADD14R,1.800000X1.800000*%
%ADD15C,1.800000*%
%ADD16C,3.500000*%
%ADD17C,2.000000*%
%ADD18C,1.600000*%
%ADD19O,1.600000X1.600000*%
%ADD20C,3.000000*%
%ADD21R,2.200000X2.200000*%
%ADD22O,2.200000X2.200000*%
G04 APERTURE END LIST*
D10*
X195107142Y-19977857D02*
X194892857Y-20049285D01*
X194821428Y-20120714D01*
X194750000Y-20263571D01*
X194750000Y-20477857D01*
X194821428Y-20620714D01*
X194892857Y-20692142D01*
X195035714Y-20763571D01*
X195607142Y-20763571D01*
X195607142Y-19263571D01*
X195107142Y-19263571D01*
X194964285Y-19335000D01*
X194892857Y-19406428D01*
X194821428Y-19549285D01*
X194821428Y-19692142D01*
X194892857Y-19835000D01*
X194964285Y-19906428D01*
X195107142Y-19977857D01*
X195607142Y-19977857D01*
X194107142Y-19977857D02*
X193607142Y-19977857D01*
X193392857Y-20763571D02*
X194107142Y-20763571D01*
X194107142Y-19263571D01*
X193392857Y-19263571D01*
X192750000Y-20763571D02*
X192750000Y-19263571D01*
X191892857Y-20763571D01*
X191892857Y-19263571D01*
X190321428Y-20620714D02*
X190392857Y-20692142D01*
X190607142Y-20763571D01*
X190750000Y-20763571D01*
X190964285Y-20692142D01*
X191107142Y-20549285D01*
X191178571Y-20406428D01*
X191250000Y-20120714D01*
X191250000Y-19906428D01*
X191178571Y-19620714D01*
X191107142Y-19477857D01*
X190964285Y-19335000D01*
X190750000Y-19263571D01*
X190607142Y-19263571D01*
X190392857Y-19335000D01*
X190321428Y-19406428D01*
X189678571Y-20763571D02*
X189678571Y-19263571D01*
X189678571Y-19977857D02*
X188821428Y-19977857D01*
X188821428Y-20763571D02*
X188821428Y-19263571D01*
X186464285Y-19977857D02*
X186250000Y-20049285D01*
X186178571Y-20120714D01*
X186107142Y-20263571D01*
X186107142Y-20477857D01*
X186178571Y-20620714D01*
X186250000Y-20692142D01*
X186392857Y-20763571D01*
X186964285Y-20763571D01*
X186964285Y-19263571D01*
X186464285Y-19263571D01*
X186321428Y-19335000D01*
X186250000Y-19406428D01*
X186178571Y-19549285D01*
X186178571Y-19692142D01*
X186250000Y-19835000D01*
X186321428Y-19906428D01*
X186464285Y-19977857D01*
X186964285Y-19977857D01*
X184607142Y-20763571D02*
X185107142Y-20049285D01*
X185464285Y-20763571D02*
X185464285Y-19263571D01*
X184892857Y-19263571D01*
X184750000Y-19335000D01*
X184678571Y-19406428D01*
X184607142Y-19549285D01*
X184607142Y-19763571D01*
X184678571Y-19906428D01*
X184750000Y-19977857D01*
X184892857Y-20049285D01*
X185464285Y-20049285D01*
X183964285Y-20763571D02*
X183964285Y-19263571D01*
X183250000Y-20763571D02*
X183250000Y-19263571D01*
X182892857Y-19263571D01*
X182678571Y-19335000D01*
X182535714Y-19477857D01*
X182464285Y-19620714D01*
X182392857Y-19906428D01*
X182392857Y-20120714D01*
X182464285Y-20406428D01*
X182535714Y-20549285D01*
X182678571Y-20692142D01*
X182892857Y-20763571D01*
X183250000Y-20763571D01*
X180964285Y-19335000D02*
X181107142Y-19263571D01*
X181321428Y-19263571D01*
X181535714Y-19335000D01*
X181678571Y-19477857D01*
X181750000Y-19620714D01*
X181821428Y-19906428D01*
X181821428Y-20120714D01*
X181750000Y-20406428D01*
X181678571Y-20549285D01*
X181535714Y-20692142D01*
X181321428Y-20763571D01*
X181178571Y-20763571D01*
X180964285Y-20692142D01*
X180892857Y-20620714D01*
X180892857Y-20120714D01*
X181178571Y-20120714D01*
X180250000Y-19977857D02*
X179750000Y-19977857D01*
X179535714Y-20763571D02*
X180250000Y-20763571D01*
X180250000Y-19263571D01*
X179535714Y-19263571D01*
X176892857Y-20763571D02*
X177392857Y-20049285D01*
X177750000Y-20763571D02*
X177750000Y-19263571D01*
X177178571Y-19263571D01*
X177035714Y-19335000D01*
X176964285Y-19406428D01*
X176892857Y-19549285D01*
X176892857Y-19763571D01*
X176964285Y-19906428D01*
X177035714Y-19977857D01*
X177178571Y-20049285D01*
X177750000Y-20049285D01*
X176250000Y-19977857D02*
X175750000Y-19977857D01*
X175535714Y-20763571D02*
X176250000Y-20763571D01*
X176250000Y-19263571D01*
X175535714Y-19263571D01*
X174035714Y-20620714D02*
X174107142Y-20692142D01*
X174321428Y-20763571D01*
X174464285Y-20763571D01*
X174678571Y-20692142D01*
X174821428Y-20549285D01*
X174892857Y-20406428D01*
X174964285Y-20120714D01*
X174964285Y-19906428D01*
X174892857Y-19620714D01*
X174821428Y-19477857D01*
X174678571Y-19335000D01*
X174464285Y-19263571D01*
X174321428Y-19263571D01*
X174107142Y-19335000D01*
X174035714Y-19406428D01*
X173607142Y-19263571D02*
X172750000Y-19263571D01*
X173178571Y-20763571D02*
X173178571Y-19263571D01*
X172250000Y-20763571D02*
X172250000Y-19263571D01*
X171035714Y-19977857D02*
X171535714Y-19977857D01*
X171535714Y-20763571D02*
X171535714Y-19263571D01*
X170821428Y-19263571D01*
X170250000Y-20763571D02*
X170250000Y-19263571D01*
X169535714Y-19977857D02*
X169035714Y-19977857D01*
X168821428Y-20763571D02*
X169535714Y-20763571D01*
X169535714Y-19263571D01*
X168821428Y-19263571D01*
X167321428Y-20763571D02*
X167821428Y-20049285D01*
X168178571Y-20763571D02*
X168178571Y-19263571D01*
X167607142Y-19263571D01*
X167464285Y-19335000D01*
X167392857Y-19406428D01*
X167321428Y-19549285D01*
X167321428Y-19763571D01*
X167392857Y-19906428D01*
X167464285Y-19977857D01*
X167607142Y-20049285D01*
X168178571Y-20049285D01*
X192214285Y-22392857D02*
X192000000Y-22464285D01*
X191928571Y-22535714D01*
X191857142Y-22678571D01*
X191857142Y-22892857D01*
X191928571Y-23035714D01*
X192000000Y-23107142D01*
X192142857Y-23178571D01*
X192714285Y-23178571D01*
X192714285Y-21678571D01*
X192214285Y-21678571D01*
X192071428Y-21750000D01*
X192000000Y-21821428D01*
X191928571Y-21964285D01*
X191928571Y-22107142D01*
X192000000Y-22250000D01*
X192071428Y-22321428D01*
X192214285Y-22392857D01*
X192714285Y-22392857D01*
X190500000Y-23178571D02*
X191214285Y-23178571D01*
X191214285Y-21678571D01*
X190000000Y-23178571D02*
X190000000Y-21678571D01*
X189285714Y-23178571D02*
X189285714Y-21678571D01*
X188428571Y-23178571D01*
X188428571Y-21678571D01*
X187714285Y-23178571D02*
X187714285Y-21678571D01*
X186857142Y-23178571D02*
X187500000Y-22321428D01*
X186857142Y-21678571D02*
X187714285Y-22535714D01*
X186214285Y-22392857D02*
X185714285Y-22392857D01*
X185500000Y-23178571D02*
X186214285Y-23178571D01*
X186214285Y-21678571D01*
X185500000Y-21678571D01*
X184857142Y-23178571D02*
X184857142Y-21678571D01*
X184000000Y-23178571D01*
X184000000Y-21678571D01*
X182571428Y-23178571D02*
X183285714Y-23178571D01*
X183285714Y-21678571D01*
X182071428Y-23178571D02*
X182071428Y-21678571D01*
X180571428Y-21750000D02*
X180714285Y-21678571D01*
X180928571Y-21678571D01*
X181142857Y-21750000D01*
X181285714Y-21892857D01*
X181357142Y-22035714D01*
X181428571Y-22321428D01*
X181428571Y-22535714D01*
X181357142Y-22821428D01*
X181285714Y-22964285D01*
X181142857Y-23107142D01*
X180928571Y-23178571D01*
X180785714Y-23178571D01*
X180571428Y-23107142D01*
X180500000Y-23035714D01*
X180500000Y-22535714D01*
X180785714Y-22535714D01*
X179857142Y-23178571D02*
X179857142Y-21678571D01*
X179857142Y-22392857D02*
X179000000Y-22392857D01*
X179000000Y-23178571D02*
X179000000Y-21678571D01*
X178500000Y-21678571D02*
X177642857Y-21678571D01*
X178071428Y-23178571D02*
X178071428Y-21678571D01*
X177142857Y-23035714D02*
X177071428Y-23107142D01*
X177142857Y-23178571D01*
X177214285Y-23107142D01*
X177142857Y-23035714D01*
X177142857Y-23178571D01*
X175571428Y-23035714D02*
X175642857Y-23107142D01*
X175857142Y-23178571D01*
X176000000Y-23178571D01*
X176214285Y-23107142D01*
X176357142Y-22964285D01*
X176428571Y-22821428D01*
X176500000Y-22535714D01*
X176500000Y-22321428D01*
X176428571Y-22035714D01*
X176357142Y-21892857D01*
X176214285Y-21750000D01*
X176000000Y-21678571D01*
X175857142Y-21678571D01*
X175642857Y-21750000D01*
X175571428Y-21821428D01*
X174642857Y-21678571D02*
X174357142Y-21678571D01*
X174214285Y-21750000D01*
X174071428Y-21892857D01*
X174000000Y-22178571D01*
X174000000Y-22678571D01*
X174071428Y-22964285D01*
X174214285Y-23107142D01*
X174357142Y-23178571D01*
X174642857Y-23178571D01*
X174785714Y-23107142D01*
X174928571Y-22964285D01*
X175000000Y-22678571D01*
X175000000Y-22178571D01*
X174928571Y-21892857D01*
X174785714Y-21750000D01*
X174642857Y-21678571D01*
X173357142Y-23035714D02*
X173285714Y-23107142D01*
X173357142Y-23178571D01*
X173428571Y-23107142D01*
X173357142Y-23035714D01*
X173357142Y-23178571D01*
X172642857Y-21678571D02*
X172642857Y-22892857D01*
X172571428Y-23035714D01*
X172500000Y-23107142D01*
X172357142Y-23178571D01*
X172071428Y-23178571D01*
X171928571Y-23107142D01*
X171857142Y-23035714D01*
X171785714Y-22892857D01*
X171785714Y-21678571D01*
X171071428Y-23178571D02*
X171071428Y-21678571D01*
X170214285Y-23178571D02*
X170857142Y-22321428D01*
X170214285Y-21678571D02*
X171071428Y-22535714D01*
X191714285Y-24236428D02*
X191642857Y-24165000D01*
X191500000Y-24093571D01*
X191142857Y-24093571D01*
X191000000Y-24165000D01*
X190928571Y-24236428D01*
X190857142Y-24379285D01*
X190857142Y-24522142D01*
X190928571Y-24736428D01*
X191785714Y-25593571D01*
X190857142Y-25593571D01*
X189928571Y-24093571D02*
X189785714Y-24093571D01*
X189642857Y-24165000D01*
X189571428Y-24236428D01*
X189500000Y-24379285D01*
X189428571Y-24665000D01*
X189428571Y-25022142D01*
X189500000Y-25307857D01*
X189571428Y-25450714D01*
X189642857Y-25522142D01*
X189785714Y-25593571D01*
X189928571Y-25593571D01*
X190071428Y-25522142D01*
X190142857Y-25450714D01*
X190214285Y-25307857D01*
X190285714Y-25022142D01*
X190285714Y-24665000D01*
X190214285Y-24379285D01*
X190142857Y-24236428D01*
X190071428Y-24165000D01*
X189928571Y-24093571D01*
X188857142Y-24236428D02*
X188785714Y-24165000D01*
X188642857Y-24093571D01*
X188285714Y-24093571D01*
X188142857Y-24165000D01*
X188071428Y-24236428D01*
X188000000Y-24379285D01*
X188000000Y-24522142D01*
X188071428Y-24736428D01*
X188928571Y-25593571D01*
X188000000Y-25593571D01*
X187500000Y-24093571D02*
X186571428Y-24093571D01*
X187071428Y-24665000D01*
X186857142Y-24665000D01*
X186714285Y-24736428D01*
X186642857Y-24807857D01*
X186571428Y-24950714D01*
X186571428Y-25307857D01*
X186642857Y-25450714D01*
X186714285Y-25522142D01*
X186857142Y-25593571D01*
X187285714Y-25593571D01*
X187428571Y-25522142D01*
X187500000Y-25450714D01*
X185928571Y-25022142D02*
X184785714Y-25022142D01*
X183785714Y-24093571D02*
X183642857Y-24093571D01*
X183500000Y-24165000D01*
X183428571Y-24236428D01*
X183357142Y-24379285D01*
X183285714Y-24665000D01*
X183285714Y-25022142D01*
X183357142Y-25307857D01*
X183428571Y-25450714D01*
X183500000Y-25522142D01*
X183642857Y-25593571D01*
X183785714Y-25593571D01*
X183928571Y-25522142D01*
X184000000Y-25450714D01*
X184071428Y-25307857D01*
X184142857Y-25022142D01*
X184142857Y-24665000D01*
X184071428Y-24379285D01*
X184000000Y-24236428D01*
X183928571Y-24165000D01*
X183785714Y-24093571D01*
X182785714Y-24093571D02*
X181785714Y-24093571D01*
X182428571Y-25593571D01*
X181214285Y-25022142D02*
X180071428Y-25022142D01*
X178571428Y-25593571D02*
X179428571Y-25593571D01*
X179000000Y-25593571D02*
X179000000Y-24093571D01*
X179142857Y-24307857D01*
X179285714Y-24450714D01*
X179428571Y-24522142D01*
X178000000Y-24236428D02*
X177928571Y-24165000D01*
X177785714Y-24093571D01*
X177428571Y-24093571D01*
X177285714Y-24165000D01*
X177214285Y-24236428D01*
X177142857Y-24379285D01*
X177142857Y-24522142D01*
X177214285Y-24736428D01*
X178071428Y-25593571D01*
X177142857Y-25593571D01*
X175500000Y-24593571D02*
X175142857Y-25593571D01*
X174785714Y-24593571D01*
X173428571Y-25593571D02*
X174285714Y-25593571D01*
X173857142Y-25593571D02*
X173857142Y-24093571D01*
X174000000Y-24307857D01*
X174142857Y-24450714D01*
X174285714Y-24522142D01*
X172785714Y-25450714D02*
X172714285Y-25522142D01*
X172785714Y-25593571D01*
X172857142Y-25522142D01*
X172785714Y-25450714D01*
X172785714Y-25593571D01*
X171785714Y-24093571D02*
X171642857Y-24093571D01*
X171500000Y-24165000D01*
X171428571Y-24236428D01*
X171357142Y-24379285D01*
X171285714Y-24665000D01*
X171285714Y-25022142D01*
X171357142Y-25307857D01*
X171428571Y-25450714D01*
X171500000Y-25522142D01*
X171642857Y-25593571D01*
X171785714Y-25593571D01*
X171928571Y-25522142D01*
X172000000Y-25450714D01*
X172071428Y-25307857D01*
X172142857Y-25022142D01*
X172142857Y-24665000D01*
X172071428Y-24379285D01*
X172000000Y-24236428D01*
X171928571Y-24165000D01*
X171785714Y-24093571D01*
%LPC*%
D11*
X197000000Y-14000000D02*
X202000000Y-14000000D01*
X202000000Y-14000000D02*
X202000000Y-128000000D01*
X202000000Y-128000000D02*
X197000000Y-128000000D01*
X197000000Y-128000000D02*
X197000000Y-14000000D01*
G36*
X197000000Y-14000000D02*
G01*
X202000000Y-14000000D01*
X202000000Y-128000000D01*
X197000000Y-128000000D01*
X197000000Y-14000000D01*
G37*
X132000000Y-14000000D02*
X137000000Y-14000000D01*
X137000000Y-14000000D02*
X137000000Y-128000000D01*
X137000000Y-128000000D02*
X132000000Y-128000000D01*
X132000000Y-128000000D02*
X132000000Y-14000000D01*
G36*
X132000000Y-14000000D02*
G01*
X137000000Y-14000000D01*
X137000000Y-128000000D01*
X132000000Y-128000000D01*
X132000000Y-14000000D01*
G37*
D12*
X189342500Y-106000000D03*
D13*
X193302500Y-106000000D03*
D12*
X172742500Y-105950000D03*
D13*
X176702500Y-105950000D03*
D12*
X185142500Y-39250000D03*
D13*
X189102500Y-39250000D03*
D12*
X144942500Y-39250000D03*
D13*
X148902500Y-39250000D03*
D12*
X145242500Y-105950000D03*
D13*
X149202500Y-105950000D03*
D14*
X156000000Y-123200000D03*
D15*
X158540000Y-123200000D03*
D16*
X164500000Y-54500000D03*
D17*
X152000000Y-70000000D03*
X162000000Y-70000000D03*
X169500000Y-70000000D03*
X177000000Y-70000000D03*
D18*
X148920000Y-114000000D03*
D19*
X159080000Y-114000000D03*
D13*
X147000000Y-87500000D03*
D20*
X147000000Y-98750000D03*
X147000000Y-76250000D03*
D21*
X162480000Y-119000000D03*
D22*
X152320000Y-119000000D03*
M02*
