G04 #@! TF.GenerationSoftware,KiCad,Pcbnew,6.0.11+dfsg-1*
G04 #@! TF.CreationDate,2023-07-14T21:47:45+01:00*
G04 #@! TF.ProjectId,bridge-rectifier,62726964-6765-42d7-9265-637469666965,rev?*
G04 #@! TF.SameCoordinates,Original*
G04 #@! TF.FileFunction,Legend,Top*
G04 #@! TF.FilePolarity,Positive*
%FSLAX46Y46*%
G04 Gerber Fmt 4.6, Leading zero omitted, Abs format (unit mm)*
G04 Created by KiCad (PCBNEW 6.0.11+dfsg-1) date 2023-07-14 21:47:45*
%MOMM*%
%LPD*%
G01*
G04 APERTURE LIST*
G04 Aperture macros list*
%AMRoundRect*
0 Rectangle with rounded corners*
0 $1 Rounding radius*
0 $2 $3 $4 $5 $6 $7 $8 $9 X,Y pos of 4 corners*
0 Add a 4 corners polygon primitive as box body*
4,1,4,$2,$3,$4,$5,$6,$7,$8,$9,$2,$3,0*
0 Add four circle primitives for the rounded corners*
1,1,$1+$1,$2,$3*
1,1,$1+$1,$4,$5*
1,1,$1+$1,$6,$7*
1,1,$1+$1,$8,$9*
0 Add four rect primitives between the rounded corners*
20,1,$1+$1,$2,$3,$4,$5,0*
20,1,$1+$1,$4,$5,$6,$7,0*
20,1,$1+$1,$6,$7,$8,$9,0*
20,1,$1+$1,$8,$9,$2,$3,0*%
%AMOutline5P*
0 Free polygon, 5 corners , with rotation*
0 The origin of the aperture is its center*
0 number of corners: always 5*
0 $1 to $10 corner X, Y*
0 $11 Rotation angle, in degrees counterclockwise*
0 create outline with 5 corners*
4,1,5,$1,$2,$3,$4,$5,$6,$7,$8,$9,$10,$1,$2,$11*%
%AMOutline6P*
0 Free polygon, 6 corners , with rotation*
0 The origin of the aperture is its center*
0 number of corners: always 6*
0 $1 to $12 corner X, Y*
0 $13 Rotation angle, in degrees counterclockwise*
0 create outline with 6 corners*
4,1,6,$1,$2,$3,$4,$5,$6,$7,$8,$9,$10,$11,$12,$1,$2,$13*%
%AMOutline7P*
0 Free polygon, 7 corners , with rotation*
0 The origin of the aperture is its center*
0 number of corners: always 7*
0 $1 to $14 corner X, Y*
0 $15 Rotation angle, in degrees counterclockwise*
0 create outline with 7 corners*
4,1,7,$1,$2,$3,$4,$5,$6,$7,$8,$9,$10,$11,$12,$13,$14,$1,$2,$15*%
%AMOutline8P*
0 Free polygon, 8 corners , with rotation*
0 The origin of the aperture is its center*
0 number of corners: always 8*
0 $1 to $16 corner X, Y*
0 $17 Rotation angle, in degrees counterclockwise*
0 create outline with 8 corners*
4,1,8,$1,$2,$3,$4,$5,$6,$7,$8,$9,$10,$11,$12,$13,$14,$15,$16,$1,$2,$17*%
G04 Aperture macros list end*
%ADD10C,0.300000*%
%ADD11C,0.150000*%
%ADD12C,0.200000*%
%ADD13RoundRect,0.250001X-1.099999X-1.099999X1.099999X-1.099999X1.099999X1.099999X-1.099999X1.099999X0*%
%ADD14C,2.700000*%
%ADD15R,1.800000X1.800000*%
%ADD16C,1.800000*%
%ADD17C,3.500000*%
%ADD18C,2.000000*%
%ADD19Outline7P,-13.000000X4.800000X-9.800000X8.000000X9.800000X8.000000X13.000000X4.800000X13.000000X-4.800000X9.800000X-8.000000X-13.000000X-8.000000X0.000000*%
%ADD20C,1.600000*%
%ADD21O,1.600000X1.600000*%
%ADD22C,3.000000*%
%ADD23R,2.200000X2.200000*%
%ADD24O,2.200000X2.200000*%
G04 APERTURE END LIST*
D10*
X162464285Y-73678571D02*
X161750000Y-73678571D01*
X161750000Y-72178571D01*
X151428571Y-73107142D02*
X152571428Y-73107142D01*
X152000000Y-73678571D02*
X152000000Y-72535714D01*
X176428571Y-73107142D02*
X177571428Y-73107142D01*
D11*
X165357142Y-124647380D02*
X165357142Y-123647380D01*
X165357142Y-124123571D02*
X165928571Y-124123571D01*
X165928571Y-124647380D02*
X165928571Y-123647380D01*
X166928571Y-124647380D02*
X166357142Y-124647380D01*
X166642857Y-124647380D02*
X166642857Y-123647380D01*
X166547619Y-123790238D01*
X166452380Y-123885476D01*
X166357142Y-123933095D01*
X167547619Y-123647380D02*
X167642857Y-123647380D01*
X167738095Y-123695000D01*
X167785714Y-123742619D01*
X167833333Y-123837857D01*
X167880952Y-124028333D01*
X167880952Y-124266428D01*
X167833333Y-124456904D01*
X167785714Y-124552142D01*
X167738095Y-124599761D01*
X167642857Y-124647380D01*
X167547619Y-124647380D01*
X167452380Y-124599761D01*
X167404761Y-124552142D01*
X167357142Y-124456904D01*
X167309523Y-124266428D01*
X167309523Y-124028333D01*
X167357142Y-123837857D01*
X167404761Y-123742619D01*
X167452380Y-123695000D01*
X167547619Y-123647380D01*
X168500000Y-123647380D02*
X168595238Y-123647380D01*
X168690476Y-123695000D01*
X168738095Y-123742619D01*
X168785714Y-123837857D01*
X168833333Y-124028333D01*
X168833333Y-124266428D01*
X168785714Y-124456904D01*
X168738095Y-124552142D01*
X168690476Y-124599761D01*
X168595238Y-124647380D01*
X168500000Y-124647380D01*
X168404761Y-124599761D01*
X168357142Y-124552142D01*
X168309523Y-124456904D01*
X168261904Y-124266428D01*
X168261904Y-124028333D01*
X168309523Y-123837857D01*
X168357142Y-123742619D01*
X168404761Y-123695000D01*
X168500000Y-123647380D01*
X169833333Y-124552142D02*
X169785714Y-124599761D01*
X169642857Y-124647380D01*
X169547619Y-124647380D01*
X169404761Y-124599761D01*
X169309523Y-124504523D01*
X169261904Y-124409285D01*
X169214285Y-124218809D01*
X169214285Y-124075952D01*
X169261904Y-123885476D01*
X169309523Y-123790238D01*
X169404761Y-123695000D01*
X169547619Y-123647380D01*
X169642857Y-123647380D01*
X169785714Y-123695000D01*
X169833333Y-123742619D01*
X170261904Y-124647380D02*
X170261904Y-123647380D01*
X170261904Y-124123571D02*
X170833333Y-124123571D01*
X170833333Y-124647380D02*
X170833333Y-123647380D01*
X171309523Y-124647380D02*
X171309523Y-123647380D01*
X171547619Y-123647380D01*
X171690476Y-123695000D01*
X171785714Y-123790238D01*
X171833333Y-123885476D01*
X171880952Y-124075952D01*
X171880952Y-124218809D01*
X171833333Y-124409285D01*
X171785714Y-124504523D01*
X171690476Y-124599761D01*
X171547619Y-124647380D01*
X171309523Y-124647380D01*
X172785714Y-124647380D02*
X172309523Y-124647380D01*
X172309523Y-123647380D01*
X164500000Y-126257380D02*
X164166666Y-125781190D01*
X163928571Y-126257380D02*
X163928571Y-125257380D01*
X164309523Y-125257380D01*
X164404761Y-125305000D01*
X164452380Y-125352619D01*
X164500000Y-125447857D01*
X164500000Y-125590714D01*
X164452380Y-125685952D01*
X164404761Y-125733571D01*
X164309523Y-125781190D01*
X163928571Y-125781190D01*
X164880952Y-126209761D02*
X165023809Y-126257380D01*
X165261904Y-126257380D01*
X165357142Y-126209761D01*
X165404761Y-126162142D01*
X165452380Y-126066904D01*
X165452380Y-125971666D01*
X165404761Y-125876428D01*
X165357142Y-125828809D01*
X165261904Y-125781190D01*
X165071428Y-125733571D01*
X164976190Y-125685952D01*
X164928571Y-125638333D01*
X164880952Y-125543095D01*
X164880952Y-125447857D01*
X164928571Y-125352619D01*
X164976190Y-125305000D01*
X165071428Y-125257380D01*
X165309523Y-125257380D01*
X165452380Y-125305000D01*
X166547619Y-125257380D02*
X167214285Y-125257380D01*
X166785714Y-126257380D01*
X168071428Y-125257380D02*
X167595238Y-125257380D01*
X167547619Y-125733571D01*
X167595238Y-125685952D01*
X167690476Y-125638333D01*
X167928571Y-125638333D01*
X168023809Y-125685952D01*
X168071428Y-125733571D01*
X168119047Y-125828809D01*
X168119047Y-126066904D01*
X168071428Y-126162142D01*
X168023809Y-126209761D01*
X167928571Y-126257380D01*
X167690476Y-126257380D01*
X167595238Y-126209761D01*
X167547619Y-126162142D01*
X168500000Y-125352619D02*
X168547619Y-125305000D01*
X168642857Y-125257380D01*
X168880952Y-125257380D01*
X168976190Y-125305000D01*
X169023809Y-125352619D01*
X169071428Y-125447857D01*
X169071428Y-125543095D01*
X169023809Y-125685952D01*
X168452380Y-126257380D01*
X169071428Y-126257380D01*
X169500000Y-125876428D02*
X170261904Y-125876428D01*
X170785714Y-126257380D02*
X170976190Y-126257380D01*
X171071428Y-126209761D01*
X171119047Y-126162142D01*
X171214285Y-126019285D01*
X171261904Y-125828809D01*
X171261904Y-125447857D01*
X171214285Y-125352619D01*
X171166666Y-125305000D01*
X171071428Y-125257380D01*
X170880952Y-125257380D01*
X170785714Y-125305000D01*
X170738095Y-125352619D01*
X170690476Y-125447857D01*
X170690476Y-125685952D01*
X170738095Y-125781190D01*
X170785714Y-125828809D01*
X170880952Y-125876428D01*
X171071428Y-125876428D01*
X171166666Y-125828809D01*
X171214285Y-125781190D01*
X171261904Y-125685952D01*
X171880952Y-125257380D02*
X171976190Y-125257380D01*
X172071428Y-125305000D01*
X172119047Y-125352619D01*
X172166666Y-125447857D01*
X172214285Y-125638333D01*
X172214285Y-125876428D01*
X172166666Y-126066904D01*
X172119047Y-126162142D01*
X172071428Y-126209761D01*
X171976190Y-126257380D01*
X171880952Y-126257380D01*
X171785714Y-126209761D01*
X171738095Y-126162142D01*
X171690476Y-126066904D01*
X171642857Y-125876428D01*
X171642857Y-125638333D01*
X171690476Y-125447857D01*
X171738095Y-125352619D01*
X171785714Y-125305000D01*
X171880952Y-125257380D01*
X172785714Y-125685952D02*
X172690476Y-125638333D01*
X172642857Y-125590714D01*
X172595238Y-125495476D01*
X172595238Y-125447857D01*
X172642857Y-125352619D01*
X172690476Y-125305000D01*
X172785714Y-125257380D01*
X172976190Y-125257380D01*
X173071428Y-125305000D01*
X173119047Y-125352619D01*
X173166666Y-125447857D01*
X173166666Y-125495476D01*
X173119047Y-125590714D01*
X173071428Y-125638333D01*
X172976190Y-125685952D01*
X172785714Y-125685952D01*
X172690476Y-125733571D01*
X172642857Y-125781190D01*
X172595238Y-125876428D01*
X172595238Y-126066904D01*
X172642857Y-126162142D01*
X172690476Y-126209761D01*
X172785714Y-126257380D01*
X172976190Y-126257380D01*
X173071428Y-126209761D01*
X173119047Y-126162142D01*
X173166666Y-126066904D01*
X173166666Y-125876428D01*
X173119047Y-125781190D01*
X173071428Y-125733571D01*
X172976190Y-125685952D01*
X174023809Y-125590714D02*
X174023809Y-126257380D01*
X173785714Y-125209761D02*
X173547619Y-125924047D01*
X174166666Y-125924047D01*
D10*
X185107142Y-33107142D02*
X186250000Y-33107142D01*
X186750000Y-32178571D02*
X187250000Y-33678571D01*
X187750000Y-32178571D01*
X188250000Y-32892857D02*
X188750000Y-32892857D01*
X188964285Y-33678571D02*
X188250000Y-33678571D01*
X188250000Y-32178571D01*
X188964285Y-32178571D01*
X188228571Y-112792857D02*
X188728571Y-112792857D01*
X188942857Y-113578571D02*
X188228571Y-113578571D01*
X188228571Y-112078571D01*
X188942857Y-112078571D01*
X189514285Y-113150000D02*
X190228571Y-113150000D01*
X189371428Y-113578571D02*
X189871428Y-112078571D01*
X190371428Y-113578571D01*
X191728571Y-113578571D02*
X191228571Y-112864285D01*
X190871428Y-113578571D02*
X190871428Y-112078571D01*
X191442857Y-112078571D01*
X191585714Y-112150000D01*
X191657142Y-112221428D01*
X191728571Y-112364285D01*
X191728571Y-112578571D01*
X191657142Y-112721428D01*
X191585714Y-112792857D01*
X191442857Y-112864285D01*
X190871428Y-112864285D01*
X192157142Y-112078571D02*
X193014285Y-112078571D01*
X192585714Y-113578571D02*
X192585714Y-112078571D01*
X193514285Y-113578571D02*
X193514285Y-112078571D01*
X193514285Y-112792857D02*
X194371428Y-112792857D01*
X194371428Y-113578571D02*
X194371428Y-112078571D01*
X142214285Y-125392857D02*
X141714285Y-125392857D01*
X141714285Y-126178571D02*
X141714285Y-124678571D01*
X142428571Y-124678571D01*
X143000000Y-124678571D02*
X143000000Y-125892857D01*
X143071428Y-126035714D01*
X143142857Y-126107142D01*
X143285714Y-126178571D01*
X143571428Y-126178571D01*
X143714285Y-126107142D01*
X143785714Y-126035714D01*
X143857142Y-125892857D01*
X143857142Y-124678571D01*
X144500000Y-126107142D02*
X144714285Y-126178571D01*
X145071428Y-126178571D01*
X145214285Y-126107142D01*
X145285714Y-126035714D01*
X145357142Y-125892857D01*
X145357142Y-125750000D01*
X145285714Y-125607142D01*
X145214285Y-125535714D01*
X145071428Y-125464285D01*
X144785714Y-125392857D01*
X144642857Y-125321428D01*
X144571428Y-125250000D01*
X144500000Y-125107142D01*
X144500000Y-124964285D01*
X144571428Y-124821428D01*
X144642857Y-124750000D01*
X144785714Y-124678571D01*
X145142857Y-124678571D01*
X145357142Y-124750000D01*
X146000000Y-125392857D02*
X146500000Y-125392857D01*
X146714285Y-126178571D02*
X146000000Y-126178571D01*
X146000000Y-124678571D01*
X146714285Y-124678571D01*
X149000000Y-125392857D02*
X148500000Y-125392857D01*
X148500000Y-126178571D02*
X148500000Y-124678571D01*
X149214285Y-124678571D01*
X149714285Y-125750000D02*
X150428571Y-125750000D01*
X149571428Y-126178571D02*
X150071428Y-124678571D01*
X150571428Y-126178571D01*
X151071428Y-126178571D02*
X151071428Y-124678571D01*
X152500000Y-126178571D02*
X151785714Y-126178571D01*
X151785714Y-124678571D01*
D11*
X153319047Y-123271428D02*
X154080952Y-123271428D01*
D10*
X169071428Y-73678571D02*
X169071428Y-72178571D01*
X169928571Y-73678571D01*
X169928571Y-72178571D01*
X179857142Y-19178571D02*
X179142857Y-19178571D01*
X179071428Y-19892857D01*
X179142857Y-19821428D01*
X179285714Y-19750000D01*
X179642857Y-19750000D01*
X179785714Y-19821428D01*
X179857142Y-19892857D01*
X179928571Y-20035714D01*
X179928571Y-20392857D01*
X179857142Y-20535714D01*
X179785714Y-20607142D01*
X179642857Y-20678571D01*
X179285714Y-20678571D01*
X179142857Y-20607142D01*
X179071428Y-20535714D01*
X180500000Y-20250000D02*
X181214285Y-20250000D01*
X180357142Y-20678571D02*
X180857142Y-19178571D01*
X181357142Y-20678571D01*
X183785714Y-20678571D02*
X182928571Y-20678571D01*
X183357142Y-20678571D02*
X183357142Y-19178571D01*
X183214285Y-19392857D01*
X183071428Y-19535714D01*
X182928571Y-19607142D01*
X184714285Y-19178571D02*
X184857142Y-19178571D01*
X185000000Y-19250000D01*
X185071428Y-19321428D01*
X185142857Y-19464285D01*
X185214285Y-19750000D01*
X185214285Y-20107142D01*
X185142857Y-20392857D01*
X185071428Y-20535714D01*
X185000000Y-20607142D01*
X184857142Y-20678571D01*
X184714285Y-20678571D01*
X184571428Y-20607142D01*
X184500000Y-20535714D01*
X184428571Y-20392857D01*
X184357142Y-20107142D01*
X184357142Y-19750000D01*
X184428571Y-19464285D01*
X184500000Y-19321428D01*
X184571428Y-19250000D01*
X184714285Y-19178571D01*
X186142857Y-19178571D02*
X186285714Y-19178571D01*
X186428571Y-19250000D01*
X186500000Y-19321428D01*
X186571428Y-19464285D01*
X186642857Y-19750000D01*
X186642857Y-20107142D01*
X186571428Y-20392857D01*
X186500000Y-20535714D01*
X186428571Y-20607142D01*
X186285714Y-20678571D01*
X186142857Y-20678571D01*
X186000000Y-20607142D01*
X185928571Y-20535714D01*
X185857142Y-20392857D01*
X185785714Y-20107142D01*
X185785714Y-19750000D01*
X185857142Y-19464285D01*
X185928571Y-19321428D01*
X186000000Y-19250000D01*
X186142857Y-19178571D01*
X187571428Y-19178571D02*
X187714285Y-19178571D01*
X187857142Y-19250000D01*
X187928571Y-19321428D01*
X188000000Y-19464285D01*
X188071428Y-19750000D01*
X188071428Y-20107142D01*
X188000000Y-20392857D01*
X187928571Y-20535714D01*
X187857142Y-20607142D01*
X187714285Y-20678571D01*
X187571428Y-20678571D01*
X187428571Y-20607142D01*
X187357142Y-20535714D01*
X187285714Y-20392857D01*
X187214285Y-20107142D01*
X187214285Y-19750000D01*
X187285714Y-19464285D01*
X187357142Y-19321428D01*
X187428571Y-19250000D01*
X187571428Y-19178571D01*
X188500000Y-19178571D02*
X189000000Y-20678571D01*
X189500000Y-19178571D01*
X191142857Y-20678571D02*
X191142857Y-19178571D01*
X191642857Y-20250000D01*
X192142857Y-19178571D01*
X192142857Y-20678571D01*
X192785714Y-20250000D02*
X193500000Y-20250000D01*
X192642857Y-20678571D02*
X193142857Y-19178571D01*
X193642857Y-20678571D01*
X194000000Y-19178571D02*
X195000000Y-20678571D01*
X195000000Y-19178571D02*
X194000000Y-20678571D01*
D11*
X139952380Y-97214285D02*
X139952380Y-97119047D01*
X140000000Y-97023809D01*
X140047619Y-96976190D01*
X140142857Y-96928571D01*
X140333333Y-96880952D01*
X140571428Y-96880952D01*
X140761904Y-96928571D01*
X140857142Y-96976190D01*
X140904761Y-97023809D01*
X140952380Y-97119047D01*
X140952380Y-97214285D01*
X140904761Y-97309523D01*
X140857142Y-97357142D01*
X140761904Y-97404761D01*
X140571428Y-97452380D01*
X140333333Y-97452380D01*
X140142857Y-97404761D01*
X140047619Y-97357142D01*
X140000000Y-97309523D01*
X139952380Y-97214285D01*
X139952380Y-96261904D02*
X139952380Y-96166666D01*
X140000000Y-96071428D01*
X140047619Y-96023809D01*
X140142857Y-95976190D01*
X140333333Y-95928571D01*
X140571428Y-95928571D01*
X140761904Y-95976190D01*
X140857142Y-96023809D01*
X140904761Y-96071428D01*
X140952380Y-96166666D01*
X140952380Y-96261904D01*
X140904761Y-96357142D01*
X140857142Y-96404761D01*
X140761904Y-96452380D01*
X140571428Y-96500000D01*
X140333333Y-96500000D01*
X140142857Y-96452380D01*
X140047619Y-96404761D01*
X140000000Y-96357142D01*
X139952380Y-96261904D01*
X139952380Y-95595238D02*
X139952380Y-94976190D01*
X140333333Y-95309523D01*
X140333333Y-95166666D01*
X140380952Y-95071428D01*
X140428571Y-95023809D01*
X140523809Y-94976190D01*
X140761904Y-94976190D01*
X140857142Y-95023809D01*
X140904761Y-95071428D01*
X140952380Y-95166666D01*
X140952380Y-95452380D01*
X140904761Y-95547619D01*
X140857142Y-95595238D01*
X140952380Y-94023809D02*
X140952380Y-94595238D01*
X140952380Y-94309523D02*
X139952380Y-94309523D01*
X140095238Y-94404761D01*
X140190476Y-94500000D01*
X140238095Y-94595238D01*
X140857142Y-93595238D02*
X140904761Y-93547619D01*
X140952380Y-93595238D01*
X140904761Y-93642857D01*
X140857142Y-93595238D01*
X140952380Y-93595238D01*
X140380952Y-92976190D02*
X140333333Y-93071428D01*
X140285714Y-93119047D01*
X140190476Y-93166666D01*
X140142857Y-93166666D01*
X140047619Y-93119047D01*
X140000000Y-93071428D01*
X139952380Y-92976190D01*
X139952380Y-92785714D01*
X140000000Y-92690476D01*
X140047619Y-92642857D01*
X140142857Y-92595238D01*
X140190476Y-92595238D01*
X140285714Y-92642857D01*
X140333333Y-92690476D01*
X140380952Y-92785714D01*
X140380952Y-92976190D01*
X140428571Y-93071428D01*
X140476190Y-93119047D01*
X140571428Y-93166666D01*
X140761904Y-93166666D01*
X140857142Y-93119047D01*
X140904761Y-93071428D01*
X140952380Y-92976190D01*
X140952380Y-92785714D01*
X140904761Y-92690476D01*
X140857142Y-92642857D01*
X140761904Y-92595238D01*
X140571428Y-92595238D01*
X140476190Y-92642857D01*
X140428571Y-92690476D01*
X140380952Y-92785714D01*
X140047619Y-92214285D02*
X140000000Y-92166666D01*
X139952380Y-92071428D01*
X139952380Y-91833333D01*
X140000000Y-91738095D01*
X140047619Y-91690476D01*
X140142857Y-91642857D01*
X140238095Y-91642857D01*
X140380952Y-91690476D01*
X140952380Y-92261904D01*
X140952380Y-91642857D01*
X139952380Y-91023809D02*
X139952380Y-90928571D01*
X140000000Y-90833333D01*
X140047619Y-90785714D01*
X140142857Y-90738095D01*
X140333333Y-90690476D01*
X140571428Y-90690476D01*
X140761904Y-90738095D01*
X140857142Y-90785714D01*
X140904761Y-90833333D01*
X140952380Y-90928571D01*
X140952380Y-91023809D01*
X140904761Y-91119047D01*
X140857142Y-91166666D01*
X140761904Y-91214285D01*
X140571428Y-91261904D01*
X140333333Y-91261904D01*
X140142857Y-91214285D01*
X140047619Y-91166666D01*
X140000000Y-91119047D01*
X139952380Y-91023809D01*
X140952380Y-89738095D02*
X140952380Y-90309523D01*
X140952380Y-90023809D02*
X139952380Y-90023809D01*
X140095238Y-90119047D01*
X140190476Y-90214285D01*
X140238095Y-90309523D01*
X139904761Y-87833333D02*
X141190476Y-88690476D01*
X140952380Y-86166666D02*
X140476190Y-86500000D01*
X140952380Y-86738095D02*
X139952380Y-86738095D01*
X139952380Y-86357142D01*
X140000000Y-86261904D01*
X140047619Y-86214285D01*
X140142857Y-86166666D01*
X140285714Y-86166666D01*
X140380952Y-86214285D01*
X140428571Y-86261904D01*
X140476190Y-86357142D01*
X140476190Y-86738095D01*
X140904761Y-85785714D02*
X140952380Y-85642857D01*
X140952380Y-85404761D01*
X140904761Y-85309523D01*
X140857142Y-85261904D01*
X140761904Y-85214285D01*
X140666666Y-85214285D01*
X140571428Y-85261904D01*
X140523809Y-85309523D01*
X140476190Y-85404761D01*
X140428571Y-85595238D01*
X140380952Y-85690476D01*
X140333333Y-85738095D01*
X140238095Y-85785714D01*
X140142857Y-85785714D01*
X140047619Y-85738095D01*
X140000000Y-85690476D01*
X139952380Y-85595238D01*
X139952380Y-85357142D01*
X140000000Y-85214285D01*
X140952380Y-83500000D02*
X140952380Y-84071428D01*
X140952380Y-83785714D02*
X139952380Y-83785714D01*
X140095238Y-83880952D01*
X140190476Y-83976190D01*
X140238095Y-84071428D01*
X139952380Y-83166666D02*
X139952380Y-82500000D01*
X140952380Y-82928571D01*
X139952380Y-81690476D02*
X139952380Y-81880952D01*
X140000000Y-81976190D01*
X140047619Y-82023809D01*
X140190476Y-82119047D01*
X140380952Y-82166666D01*
X140761904Y-82166666D01*
X140857142Y-82119047D01*
X140904761Y-82071428D01*
X140952380Y-81976190D01*
X140952380Y-81785714D01*
X140904761Y-81690476D01*
X140857142Y-81642857D01*
X140761904Y-81595238D01*
X140523809Y-81595238D01*
X140428571Y-81642857D01*
X140380952Y-81690476D01*
X140333333Y-81785714D01*
X140333333Y-81976190D01*
X140380952Y-82071428D01*
X140428571Y-82119047D01*
X140523809Y-82166666D01*
X140571428Y-81166666D02*
X140571428Y-80404761D01*
X140952380Y-79880952D02*
X140952380Y-79690476D01*
X140904761Y-79595238D01*
X140857142Y-79547619D01*
X140714285Y-79452380D01*
X140523809Y-79404761D01*
X140142857Y-79404761D01*
X140047619Y-79452380D01*
X140000000Y-79500000D01*
X139952380Y-79595238D01*
X139952380Y-79785714D01*
X140000000Y-79880952D01*
X140047619Y-79928571D01*
X140142857Y-79976190D01*
X140380952Y-79976190D01*
X140476190Y-79928571D01*
X140523809Y-79880952D01*
X140571428Y-79785714D01*
X140571428Y-79595238D01*
X140523809Y-79500000D01*
X140476190Y-79452380D01*
X140380952Y-79404761D01*
X139952380Y-78785714D02*
X139952380Y-78690476D01*
X140000000Y-78595238D01*
X140047619Y-78547619D01*
X140142857Y-78500000D01*
X140333333Y-78452380D01*
X140571428Y-78452380D01*
X140761904Y-78500000D01*
X140857142Y-78547619D01*
X140904761Y-78595238D01*
X140952380Y-78690476D01*
X140952380Y-78785714D01*
X140904761Y-78880952D01*
X140857142Y-78928571D01*
X140761904Y-78976190D01*
X140571428Y-79023809D01*
X140333333Y-79023809D01*
X140142857Y-78976190D01*
X140047619Y-78928571D01*
X140000000Y-78880952D01*
X139952380Y-78785714D01*
X140285714Y-77595238D02*
X140952380Y-77595238D01*
X139904761Y-77833333D02*
X140619047Y-78071428D01*
X140619047Y-77452380D01*
X139952380Y-77166666D02*
X139952380Y-76500000D01*
X140952380Y-76928571D01*
D10*
X144907142Y-33107142D02*
X146050000Y-33107142D01*
X145478571Y-33678571D02*
X145478571Y-32535714D01*
X146550000Y-32178571D02*
X147050000Y-33678571D01*
X147550000Y-32178571D01*
X148050000Y-32892857D02*
X148550000Y-32892857D01*
X148764285Y-33678571D02*
X148050000Y-33678571D01*
X148050000Y-32178571D01*
X148764285Y-32178571D01*
X143285714Y-113578571D02*
X142571428Y-113578571D01*
X142571428Y-112078571D01*
X143785714Y-113578571D02*
X143785714Y-112078571D01*
X144285714Y-112078571D02*
X144785714Y-113578571D01*
X145285714Y-112078571D01*
X145785714Y-112792857D02*
X146285714Y-112792857D01*
X146500000Y-113578571D02*
X145785714Y-113578571D01*
X145785714Y-112078571D01*
X146500000Y-112078571D01*
X170235714Y-113578571D02*
X170235714Y-112078571D01*
X171092857Y-113578571D01*
X171092857Y-112078571D01*
X171807142Y-112792857D02*
X172307142Y-112792857D01*
X172521428Y-113578571D02*
X171807142Y-113578571D01*
X171807142Y-112078571D01*
X172521428Y-112078571D01*
X173164285Y-112078571D02*
X173164285Y-113292857D01*
X173235714Y-113435714D01*
X173307142Y-113507142D01*
X173450000Y-113578571D01*
X173735714Y-113578571D01*
X173878571Y-113507142D01*
X173950000Y-113435714D01*
X174021428Y-113292857D01*
X174021428Y-112078571D01*
X174521428Y-112078571D02*
X175378571Y-112078571D01*
X174950000Y-113578571D02*
X174950000Y-112078571D01*
X176735714Y-113578571D02*
X176235714Y-112864285D01*
X175878571Y-113578571D02*
X175878571Y-112078571D01*
X176450000Y-112078571D01*
X176592857Y-112150000D01*
X176664285Y-112221428D01*
X176735714Y-112364285D01*
X176735714Y-112578571D01*
X176664285Y-112721428D01*
X176592857Y-112792857D01*
X176450000Y-112864285D01*
X175878571Y-112864285D01*
X177307142Y-113150000D02*
X178021428Y-113150000D01*
X177164285Y-113578571D02*
X177664285Y-112078571D01*
X178164285Y-113578571D01*
X179378571Y-113578571D02*
X178664285Y-113578571D01*
X178664285Y-112078571D01*
D11*
X160419047Y-123271428D02*
X161180952Y-123271428D01*
X160800000Y-123652380D02*
X160800000Y-122890476D01*
D12*
X195362500Y-103890000D02*
X195362500Y-110910000D01*
X195362500Y-110910000D02*
X187282500Y-110910000D01*
X188482500Y-103890000D02*
X188482500Y-102190000D01*
X186482500Y-105700000D02*
X187082500Y-106000000D01*
X186482500Y-106300000D02*
X186482500Y-105700000D01*
X187082500Y-106000000D02*
X186482500Y-106300000D01*
X194162500Y-103890000D02*
X195362500Y-103890000D01*
X187282500Y-110910000D02*
X187282500Y-103890000D01*
X188482500Y-102190000D02*
X194162500Y-102190000D01*
X187282500Y-103890000D02*
X188482500Y-103890000D01*
X194162500Y-102190000D02*
X194162500Y-103890000D01*
X178762500Y-103840000D02*
X178762500Y-110860000D01*
X178762500Y-110860000D02*
X170682500Y-110860000D01*
X171882500Y-103840000D02*
X171882500Y-102140000D01*
X169882500Y-105650000D02*
X170482500Y-105950000D01*
X169882500Y-106250000D02*
X169882500Y-105650000D01*
X170482500Y-105950000D02*
X169882500Y-106250000D01*
X177562500Y-103840000D02*
X178762500Y-103840000D01*
X170682500Y-110860000D02*
X170682500Y-103840000D01*
X171882500Y-102140000D02*
X177562500Y-102140000D01*
X170682500Y-103840000D02*
X171882500Y-103840000D01*
X177562500Y-102140000D02*
X177562500Y-103840000D01*
X191162500Y-37140000D02*
X191162500Y-44160000D01*
X191162500Y-44160000D02*
X183082500Y-44160000D01*
X184282500Y-37140000D02*
X184282500Y-35440000D01*
X182282500Y-38950000D02*
X182882500Y-39250000D01*
X182282500Y-39550000D02*
X182282500Y-38950000D01*
X182882500Y-39250000D02*
X182282500Y-39550000D01*
X189962500Y-37140000D02*
X191162500Y-37140000D01*
X183082500Y-44160000D02*
X183082500Y-37140000D01*
X184282500Y-35440000D02*
X189962500Y-35440000D01*
X183082500Y-37140000D02*
X184282500Y-37140000D01*
X189962500Y-35440000D02*
X189962500Y-37140000D01*
X150962500Y-37140000D02*
X150962500Y-44160000D01*
X150962500Y-44160000D02*
X142882500Y-44160000D01*
X144082500Y-37140000D02*
X144082500Y-35440000D01*
X142082500Y-38950000D02*
X142682500Y-39250000D01*
X142082500Y-39550000D02*
X142082500Y-38950000D01*
X142682500Y-39250000D02*
X142082500Y-39550000D01*
X149762500Y-37140000D02*
X150962500Y-37140000D01*
X142882500Y-44160000D02*
X142882500Y-37140000D01*
X144082500Y-35440000D02*
X149762500Y-35440000D01*
X142882500Y-37140000D02*
X144082500Y-37140000D01*
X149762500Y-35440000D02*
X149762500Y-37140000D01*
X151262500Y-103840000D02*
X151262500Y-110860000D01*
X151262500Y-110860000D02*
X143182500Y-110860000D01*
X144382500Y-103840000D02*
X144382500Y-102140000D01*
X142382500Y-105650000D02*
X142982500Y-105950000D01*
X142382500Y-106250000D02*
X142382500Y-105650000D01*
X142982500Y-105950000D02*
X142382500Y-106250000D01*
X150062500Y-103840000D02*
X151262500Y-103840000D01*
X143182500Y-110860000D02*
X143182500Y-103840000D01*
X144382500Y-102140000D02*
X150062500Y-102140000D01*
X143182500Y-103840000D02*
X144382500Y-103840000D01*
X150062500Y-102140000D02*
X150062500Y-103840000D01*
X158540000Y-124410000D02*
X158540000Y-124280000D01*
X155680000Y-124410000D02*
X155680000Y-126130000D01*
X156000000Y-124410000D02*
X156000000Y-124410000D01*
X158540000Y-124280000D02*
X158540000Y-124410000D01*
X156310000Y-127530000D02*
X158230000Y-127530000D01*
X158980000Y-124410000D02*
X155560000Y-124410000D01*
X158980000Y-126130000D02*
X158980000Y-124410000D01*
X158230000Y-126130000D02*
X156310000Y-126130000D01*
X156000000Y-124410000D02*
X156000000Y-124280000D01*
X156310000Y-126130000D02*
X156310000Y-127530000D01*
X158540000Y-124280000D02*
X158540000Y-124280000D01*
X158540000Y-124410000D02*
X158540000Y-124410000D01*
X155560000Y-124410000D02*
X155560000Y-126130000D01*
X155560000Y-126130000D02*
X158980000Y-126130000D01*
X156000000Y-124280000D02*
X156000000Y-124280000D01*
X155800000Y-124410000D02*
X155800000Y-126130000D01*
X158230000Y-127530000D02*
X158230000Y-126130000D01*
X156000000Y-124280000D02*
X156000000Y-124410000D01*
X179500000Y-65500000D02*
X149500000Y-65500000D01*
X149500000Y-49000000D01*
X153000000Y-45500000D01*
X179500000Y-45500000D01*
X179500000Y-65500000D01*
X158040000Y-114000000D02*
X157270000Y-114000000D01*
X150730000Y-112630000D02*
X150730000Y-115370000D01*
X157270000Y-112630000D02*
X150730000Y-112630000D01*
X149960000Y-114000000D02*
X150730000Y-114000000D01*
X150730000Y-115370000D02*
X157270000Y-115370000D01*
X157270000Y-115370000D02*
X157270000Y-112630000D01*
X151910000Y-98860000D02*
X151910000Y-76140000D01*
X151910000Y-76140000D02*
X148750000Y-76140000D01*
X142090000Y-98860000D02*
X142090000Y-76140000D01*
X145250000Y-76140000D02*
X142090000Y-76140000D01*
X151910000Y-98860000D02*
X148750000Y-98860000D01*
X145250000Y-98860000D02*
X142090000Y-98860000D01*
X153660000Y-119000000D02*
X154680000Y-119000000D01*
X160120000Y-120470000D02*
X160120000Y-117530000D01*
X159220000Y-120470000D02*
X159220000Y-117530000D01*
X159100000Y-120470000D02*
X159100000Y-117530000D01*
X160120000Y-117530000D02*
X154680000Y-117530000D01*
X154680000Y-117530000D02*
X154680000Y-120470000D01*
X154680000Y-120470000D02*
X160120000Y-120470000D01*
X161140000Y-119000000D02*
X160120000Y-119000000D01*
X159340000Y-120470000D02*
X159340000Y-117530000D01*
%LPC*%
D11*
X197000000Y-14000000D02*
X202000000Y-14000000D01*
X202000000Y-14000000D02*
X202000000Y-128000000D01*
X202000000Y-128000000D02*
X197000000Y-128000000D01*
X197000000Y-128000000D02*
X197000000Y-14000000D01*
G36*
X197000000Y-14000000D02*
G01*
X202000000Y-14000000D01*
X202000000Y-128000000D01*
X197000000Y-128000000D01*
X197000000Y-14000000D01*
G37*
X132000000Y-14000000D02*
X137000000Y-14000000D01*
X137000000Y-14000000D02*
X137000000Y-128000000D01*
X137000000Y-128000000D02*
X132000000Y-128000000D01*
X132000000Y-128000000D02*
X132000000Y-14000000D01*
G36*
X132000000Y-14000000D02*
G01*
X137000000Y-14000000D01*
X137000000Y-128000000D01*
X132000000Y-128000000D01*
X132000000Y-14000000D01*
G37*
D13*
X189342500Y-106000000D03*
D14*
X193302500Y-106000000D03*
D13*
X172742500Y-105950000D03*
D14*
X176702500Y-105950000D03*
D13*
X185142500Y-39250000D03*
D14*
X189102500Y-39250000D03*
D13*
X144942500Y-39250000D03*
D14*
X148902500Y-39250000D03*
D13*
X145242500Y-105950000D03*
D14*
X149202500Y-105950000D03*
D15*
X156000000Y-123200000D03*
D16*
X158540000Y-123200000D03*
D17*
X164500000Y-54500000D03*
D18*
X152000000Y-70000000D03*
X162000000Y-70000000D03*
X169500000Y-70000000D03*
X177000000Y-70000000D03*
D19*
X164500000Y-55500000D03*
D20*
X148920000Y-114000000D03*
D21*
X159080000Y-114000000D03*
D14*
X147000000Y-87500000D03*
D22*
X147000000Y-98750000D03*
X147000000Y-76250000D03*
D23*
X162480000Y-119000000D03*
D24*
X152320000Y-119000000D03*
M02*
