%TF.GenerationSoftware,KiCad,Pcbnew,6.0.11+dfsg-1*%
%TF.CreationDate,2023-07-14T21:47:47+01:00*%
%TF.ProjectId,bridge-rectifier,62726964-6765-42d7-9265-637469666965,rev?*%
%TF.SameCoordinates,Original*%
%TF.FileFunction,Drillmap*%
%TF.FilePolarity,Positive*%
%FSLAX45Y45*%
G04 Gerber Fmt 4.5, Leading zero omitted, Abs format (unit mm)*
G04 Created by KiCad (PCBNEW 6.0.11+dfsg-1) date 2023-07-14 21:47:47*
%MOMM*%
%LPD*%
G01*
G04 APERTURE LIST*
%ADD10C,0.100000*%
%ADD11C,0.200000*%
%ADD12C,0.270000*%
%ADD13C,0.350000*%
G04 APERTURE END LIST*
D10*
X13200000Y-1400000D02*
X20200000Y-1400000D01*
X20200000Y-1400000D02*
X20200000Y-12800000D01*
X20200000Y-12800000D02*
X13200000Y-12800000D01*
X13200000Y-12800000D02*
X13200000Y-1400000D01*
D11*
D12*
X14565000Y-8615000D02*
X14835000Y-8885000D01*
X14835000Y-8615000D02*
X14565000Y-8885000D01*
D13*
X16625000Y-5450000D02*
G75*
G03*
X16625000Y-5450000I-175000J0D01*
G01*
D11*
X13452619Y-13115476D02*
X13452619Y-12915476D01*
X13500238Y-12915476D01*
X13528809Y-12925000D01*
X13547857Y-12944048D01*
X13557381Y-12963095D01*
X13566905Y-13001190D01*
X13566905Y-13029762D01*
X13557381Y-13067857D01*
X13547857Y-13086905D01*
X13528809Y-13105952D01*
X13500238Y-13115476D01*
X13452619Y-13115476D01*
X13652619Y-13115476D02*
X13652619Y-12982143D01*
X13652619Y-13020238D02*
X13662143Y-13001190D01*
X13671667Y-12991667D01*
X13690714Y-12982143D01*
X13709762Y-12982143D01*
X13776428Y-13115476D02*
X13776428Y-12982143D01*
X13776428Y-12915476D02*
X13766905Y-12925000D01*
X13776428Y-12934524D01*
X13785952Y-12925000D01*
X13776428Y-12915476D01*
X13776428Y-12934524D01*
X13900238Y-13115476D02*
X13881190Y-13105952D01*
X13871667Y-13086905D01*
X13871667Y-12915476D01*
X14005000Y-13115476D02*
X13985952Y-13105952D01*
X13976428Y-13086905D01*
X13976428Y-12915476D01*
X14233571Y-13115476D02*
X14233571Y-12915476D01*
X14300238Y-13058333D01*
X14366905Y-12915476D01*
X14366905Y-13115476D01*
X14547857Y-13115476D02*
X14547857Y-13010714D01*
X14538333Y-12991667D01*
X14519286Y-12982143D01*
X14481190Y-12982143D01*
X14462143Y-12991667D01*
X14547857Y-13105952D02*
X14528809Y-13115476D01*
X14481190Y-13115476D01*
X14462143Y-13105952D01*
X14452619Y-13086905D01*
X14452619Y-13067857D01*
X14462143Y-13048809D01*
X14481190Y-13039286D01*
X14528809Y-13039286D01*
X14547857Y-13029762D01*
X14643095Y-12982143D02*
X14643095Y-13182143D01*
X14643095Y-12991667D02*
X14662143Y-12982143D01*
X14700238Y-12982143D01*
X14719286Y-12991667D01*
X14728809Y-13001190D01*
X14738333Y-13020238D01*
X14738333Y-13077381D01*
X14728809Y-13096428D01*
X14719286Y-13105952D01*
X14700238Y-13115476D01*
X14662143Y-13115476D01*
X14643095Y-13105952D01*
X14824048Y-13096428D02*
X14833571Y-13105952D01*
X14824048Y-13115476D01*
X14814524Y-13105952D01*
X14824048Y-13096428D01*
X14824048Y-13115476D01*
X14824048Y-12991667D02*
X14833571Y-13001190D01*
X14824048Y-13010714D01*
X14814524Y-13001190D01*
X14824048Y-12991667D01*
X14824048Y-13010714D01*
X12995000Y-13345000D02*
X13195000Y-13545000D01*
X13195000Y-13345000D02*
X12995000Y-13545000D01*
X13443095Y-13354524D02*
X13452619Y-13345000D01*
X13471667Y-13335476D01*
X13519286Y-13335476D01*
X13538333Y-13345000D01*
X13547857Y-13354524D01*
X13557381Y-13373571D01*
X13557381Y-13392619D01*
X13547857Y-13421190D01*
X13433571Y-13535476D01*
X13557381Y-13535476D01*
X13643095Y-13516428D02*
X13652619Y-13525952D01*
X13643095Y-13535476D01*
X13633571Y-13525952D01*
X13643095Y-13516428D01*
X13643095Y-13535476D01*
X13719286Y-13335476D02*
X13852619Y-13335476D01*
X13766905Y-13535476D01*
X13966905Y-13335476D02*
X13985952Y-13335476D01*
X14005000Y-13345000D01*
X14014524Y-13354524D01*
X14024048Y-13373571D01*
X14033571Y-13411667D01*
X14033571Y-13459286D01*
X14024048Y-13497381D01*
X14014524Y-13516428D01*
X14005000Y-13525952D01*
X13985952Y-13535476D01*
X13966905Y-13535476D01*
X13947857Y-13525952D01*
X13938333Y-13516428D01*
X13928809Y-13497381D01*
X13919286Y-13459286D01*
X13919286Y-13411667D01*
X13928809Y-13373571D01*
X13938333Y-13354524D01*
X13947857Y-13345000D01*
X13966905Y-13335476D01*
X14157381Y-13335476D02*
X14176428Y-13335476D01*
X14195476Y-13345000D01*
X14205000Y-13354524D01*
X14214524Y-13373571D01*
X14224048Y-13411667D01*
X14224048Y-13459286D01*
X14214524Y-13497381D01*
X14205000Y-13516428D01*
X14195476Y-13525952D01*
X14176428Y-13535476D01*
X14157381Y-13535476D01*
X14138333Y-13525952D01*
X14128809Y-13516428D01*
X14119286Y-13497381D01*
X14109762Y-13459286D01*
X14109762Y-13411667D01*
X14119286Y-13373571D01*
X14128809Y-13354524D01*
X14138333Y-13345000D01*
X14157381Y-13335476D01*
X14309762Y-13535476D02*
X14309762Y-13402143D01*
X14309762Y-13421190D02*
X14319286Y-13411667D01*
X14338333Y-13402143D01*
X14366905Y-13402143D01*
X14385952Y-13411667D01*
X14395476Y-13430714D01*
X14395476Y-13535476D01*
X14395476Y-13430714D02*
X14405000Y-13411667D01*
X14424048Y-13402143D01*
X14452619Y-13402143D01*
X14471667Y-13411667D01*
X14481190Y-13430714D01*
X14481190Y-13535476D01*
X14576428Y-13535476D02*
X14576428Y-13402143D01*
X14576428Y-13421190D02*
X14585952Y-13411667D01*
X14605000Y-13402143D01*
X14633571Y-13402143D01*
X14652619Y-13411667D01*
X14662143Y-13430714D01*
X14662143Y-13535476D01*
X14662143Y-13430714D02*
X14671667Y-13411667D01*
X14690714Y-13402143D01*
X14719286Y-13402143D01*
X14738333Y-13411667D01*
X14747857Y-13430714D01*
X14747857Y-13535476D01*
X15138333Y-13325952D02*
X14966905Y-13583095D01*
X15395476Y-13335476D02*
X15414524Y-13335476D01*
X15433571Y-13345000D01*
X15443095Y-13354524D01*
X15452619Y-13373571D01*
X15462143Y-13411667D01*
X15462143Y-13459286D01*
X15452619Y-13497381D01*
X15443095Y-13516428D01*
X15433571Y-13525952D01*
X15414524Y-13535476D01*
X15395476Y-13535476D01*
X15376428Y-13525952D01*
X15366905Y-13516428D01*
X15357381Y-13497381D01*
X15347857Y-13459286D01*
X15347857Y-13411667D01*
X15357381Y-13373571D01*
X15366905Y-13354524D01*
X15376428Y-13345000D01*
X15395476Y-13335476D01*
X15547857Y-13516428D02*
X15557381Y-13525952D01*
X15547857Y-13535476D01*
X15538333Y-13525952D01*
X15547857Y-13516428D01*
X15547857Y-13535476D01*
X15747857Y-13535476D02*
X15633571Y-13535476D01*
X15690714Y-13535476D02*
X15690714Y-13335476D01*
X15671667Y-13364048D01*
X15652619Y-13383095D01*
X15633571Y-13392619D01*
X15871667Y-13335476D02*
X15890714Y-13335476D01*
X15909762Y-13345000D01*
X15919286Y-13354524D01*
X15928809Y-13373571D01*
X15938333Y-13411667D01*
X15938333Y-13459286D01*
X15928809Y-13497381D01*
X15919286Y-13516428D01*
X15909762Y-13525952D01*
X15890714Y-13535476D01*
X15871667Y-13535476D01*
X15852619Y-13525952D01*
X15843095Y-13516428D01*
X15833571Y-13497381D01*
X15824048Y-13459286D01*
X15824048Y-13411667D01*
X15833571Y-13373571D01*
X15843095Y-13354524D01*
X15852619Y-13345000D01*
X15871667Y-13335476D01*
X16109762Y-13335476D02*
X16071667Y-13335476D01*
X16052619Y-13345000D01*
X16043095Y-13354524D01*
X16024048Y-13383095D01*
X16014524Y-13421190D01*
X16014524Y-13497381D01*
X16024048Y-13516428D01*
X16033571Y-13525952D01*
X16052619Y-13535476D01*
X16090714Y-13535476D01*
X16109762Y-13525952D01*
X16119286Y-13516428D01*
X16128809Y-13497381D01*
X16128809Y-13449762D01*
X16119286Y-13430714D01*
X16109762Y-13421190D01*
X16090714Y-13411667D01*
X16052619Y-13411667D01*
X16033571Y-13421190D01*
X16024048Y-13430714D01*
X16014524Y-13449762D01*
X16195476Y-13335476D02*
X16319286Y-13335476D01*
X16252619Y-13411667D01*
X16281190Y-13411667D01*
X16300238Y-13421190D01*
X16309762Y-13430714D01*
X16319286Y-13449762D01*
X16319286Y-13497381D01*
X16309762Y-13516428D01*
X16300238Y-13525952D01*
X16281190Y-13535476D01*
X16224048Y-13535476D01*
X16205000Y-13525952D01*
X16195476Y-13516428D01*
X16395476Y-13335476D02*
X16395476Y-13373571D01*
X16471667Y-13335476D02*
X16471667Y-13373571D01*
X16766905Y-13611667D02*
X16757381Y-13602143D01*
X16738333Y-13573571D01*
X16728809Y-13554524D01*
X16719286Y-13525952D01*
X16709762Y-13478333D01*
X16709762Y-13440238D01*
X16719286Y-13392619D01*
X16728809Y-13364048D01*
X16738333Y-13345000D01*
X16757381Y-13316428D01*
X16766905Y-13306905D01*
X16947857Y-13535476D02*
X16833571Y-13535476D01*
X16890714Y-13535476D02*
X16890714Y-13335476D01*
X16871667Y-13364048D01*
X16852619Y-13383095D01*
X16833571Y-13392619D01*
X17185952Y-13535476D02*
X17185952Y-13335476D01*
X17271667Y-13535476D02*
X17271667Y-13430714D01*
X17262143Y-13411667D01*
X17243095Y-13402143D01*
X17214524Y-13402143D01*
X17195476Y-13411667D01*
X17185952Y-13421190D01*
X17395476Y-13535476D02*
X17376429Y-13525952D01*
X17366905Y-13516428D01*
X17357381Y-13497381D01*
X17357381Y-13440238D01*
X17366905Y-13421190D01*
X17376429Y-13411667D01*
X17395476Y-13402143D01*
X17424048Y-13402143D01*
X17443095Y-13411667D01*
X17452619Y-13421190D01*
X17462143Y-13440238D01*
X17462143Y-13497381D01*
X17452619Y-13516428D01*
X17443095Y-13525952D01*
X17424048Y-13535476D01*
X17395476Y-13535476D01*
X17576429Y-13535476D02*
X17557381Y-13525952D01*
X17547857Y-13506905D01*
X17547857Y-13335476D01*
X17728810Y-13525952D02*
X17709762Y-13535476D01*
X17671667Y-13535476D01*
X17652619Y-13525952D01*
X17643095Y-13506905D01*
X17643095Y-13430714D01*
X17652619Y-13411667D01*
X17671667Y-13402143D01*
X17709762Y-13402143D01*
X17728810Y-13411667D01*
X17738333Y-13430714D01*
X17738333Y-13449762D01*
X17643095Y-13468809D01*
X17805000Y-13611667D02*
X17814524Y-13602143D01*
X17833571Y-13573571D01*
X17843095Y-13554524D01*
X17852619Y-13525952D01*
X17862143Y-13478333D01*
X17862143Y-13440238D01*
X17852619Y-13392619D01*
X17843095Y-13364048D01*
X17833571Y-13345000D01*
X17814524Y-13316428D01*
X17805000Y-13306905D01*
X18166905Y-13611667D02*
X18157381Y-13602143D01*
X18138333Y-13573571D01*
X18128810Y-13554524D01*
X18119286Y-13525952D01*
X18109762Y-13478333D01*
X18109762Y-13440238D01*
X18119286Y-13392619D01*
X18128810Y-13364048D01*
X18138333Y-13345000D01*
X18157381Y-13316428D01*
X18166905Y-13306905D01*
X18243095Y-13402143D02*
X18243095Y-13535476D01*
X18243095Y-13421190D02*
X18252619Y-13411667D01*
X18271667Y-13402143D01*
X18300238Y-13402143D01*
X18319286Y-13411667D01*
X18328810Y-13430714D01*
X18328810Y-13535476D01*
X18452619Y-13535476D02*
X18433571Y-13525952D01*
X18424048Y-13516428D01*
X18414524Y-13497381D01*
X18414524Y-13440238D01*
X18424048Y-13421190D01*
X18433571Y-13411667D01*
X18452619Y-13402143D01*
X18481190Y-13402143D01*
X18500238Y-13411667D01*
X18509762Y-13421190D01*
X18519286Y-13440238D01*
X18519286Y-13497381D01*
X18509762Y-13516428D01*
X18500238Y-13525952D01*
X18481190Y-13535476D01*
X18452619Y-13535476D01*
X18576429Y-13402143D02*
X18652619Y-13402143D01*
X18605000Y-13335476D02*
X18605000Y-13506905D01*
X18614524Y-13525952D01*
X18633571Y-13535476D01*
X18652619Y-13535476D01*
X18871667Y-13402143D02*
X18871667Y-13602143D01*
X18871667Y-13411667D02*
X18890714Y-13402143D01*
X18928810Y-13402143D01*
X18947857Y-13411667D01*
X18957381Y-13421190D01*
X18966905Y-13440238D01*
X18966905Y-13497381D01*
X18957381Y-13516428D01*
X18947857Y-13525952D01*
X18928810Y-13535476D01*
X18890714Y-13535476D01*
X18871667Y-13525952D01*
X19081190Y-13535476D02*
X19062143Y-13525952D01*
X19052619Y-13506905D01*
X19052619Y-13335476D01*
X19243095Y-13535476D02*
X19243095Y-13430714D01*
X19233571Y-13411667D01*
X19214524Y-13402143D01*
X19176429Y-13402143D01*
X19157381Y-13411667D01*
X19243095Y-13525952D02*
X19224048Y-13535476D01*
X19176429Y-13535476D01*
X19157381Y-13525952D01*
X19147857Y-13506905D01*
X19147857Y-13487857D01*
X19157381Y-13468809D01*
X19176429Y-13459286D01*
X19224048Y-13459286D01*
X19243095Y-13449762D01*
X19309762Y-13402143D02*
X19385952Y-13402143D01*
X19338333Y-13335476D02*
X19338333Y-13506905D01*
X19347857Y-13525952D01*
X19366905Y-13535476D01*
X19385952Y-13535476D01*
X19528810Y-13525952D02*
X19509762Y-13535476D01*
X19471667Y-13535476D01*
X19452619Y-13525952D01*
X19443095Y-13506905D01*
X19443095Y-13430714D01*
X19452619Y-13411667D01*
X19471667Y-13402143D01*
X19509762Y-13402143D01*
X19528810Y-13411667D01*
X19538333Y-13430714D01*
X19538333Y-13449762D01*
X19443095Y-13468809D01*
X19709762Y-13535476D02*
X19709762Y-13335476D01*
X19709762Y-13525952D02*
X19690714Y-13535476D01*
X19652619Y-13535476D01*
X19633571Y-13525952D01*
X19624048Y-13516428D01*
X19614524Y-13497381D01*
X19614524Y-13440238D01*
X19624048Y-13421190D01*
X19633571Y-13411667D01*
X19652619Y-13402143D01*
X19690714Y-13402143D01*
X19709762Y-13411667D01*
X19785952Y-13611667D02*
X19795476Y-13602143D01*
X19814524Y-13573571D01*
X19824048Y-13554524D01*
X19833571Y-13525952D01*
X19843095Y-13478333D01*
X19843095Y-13440238D01*
X19833571Y-13392619D01*
X19824048Y-13364048D01*
X19814524Y-13345000D01*
X19795476Y-13316428D01*
X19785952Y-13306905D01*
X13195000Y-13765000D02*
G75*
G03*
X13195000Y-13765000I-100000J0D01*
G01*
X13433571Y-13655476D02*
X13557381Y-13655476D01*
X13490714Y-13731667D01*
X13519286Y-13731667D01*
X13538333Y-13741190D01*
X13547857Y-13750714D01*
X13557381Y-13769762D01*
X13557381Y-13817381D01*
X13547857Y-13836428D01*
X13538333Y-13845952D01*
X13519286Y-13855476D01*
X13462143Y-13855476D01*
X13443095Y-13845952D01*
X13433571Y-13836428D01*
X13643095Y-13836428D02*
X13652619Y-13845952D01*
X13643095Y-13855476D01*
X13633571Y-13845952D01*
X13643095Y-13836428D01*
X13643095Y-13855476D01*
X13833571Y-13655476D02*
X13738333Y-13655476D01*
X13728809Y-13750714D01*
X13738333Y-13741190D01*
X13757381Y-13731667D01*
X13805000Y-13731667D01*
X13824048Y-13741190D01*
X13833571Y-13750714D01*
X13843095Y-13769762D01*
X13843095Y-13817381D01*
X13833571Y-13836428D01*
X13824048Y-13845952D01*
X13805000Y-13855476D01*
X13757381Y-13855476D01*
X13738333Y-13845952D01*
X13728809Y-13836428D01*
X13966905Y-13655476D02*
X13985952Y-13655476D01*
X14005000Y-13665000D01*
X14014524Y-13674524D01*
X14024048Y-13693571D01*
X14033571Y-13731667D01*
X14033571Y-13779286D01*
X14024048Y-13817381D01*
X14014524Y-13836428D01*
X14005000Y-13845952D01*
X13985952Y-13855476D01*
X13966905Y-13855476D01*
X13947857Y-13845952D01*
X13938333Y-13836428D01*
X13928809Y-13817381D01*
X13919286Y-13779286D01*
X13919286Y-13731667D01*
X13928809Y-13693571D01*
X13938333Y-13674524D01*
X13947857Y-13665000D01*
X13966905Y-13655476D01*
X14157381Y-13655476D02*
X14176428Y-13655476D01*
X14195476Y-13665000D01*
X14205000Y-13674524D01*
X14214524Y-13693571D01*
X14224048Y-13731667D01*
X14224048Y-13779286D01*
X14214524Y-13817381D01*
X14205000Y-13836428D01*
X14195476Y-13845952D01*
X14176428Y-13855476D01*
X14157381Y-13855476D01*
X14138333Y-13845952D01*
X14128809Y-13836428D01*
X14119286Y-13817381D01*
X14109762Y-13779286D01*
X14109762Y-13731667D01*
X14119286Y-13693571D01*
X14128809Y-13674524D01*
X14138333Y-13665000D01*
X14157381Y-13655476D01*
X14309762Y-13855476D02*
X14309762Y-13722143D01*
X14309762Y-13741190D02*
X14319286Y-13731667D01*
X14338333Y-13722143D01*
X14366905Y-13722143D01*
X14385952Y-13731667D01*
X14395476Y-13750714D01*
X14395476Y-13855476D01*
X14395476Y-13750714D02*
X14405000Y-13731667D01*
X14424048Y-13722143D01*
X14452619Y-13722143D01*
X14471667Y-13731667D01*
X14481190Y-13750714D01*
X14481190Y-13855476D01*
X14576428Y-13855476D02*
X14576428Y-13722143D01*
X14576428Y-13741190D02*
X14585952Y-13731667D01*
X14605000Y-13722143D01*
X14633571Y-13722143D01*
X14652619Y-13731667D01*
X14662143Y-13750714D01*
X14662143Y-13855476D01*
X14662143Y-13750714D02*
X14671667Y-13731667D01*
X14690714Y-13722143D01*
X14719286Y-13722143D01*
X14738333Y-13731667D01*
X14747857Y-13750714D01*
X14747857Y-13855476D01*
X15138333Y-13645952D02*
X14966905Y-13903095D01*
X15395476Y-13655476D02*
X15414524Y-13655476D01*
X15433571Y-13665000D01*
X15443095Y-13674524D01*
X15452619Y-13693571D01*
X15462143Y-13731667D01*
X15462143Y-13779286D01*
X15452619Y-13817381D01*
X15443095Y-13836428D01*
X15433571Y-13845952D01*
X15414524Y-13855476D01*
X15395476Y-13855476D01*
X15376428Y-13845952D01*
X15366905Y-13836428D01*
X15357381Y-13817381D01*
X15347857Y-13779286D01*
X15347857Y-13731667D01*
X15357381Y-13693571D01*
X15366905Y-13674524D01*
X15376428Y-13665000D01*
X15395476Y-13655476D01*
X15547857Y-13836428D02*
X15557381Y-13845952D01*
X15547857Y-13855476D01*
X15538333Y-13845952D01*
X15547857Y-13836428D01*
X15547857Y-13855476D01*
X15747857Y-13855476D02*
X15633571Y-13855476D01*
X15690714Y-13855476D02*
X15690714Y-13655476D01*
X15671667Y-13684048D01*
X15652619Y-13703095D01*
X15633571Y-13712619D01*
X15814524Y-13655476D02*
X15938333Y-13655476D01*
X15871667Y-13731667D01*
X15900238Y-13731667D01*
X15919286Y-13741190D01*
X15928809Y-13750714D01*
X15938333Y-13769762D01*
X15938333Y-13817381D01*
X15928809Y-13836428D01*
X15919286Y-13845952D01*
X15900238Y-13855476D01*
X15843095Y-13855476D01*
X15824048Y-13845952D01*
X15814524Y-13836428D01*
X16005000Y-13655476D02*
X16138333Y-13655476D01*
X16052619Y-13855476D01*
X16243095Y-13741190D02*
X16224048Y-13731667D01*
X16214524Y-13722143D01*
X16205000Y-13703095D01*
X16205000Y-13693571D01*
X16214524Y-13674524D01*
X16224048Y-13665000D01*
X16243095Y-13655476D01*
X16281190Y-13655476D01*
X16300238Y-13665000D01*
X16309762Y-13674524D01*
X16319286Y-13693571D01*
X16319286Y-13703095D01*
X16309762Y-13722143D01*
X16300238Y-13731667D01*
X16281190Y-13741190D01*
X16243095Y-13741190D01*
X16224048Y-13750714D01*
X16214524Y-13760238D01*
X16205000Y-13779286D01*
X16205000Y-13817381D01*
X16214524Y-13836428D01*
X16224048Y-13845952D01*
X16243095Y-13855476D01*
X16281190Y-13855476D01*
X16300238Y-13845952D01*
X16309762Y-13836428D01*
X16319286Y-13817381D01*
X16319286Y-13779286D01*
X16309762Y-13760238D01*
X16300238Y-13750714D01*
X16281190Y-13741190D01*
X16395476Y-13655476D02*
X16395476Y-13693571D01*
X16471667Y-13655476D02*
X16471667Y-13693571D01*
X16766905Y-13931667D02*
X16757381Y-13922143D01*
X16738333Y-13893571D01*
X16728809Y-13874524D01*
X16719286Y-13845952D01*
X16709762Y-13798333D01*
X16709762Y-13760238D01*
X16719286Y-13712619D01*
X16728809Y-13684048D01*
X16738333Y-13665000D01*
X16757381Y-13636428D01*
X16766905Y-13626905D01*
X16947857Y-13855476D02*
X16833571Y-13855476D01*
X16890714Y-13855476D02*
X16890714Y-13655476D01*
X16871667Y-13684048D01*
X16852619Y-13703095D01*
X16833571Y-13712619D01*
X17185952Y-13855476D02*
X17185952Y-13655476D01*
X17271667Y-13855476D02*
X17271667Y-13750714D01*
X17262143Y-13731667D01*
X17243095Y-13722143D01*
X17214524Y-13722143D01*
X17195476Y-13731667D01*
X17185952Y-13741190D01*
X17395476Y-13855476D02*
X17376429Y-13845952D01*
X17366905Y-13836428D01*
X17357381Y-13817381D01*
X17357381Y-13760238D01*
X17366905Y-13741190D01*
X17376429Y-13731667D01*
X17395476Y-13722143D01*
X17424048Y-13722143D01*
X17443095Y-13731667D01*
X17452619Y-13741190D01*
X17462143Y-13760238D01*
X17462143Y-13817381D01*
X17452619Y-13836428D01*
X17443095Y-13845952D01*
X17424048Y-13855476D01*
X17395476Y-13855476D01*
X17576429Y-13855476D02*
X17557381Y-13845952D01*
X17547857Y-13826905D01*
X17547857Y-13655476D01*
X17728810Y-13845952D02*
X17709762Y-13855476D01*
X17671667Y-13855476D01*
X17652619Y-13845952D01*
X17643095Y-13826905D01*
X17643095Y-13750714D01*
X17652619Y-13731667D01*
X17671667Y-13722143D01*
X17709762Y-13722143D01*
X17728810Y-13731667D01*
X17738333Y-13750714D01*
X17738333Y-13769762D01*
X17643095Y-13788809D01*
X17805000Y-13931667D02*
X17814524Y-13922143D01*
X17833571Y-13893571D01*
X17843095Y-13874524D01*
X17852619Y-13845952D01*
X17862143Y-13798333D01*
X17862143Y-13760238D01*
X17852619Y-13712619D01*
X17843095Y-13684048D01*
X17833571Y-13665000D01*
X17814524Y-13636428D01*
X17805000Y-13626905D01*
X18166905Y-13931667D02*
X18157381Y-13922143D01*
X18138333Y-13893571D01*
X18128810Y-13874524D01*
X18119286Y-13845952D01*
X18109762Y-13798333D01*
X18109762Y-13760238D01*
X18119286Y-13712619D01*
X18128810Y-13684048D01*
X18138333Y-13665000D01*
X18157381Y-13636428D01*
X18166905Y-13626905D01*
X18243095Y-13722143D02*
X18243095Y-13855476D01*
X18243095Y-13741190D02*
X18252619Y-13731667D01*
X18271667Y-13722143D01*
X18300238Y-13722143D01*
X18319286Y-13731667D01*
X18328810Y-13750714D01*
X18328810Y-13855476D01*
X18452619Y-13855476D02*
X18433571Y-13845952D01*
X18424048Y-13836428D01*
X18414524Y-13817381D01*
X18414524Y-13760238D01*
X18424048Y-13741190D01*
X18433571Y-13731667D01*
X18452619Y-13722143D01*
X18481190Y-13722143D01*
X18500238Y-13731667D01*
X18509762Y-13741190D01*
X18519286Y-13760238D01*
X18519286Y-13817381D01*
X18509762Y-13836428D01*
X18500238Y-13845952D01*
X18481190Y-13855476D01*
X18452619Y-13855476D01*
X18576429Y-13722143D02*
X18652619Y-13722143D01*
X18605000Y-13655476D02*
X18605000Y-13826905D01*
X18614524Y-13845952D01*
X18633571Y-13855476D01*
X18652619Y-13855476D01*
X18871667Y-13722143D02*
X18871667Y-13922143D01*
X18871667Y-13731667D02*
X18890714Y-13722143D01*
X18928810Y-13722143D01*
X18947857Y-13731667D01*
X18957381Y-13741190D01*
X18966905Y-13760238D01*
X18966905Y-13817381D01*
X18957381Y-13836428D01*
X18947857Y-13845952D01*
X18928810Y-13855476D01*
X18890714Y-13855476D01*
X18871667Y-13845952D01*
X19081190Y-13855476D02*
X19062143Y-13845952D01*
X19052619Y-13826905D01*
X19052619Y-13655476D01*
X19243095Y-13855476D02*
X19243095Y-13750714D01*
X19233571Y-13731667D01*
X19214524Y-13722143D01*
X19176429Y-13722143D01*
X19157381Y-13731667D01*
X19243095Y-13845952D02*
X19224048Y-13855476D01*
X19176429Y-13855476D01*
X19157381Y-13845952D01*
X19147857Y-13826905D01*
X19147857Y-13807857D01*
X19157381Y-13788809D01*
X19176429Y-13779286D01*
X19224048Y-13779286D01*
X19243095Y-13769762D01*
X19309762Y-13722143D02*
X19385952Y-13722143D01*
X19338333Y-13655476D02*
X19338333Y-13826905D01*
X19347857Y-13845952D01*
X19366905Y-13855476D01*
X19385952Y-13855476D01*
X19528810Y-13845952D02*
X19509762Y-13855476D01*
X19471667Y-13855476D01*
X19452619Y-13845952D01*
X19443095Y-13826905D01*
X19443095Y-13750714D01*
X19452619Y-13731667D01*
X19471667Y-13722143D01*
X19509762Y-13722143D01*
X19528810Y-13731667D01*
X19538333Y-13750714D01*
X19538333Y-13769762D01*
X19443095Y-13788809D01*
X19709762Y-13855476D02*
X19709762Y-13655476D01*
X19709762Y-13845952D02*
X19690714Y-13855476D01*
X19652619Y-13855476D01*
X19633571Y-13845952D01*
X19624048Y-13836428D01*
X19614524Y-13817381D01*
X19614524Y-13760238D01*
X19624048Y-13741190D01*
X19633571Y-13731667D01*
X19652619Y-13722143D01*
X19690714Y-13722143D01*
X19709762Y-13731667D01*
X19785952Y-13931667D02*
X19795476Y-13922143D01*
X19814524Y-13893571D01*
X19824048Y-13874524D01*
X19833571Y-13845952D01*
X19843095Y-13798333D01*
X19843095Y-13760238D01*
X19833571Y-13712619D01*
X19824048Y-13684048D01*
X19814524Y-13665000D01*
X19795476Y-13636428D01*
X19785952Y-13626905D01*
M02*
