G04 #@! TF.GenerationSoftware,KiCad,Pcbnew,6.0.11+dfsg-1*
G04 #@! TF.CreationDate,2023-07-14T21:47:45+01:00*
G04 #@! TF.ProjectId,bridge-rectifier,62726964-6765-42d7-9265-637469666965,rev?*
G04 #@! TF.SameCoordinates,Original*
G04 #@! TF.FileFunction,Copper,L1,Top*
G04 #@! TF.FilePolarity,Positive*
%FSLAX46Y46*%
G04 Gerber Fmt 4.6, Leading zero omitted, Abs format (unit mm)*
G04 Created by KiCad (PCBNEW 6.0.11+dfsg-1) date 2023-07-14 21:47:45*
%MOMM*%
%LPD*%
G01*
G04 APERTURE LIST*
G04 Aperture macros list*
%AMRoundRect*
0 Rectangle with rounded corners*
0 $1 Rounding radius*
0 $2 $3 $4 $5 $6 $7 $8 $9 X,Y pos of 4 corners*
0 Add a 4 corners polygon primitive as box body*
4,1,4,$2,$3,$4,$5,$6,$7,$8,$9,$2,$3,0*
0 Add four circle primitives for the rounded corners*
1,1,$1+$1,$2,$3*
1,1,$1+$1,$4,$5*
1,1,$1+$1,$6,$7*
1,1,$1+$1,$8,$9*
0 Add four rect primitives between the rounded corners*
20,1,$1+$1,$2,$3,$4,$5,0*
20,1,$1+$1,$4,$5,$6,$7,0*
20,1,$1+$1,$6,$7,$8,$9,0*
20,1,$1+$1,$8,$9,$2,$3,0*%
%AMOutline5P*
0 Free polygon, 5 corners , with rotation*
0 The origin of the aperture is its center*
0 number of corners: always 5*
0 $1 to $10 corner X, Y*
0 $11 Rotation angle, in degrees counterclockwise*
0 create outline with 5 corners*
4,1,5,$1,$2,$3,$4,$5,$6,$7,$8,$9,$10,$1,$2,$11*%
%AMOutline6P*
0 Free polygon, 6 corners , with rotation*
0 The origin of the aperture is its center*
0 number of corners: always 6*
0 $1 to $12 corner X, Y*
0 $13 Rotation angle, in degrees counterclockwise*
0 create outline with 6 corners*
4,1,6,$1,$2,$3,$4,$5,$6,$7,$8,$9,$10,$11,$12,$1,$2,$13*%
%AMOutline7P*
0 Free polygon, 7 corners , with rotation*
0 The origin of the aperture is its center*
0 number of corners: always 7*
0 $1 to $14 corner X, Y*
0 $15 Rotation angle, in degrees counterclockwise*
0 create outline with 7 corners*
4,1,7,$1,$2,$3,$4,$5,$6,$7,$8,$9,$10,$11,$12,$13,$14,$1,$2,$15*%
%AMOutline8P*
0 Free polygon, 8 corners , with rotation*
0 The origin of the aperture is its center*
0 number of corners: always 8*
0 $1 to $16 corner X, Y*
0 $17 Rotation angle, in degrees counterclockwise*
0 create outline with 8 corners*
4,1,8,$1,$2,$3,$4,$5,$6,$7,$8,$9,$10,$11,$12,$13,$14,$15,$16,$1,$2,$17*%
G04 Aperture macros list end*
G04 #@! TA.AperFunction,ComponentPad*
%ADD10RoundRect,0.250001X-1.099999X-1.099999X1.099999X-1.099999X1.099999X1.099999X-1.099999X1.099999X0*%
G04 #@! TD*
G04 #@! TA.AperFunction,ComponentPad*
%ADD11C,2.700000*%
G04 #@! TD*
G04 #@! TA.AperFunction,ComponentPad*
%ADD12R,1.800000X1.800000*%
G04 #@! TD*
G04 #@! TA.AperFunction,ComponentPad*
%ADD13C,1.800000*%
G04 #@! TD*
G04 #@! TA.AperFunction,ComponentPad*
%ADD14C,2.000000*%
G04 #@! TD*
G04 #@! TA.AperFunction,SMDPad,CuDef*
%ADD15Outline7P,-13.000000X4.800000X-9.800000X8.000000X9.800000X8.000000X13.000000X4.800000X13.000000X-4.800000X9.800000X-8.000000X-13.000000X-8.000000X0.000000*%
G04 #@! TD*
G04 #@! TA.AperFunction,ComponentPad*
%ADD16C,1.600000*%
G04 #@! TD*
G04 #@! TA.AperFunction,ComponentPad*
%ADD17O,1.600000X1.600000*%
G04 #@! TD*
G04 #@! TA.AperFunction,ComponentPad*
%ADD18C,3.000000*%
G04 #@! TD*
G04 #@! TA.AperFunction,ComponentPad*
%ADD19R,2.200000X2.200000*%
G04 #@! TD*
G04 #@! TA.AperFunction,ComponentPad*
%ADD20O,2.200000X2.200000*%
G04 #@! TD*
G04 #@! TA.AperFunction,ViaPad*
%ADD21C,0.800000*%
G04 #@! TD*
G04 #@! TA.AperFunction,Conductor*
%ADD22C,0.400000*%
G04 #@! TD*
G04 APERTURE END LIST*
D10*
X189342500Y-106000000D03*
D11*
X193302500Y-106000000D03*
D10*
X172742500Y-105950000D03*
D11*
X176702500Y-105950000D03*
D10*
X185142500Y-39250000D03*
D11*
X189102500Y-39250000D03*
D10*
X144942500Y-39250000D03*
D11*
X148902500Y-39250000D03*
D10*
X145242500Y-105950000D03*
D11*
X149202500Y-105950000D03*
D12*
X156000000Y-123200000D03*
D13*
X158540000Y-123200000D03*
D14*
X152000000Y-70000000D03*
X162000000Y-70000000D03*
X169500000Y-70000000D03*
X177000000Y-70000000D03*
D15*
X164500000Y-55500000D03*
D16*
X148920000Y-114000000D03*
D17*
X159080000Y-114000000D03*
D18*
X147000000Y-98750000D03*
X147000000Y-76250000D03*
D19*
X162480000Y-119000000D03*
D20*
X152320000Y-119000000D03*
D21*
X162000000Y-79000000D03*
X162000000Y-74000000D03*
X147000000Y-79000000D03*
X152000000Y-79000000D03*
X157000000Y-79000000D03*
X194500000Y-16000000D03*
X134500000Y-21000000D03*
X169500000Y-16000000D03*
X134500000Y-61000000D03*
X159500000Y-16000000D03*
X199500000Y-66000000D03*
X199500000Y-111000000D03*
X199500000Y-31000000D03*
X199500000Y-96000000D03*
X134500000Y-101000000D03*
X199500000Y-16000000D03*
X192000000Y-111000000D03*
X179500000Y-16000000D03*
X134500000Y-76000000D03*
X192000000Y-116000000D03*
X199500000Y-116000000D03*
X134500000Y-36000000D03*
X199500000Y-51000000D03*
X134500000Y-26000000D03*
X192000000Y-121000000D03*
X154500000Y-16000000D03*
X199500000Y-71000000D03*
X199500000Y-36000000D03*
X139500000Y-16000000D03*
X199500000Y-106000000D03*
X134500000Y-66000000D03*
X189500000Y-16000000D03*
X134500000Y-126000000D03*
X134500000Y-91000000D03*
X134500000Y-16000000D03*
X199500000Y-121000000D03*
X134500000Y-31000000D03*
X199500000Y-46000000D03*
X164500000Y-16000000D03*
X134500000Y-116000000D03*
X134500000Y-96000000D03*
X199500000Y-61000000D03*
X134500000Y-81000000D03*
X199500000Y-26000000D03*
X199500000Y-21000000D03*
X149500000Y-16000000D03*
X192000000Y-126000000D03*
X174500000Y-16000000D03*
X199500000Y-56000000D03*
X134500000Y-46000000D03*
X199500000Y-86000000D03*
X134500000Y-121000000D03*
X199500000Y-126000000D03*
X199500000Y-41000000D03*
X199500000Y-101000000D03*
X134500000Y-106000000D03*
X184500000Y-16000000D03*
X134500000Y-111000000D03*
X134500000Y-86000000D03*
X134500000Y-51000000D03*
X134500000Y-71000000D03*
X199500000Y-76000000D03*
X144500000Y-16000000D03*
X199500000Y-91000000D03*
X134500000Y-56000000D03*
X199500000Y-81000000D03*
X134500000Y-41000000D03*
X145500000Y-66000000D03*
X145500000Y-46000000D03*
X152000000Y-41000000D03*
X145500000Y-61000000D03*
X145500000Y-51000000D03*
X145500000Y-56000000D03*
X178000000Y-89000000D03*
X171000000Y-79000000D03*
X178000000Y-94000000D03*
X171000000Y-99000000D03*
X171000000Y-104000000D03*
X171000000Y-74000000D03*
X171000000Y-84000000D03*
X178000000Y-84000000D03*
X171000000Y-94000000D03*
X171000000Y-89000000D03*
X178000000Y-99000000D03*
X183500000Y-61000000D03*
X183500000Y-66000000D03*
X188500000Y-51000000D03*
X188500000Y-41000000D03*
X188500000Y-66000000D03*
X188500000Y-61000000D03*
X188500000Y-56000000D03*
X183500000Y-46000000D03*
X188500000Y-46000000D03*
X183500000Y-56000000D03*
X183500000Y-51000000D03*
X177300000Y-41000000D03*
X144800000Y-97000000D03*
X149300000Y-108000000D03*
X144800000Y-102500000D03*
X149300000Y-102500000D03*
X144800000Y-108000000D03*
X149300000Y-97000000D03*
X163000000Y-41000000D03*
X190000000Y-26500000D03*
X161000000Y-61500000D03*
X170000000Y-58000000D03*
X168000000Y-26500000D03*
X166000000Y-26500000D03*
X157000000Y-30500000D03*
X190000000Y-30500000D03*
X159000000Y-61500000D03*
X145000000Y-26500000D03*
X161000000Y-41000000D03*
X161000000Y-46500000D03*
X174000000Y-26500000D03*
X151000000Y-30500000D03*
X163000000Y-61500000D03*
X168000000Y-30500000D03*
X170000000Y-54000000D03*
X166000000Y-58000000D03*
X157000000Y-26500000D03*
X159000000Y-26500000D03*
X184000000Y-30500000D03*
X178000000Y-30500000D03*
X172000000Y-26500000D03*
X168000000Y-54000000D03*
X166000000Y-61500000D03*
X147000000Y-26500000D03*
X178000000Y-26500000D03*
X166000000Y-41000000D03*
X188000000Y-30500000D03*
X161000000Y-58000000D03*
X153000000Y-30500000D03*
X161000000Y-36000000D03*
X182000000Y-26500000D03*
X176000000Y-26500000D03*
X161000000Y-26500000D03*
X168000000Y-50000000D03*
X166000000Y-50000000D03*
X147000000Y-30500000D03*
X163000000Y-46500000D03*
X151000000Y-26500000D03*
X161000000Y-54000000D03*
X166000000Y-46500000D03*
X186000000Y-30500000D03*
X184000000Y-26500000D03*
X180000000Y-30500000D03*
X159000000Y-30500000D03*
X163000000Y-30500000D03*
X163000000Y-36000000D03*
X166000000Y-36000000D03*
X163000000Y-26500000D03*
X159000000Y-58000000D03*
X170000000Y-50000000D03*
X188000000Y-26500000D03*
X159000000Y-50000000D03*
X168000000Y-58000000D03*
X180000000Y-26500000D03*
X149000000Y-30500000D03*
X168000000Y-41000000D03*
X161000000Y-50000000D03*
X163000000Y-58000000D03*
X176000000Y-30500000D03*
X168000000Y-46500000D03*
X170000000Y-26500000D03*
X145000000Y-30500000D03*
X168000000Y-36000000D03*
X163000000Y-50000000D03*
X182000000Y-30500000D03*
X166000000Y-30500000D03*
X149000000Y-26500000D03*
X174000000Y-30500000D03*
X155000000Y-30500000D03*
X161000000Y-30500000D03*
X168000000Y-61500000D03*
X155000000Y-26500000D03*
X153000000Y-26500000D03*
X159000000Y-54000000D03*
X170000000Y-30500000D03*
X170000000Y-61500000D03*
X172000000Y-30500000D03*
X186000000Y-26500000D03*
D22*
X162480000Y-119260000D02*
X162480000Y-119000000D01*
X162480000Y-119000000D02*
X162480000Y-117560000D01*
X162480000Y-117560000D02*
X159000000Y-114080000D01*
X158540000Y-123200000D02*
X162480000Y-119260000D01*
X155955000Y-123080000D02*
X156000000Y-123125000D01*
X152320000Y-119520000D02*
X152320000Y-119000000D01*
X156000000Y-123200000D02*
X152320000Y-119520000D01*
X147000000Y-108400000D02*
X147100000Y-108300000D01*
X147000000Y-112080000D02*
X147000000Y-108400000D01*
X148920000Y-114000000D02*
X147000000Y-112080000D01*
G04 #@! TA.AperFunction,Conductor*
G36*
X197000000Y-127799500D02*
G01*
X188351690Y-127799500D01*
X188283569Y-127779498D01*
X188262595Y-127762595D01*
X187536905Y-127036905D01*
X187502879Y-126974593D01*
X187500000Y-126947810D01*
X187500000Y-102052190D01*
X187520002Y-101984069D01*
X187536905Y-101963095D01*
X188463095Y-101036905D01*
X188525407Y-101002879D01*
X188552190Y-101000000D01*
X197000000Y-101000000D01*
X197000000Y-127799500D01*
G37*
G04 #@! TD.AperFunction*
G04 #@! TA.AperFunction,Conductor*
G36*
X137000000Y-127673500D02*
G01*
X136979998Y-127741621D01*
X136926342Y-127788114D01*
X136874000Y-127799500D01*
X132326500Y-127799500D01*
X132258379Y-127779498D01*
X132211886Y-127725842D01*
X132200500Y-127673500D01*
X132200500Y-14326500D01*
X132220502Y-14258379D01*
X132274158Y-14211886D01*
X132326500Y-14200500D01*
X137000000Y-14200500D01*
X137000000Y-127673500D01*
G37*
G04 #@! TD.AperFunction*
G04 #@! TA.AperFunction,Conductor*
G36*
X201741621Y-14220502D02*
G01*
X201788114Y-14274158D01*
X201799500Y-14326500D01*
X201799500Y-127673500D01*
X201779498Y-127741621D01*
X201725842Y-127788114D01*
X201673500Y-127799500D01*
X197000000Y-127799500D01*
X197000000Y-14200500D01*
X201673500Y-14200500D01*
X201741621Y-14220502D01*
G37*
G04 #@! TD.AperFunction*
G04 #@! TA.AperFunction,Conductor*
G36*
X197000000Y-18000000D02*
G01*
X137000000Y-18000000D01*
X137000000Y-14200500D01*
X197000000Y-14200500D01*
X197000000Y-18000000D01*
G37*
G04 #@! TD.AperFunction*
G04 #@! TA.AperFunction,Conductor*
G36*
X162942121Y-70020002D02*
G01*
X162988614Y-70073658D01*
X163000000Y-70126000D01*
X163000000Y-81874000D01*
X162979998Y-81942121D01*
X162926342Y-81988614D01*
X162874000Y-82000000D01*
X145626000Y-82000000D01*
X145557879Y-81979998D01*
X145511386Y-81926342D01*
X145500000Y-81874000D01*
X145500000Y-76067433D01*
X145520002Y-75999312D01*
X145556108Y-75962595D01*
X146930108Y-75046595D01*
X146997883Y-75025451D01*
X147069892Y-75046595D01*
X148484477Y-75989652D01*
X148484479Y-75989653D01*
X148500000Y-76000000D01*
X155500000Y-76000000D01*
X161000000Y-70500000D01*
X161000000Y-70126000D01*
X161020002Y-70057879D01*
X161073658Y-70011386D01*
X161126000Y-70000000D01*
X162874000Y-70000000D01*
X162942121Y-70020002D01*
G37*
G04 #@! TD.AperFunction*
G04 #@! TA.AperFunction,Conductor*
G36*
X155942121Y-37520002D02*
G01*
X155988614Y-37573658D01*
X156000000Y-37626000D01*
X156000000Y-44373499D01*
X155979998Y-44441620D01*
X155926342Y-44488113D01*
X155874000Y-44499499D01*
X154601315Y-44499499D01*
X154599620Y-44499591D01*
X154599607Y-44499591D01*
X154384083Y-44511244D01*
X154384075Y-44511245D01*
X154380614Y-44511432D01*
X154377193Y-44511998D01*
X154377187Y-44511999D01*
X154042807Y-44567355D01*
X154042801Y-44567356D01*
X154039233Y-44567947D01*
X154035758Y-44568943D01*
X154035751Y-44568945D01*
X153718639Y-44659876D01*
X153706611Y-44663325D01*
X153387155Y-44796302D01*
X153270061Y-44861744D01*
X153088275Y-44963340D01*
X153088268Y-44963344D01*
X153085100Y-44965115D01*
X153082158Y-44967237D01*
X153082153Y-44967240D01*
X152880764Y-45112486D01*
X152804450Y-45167526D01*
X152648107Y-45308545D01*
X149308550Y-48648102D01*
X149160924Y-48812604D01*
X149158906Y-48815423D01*
X149158901Y-48815429D01*
X148965836Y-49085100D01*
X148959494Y-49093959D01*
X148791736Y-49396601D01*
X148659876Y-49716519D01*
X148565659Y-50049472D01*
X148510336Y-50391048D01*
X148499500Y-50601324D01*
X148499500Y-63607826D01*
X148507754Y-63782851D01*
X148560094Y-64124896D01*
X148651401Y-64458659D01*
X148780465Y-64779716D01*
X148782193Y-64782898D01*
X148782196Y-64782905D01*
X148943839Y-65080614D01*
X148943845Y-65080623D01*
X148945575Y-65083810D01*
X149144543Y-65366912D01*
X149374730Y-65625270D01*
X149633088Y-65855457D01*
X149636049Y-65857538D01*
X149636054Y-65857542D01*
X149888387Y-66034885D01*
X149916190Y-66054425D01*
X149919377Y-66056155D01*
X149919386Y-66056161D01*
X150217095Y-66217804D01*
X150217102Y-66217807D01*
X150220284Y-66219535D01*
X150541341Y-66348599D01*
X150544838Y-66349556D01*
X150544845Y-66349558D01*
X150756027Y-66407330D01*
X150875104Y-66439906D01*
X150878695Y-66440455D01*
X150878702Y-66440457D01*
X151160849Y-66483631D01*
X151217149Y-66492246D01*
X151220442Y-66492401D01*
X151220449Y-66492402D01*
X151390686Y-66500430D01*
X151390693Y-66500430D01*
X151392174Y-66500500D01*
X152874000Y-66500500D01*
X152942121Y-66520502D01*
X152988614Y-66574158D01*
X153000000Y-66626500D01*
X153000000Y-69932567D01*
X152979998Y-70000688D01*
X152943892Y-70037405D01*
X151560840Y-70959440D01*
X151493065Y-70980584D01*
X151434601Y-70967300D01*
X142569650Y-66534825D01*
X142517667Y-66486471D01*
X142500000Y-66422128D01*
X142500000Y-37626000D01*
X142520002Y-37557879D01*
X142573658Y-37511386D01*
X142626000Y-37500000D01*
X155874000Y-37500000D01*
X155942121Y-37520002D01*
G37*
G04 #@! TD.AperFunction*
G04 #@! TA.AperFunction,Conductor*
G36*
X151442121Y-96020002D02*
G01*
X151488614Y-96073658D01*
X151500000Y-96126000D01*
X151500000Y-108874000D01*
X151479998Y-108942121D01*
X151426342Y-108988614D01*
X151374000Y-109000000D01*
X143126000Y-109000000D01*
X143057879Y-108979998D01*
X143011386Y-108926342D01*
X143000000Y-108874000D01*
X143000000Y-96126000D01*
X143020002Y-96057879D01*
X143073658Y-96011386D01*
X143126000Y-96000000D01*
X151374000Y-96000000D01*
X151442121Y-96020002D01*
G37*
G04 #@! TD.AperFunction*
G04 #@! TA.AperFunction,Conductor*
G36*
X191442121Y-37520002D02*
G01*
X191488614Y-37573658D01*
X191500000Y-37626000D01*
X191500000Y-70874000D01*
X191479998Y-70942121D01*
X191426342Y-70988614D01*
X191374000Y-71000000D01*
X177067433Y-71000000D01*
X176999312Y-70979998D01*
X176962595Y-70943892D01*
X176021162Y-69531743D01*
X176000000Y-69461851D01*
X176000000Y-66037987D01*
X176020002Y-65969866D01*
X176052295Y-65935793D01*
X176192767Y-65834481D01*
X176195550Y-65832474D01*
X176351893Y-65691455D01*
X179691450Y-62351898D01*
X179839076Y-62187396D01*
X179841094Y-62184577D01*
X179841099Y-62184571D01*
X180038395Y-61908990D01*
X180038397Y-61908987D01*
X180040506Y-61906041D01*
X180208264Y-61603399D01*
X180340124Y-61283481D01*
X180434341Y-60950528D01*
X180489664Y-60608952D01*
X180500500Y-60398676D01*
X180500501Y-50601315D01*
X180500409Y-50599607D01*
X180488756Y-50384083D01*
X180488755Y-50384075D01*
X180488568Y-50380614D01*
X180432053Y-50039233D01*
X180336675Y-49706611D01*
X180203698Y-49387155D01*
X180138256Y-49270061D01*
X180036660Y-49088275D01*
X180036656Y-49088268D01*
X180034885Y-49085100D01*
X179832474Y-48804450D01*
X179691455Y-48648107D01*
X176351898Y-45308550D01*
X176187396Y-45160924D01*
X176184577Y-45158906D01*
X176184571Y-45158901D01*
X175908990Y-44961605D01*
X175908987Y-44961603D01*
X175906041Y-44959494D01*
X175603399Y-44791736D01*
X175283481Y-44659876D01*
X175279985Y-44658887D01*
X175279983Y-44658886D01*
X175117005Y-44612768D01*
X174950528Y-44565659D01*
X174608952Y-44510336D01*
X174605530Y-44510160D01*
X174605524Y-44510159D01*
X174400288Y-44499583D01*
X174400285Y-44499583D01*
X174398676Y-44499500D01*
X173126000Y-44499500D01*
X173057879Y-44479498D01*
X173011386Y-44425842D01*
X173000000Y-44373500D01*
X173000000Y-37626000D01*
X173020002Y-37557879D01*
X173073658Y-37511386D01*
X173126000Y-37500000D01*
X191374000Y-37500000D01*
X191442121Y-37520002D01*
G37*
G04 #@! TD.AperFunction*
G04 #@! TA.AperFunction,Conductor*
G36*
X191442121Y-23520002D02*
G01*
X191488614Y-23573658D01*
X191500000Y-23626000D01*
X191500000Y-34368500D01*
X191479998Y-34436621D01*
X191426342Y-34483114D01*
X191374000Y-34494500D01*
X173126000Y-34494500D01*
X173124476Y-34494575D01*
X173124460Y-34494575D01*
X172942091Y-34503504D01*
X172832415Y-34508873D01*
X172487151Y-34563182D01*
X172434809Y-34574568D01*
X172434373Y-34574671D01*
X172434332Y-34574680D01*
X172373472Y-34589019D01*
X172334235Y-34598263D01*
X172001042Y-34703802D01*
X171682354Y-34847309D01*
X171679214Y-34849189D01*
X171679212Y-34849190D01*
X171575551Y-34911252D01*
X171382481Y-35026843D01*
X171379578Y-35029076D01*
X171379576Y-35029078D01*
X171106939Y-35238853D01*
X171106926Y-35238864D01*
X171105479Y-35239977D01*
X171083181Y-35259298D01*
X171053095Y-35285367D01*
X171053078Y-35285383D01*
X171051823Y-35286470D01*
X171050620Y-35287630D01*
X171050605Y-35287643D01*
X170908590Y-35424496D01*
X170822999Y-35506975D01*
X170820772Y-35509658D01*
X170820769Y-35509661D01*
X170742382Y-35604089D01*
X170599759Y-35775898D01*
X170409249Y-36068921D01*
X170254044Y-36382078D01*
X170136244Y-36711137D01*
X170116242Y-36779258D01*
X170116047Y-36779993D01*
X170116041Y-36780015D01*
X170083786Y-36901682D01*
X170075514Y-36932884D01*
X170014822Y-37277083D01*
X169994500Y-37626000D01*
X169994500Y-44373500D01*
X169994575Y-44375024D01*
X169994575Y-44375040D01*
X170003504Y-44557409D01*
X170008873Y-44667085D01*
X170063182Y-45012349D01*
X170074568Y-45064691D01*
X170098263Y-45165265D01*
X170203802Y-45498458D01*
X170347309Y-45817146D01*
X170526843Y-46117019D01*
X170529076Y-46119922D01*
X170529078Y-46119924D01*
X170738853Y-46392561D01*
X170738864Y-46392574D01*
X170739977Y-46394021D01*
X170759298Y-46416319D01*
X170785367Y-46446405D01*
X170785383Y-46446422D01*
X170786470Y-46447677D01*
X170787630Y-46448880D01*
X170787643Y-46448895D01*
X170832025Y-46494951D01*
X171006975Y-46676501D01*
X171009658Y-46678728D01*
X171009661Y-46678731D01*
X171106985Y-46759522D01*
X171275898Y-46899741D01*
X171568921Y-47090251D01*
X171572207Y-47091880D01*
X171572213Y-47091883D01*
X171690100Y-47150309D01*
X171882078Y-47245456D01*
X172211137Y-47363256D01*
X172212888Y-47363770D01*
X172278484Y-47383031D01*
X172278503Y-47383036D01*
X172279258Y-47383258D01*
X172279993Y-47383453D01*
X172280015Y-47383459D01*
X172401682Y-47415714D01*
X172432884Y-47423986D01*
X172777083Y-47484678D01*
X172780736Y-47484891D01*
X172780738Y-47484891D01*
X172896056Y-47491607D01*
X173126000Y-47505000D01*
X174245740Y-47505000D01*
X174313861Y-47525002D01*
X174334835Y-47541905D01*
X177458096Y-50665166D01*
X177492122Y-50727478D01*
X177495001Y-50754261D01*
X177495000Y-60245740D01*
X177474998Y-60313861D01*
X177458095Y-60334835D01*
X174329835Y-63463095D01*
X174267523Y-63497121D01*
X174240740Y-63500000D01*
X152963516Y-63500000D01*
X152956190Y-63499787D01*
X152874000Y-63495000D01*
X151631000Y-63495000D01*
X151562879Y-63474998D01*
X151516386Y-63421342D01*
X151505000Y-63369000D01*
X151505000Y-54485572D01*
X161744511Y-54485572D01*
X161762735Y-54816712D01*
X161820608Y-55143265D01*
X161821713Y-55146890D01*
X161821714Y-55146895D01*
X161897475Y-55395471D01*
X161917294Y-55460500D01*
X162051391Y-55763821D01*
X162053332Y-55767083D01*
X162219017Y-56045576D01*
X162219021Y-56045582D01*
X162220957Y-56048836D01*
X162423536Y-56311415D01*
X162656193Y-56547756D01*
X162915558Y-56754434D01*
X163197874Y-56928455D01*
X163201321Y-56930044D01*
X163495607Y-57065713D01*
X163495617Y-57065717D01*
X163499051Y-57067300D01*
X163502651Y-57068459D01*
X163502658Y-57068462D01*
X163811119Y-57167795D01*
X163811122Y-57167796D01*
X163814728Y-57168957D01*
X163818444Y-57169676D01*
X163818452Y-57169678D01*
X164136613Y-57231234D01*
X164136622Y-57231235D01*
X164140332Y-57231953D01*
X164144108Y-57232220D01*
X164144113Y-57232221D01*
X164242748Y-57239205D01*
X164402279Y-57250500D01*
X164583386Y-57250500D01*
X164585252Y-57250388D01*
X164585269Y-57250387D01*
X164827262Y-57235798D01*
X164827266Y-57235798D01*
X164831040Y-57235570D01*
X164834762Y-57234890D01*
X164834764Y-57234890D01*
X164908632Y-57221399D01*
X165157285Y-57175987D01*
X165474009Y-57077641D01*
X165776625Y-56941958D01*
X166060748Y-56770902D01*
X166063732Y-56768575D01*
X166063739Y-56768570D01*
X166319268Y-56569287D01*
X166319270Y-56569285D01*
X166322263Y-56566951D01*
X166557382Y-56333060D01*
X166762699Y-56072617D01*
X166935240Y-55789393D01*
X166990021Y-55668909D01*
X167070937Y-55490945D01*
X167070940Y-55490937D01*
X167072506Y-55487493D01*
X167172509Y-55171288D01*
X167233799Y-54845359D01*
X167255489Y-54514428D01*
X167237265Y-54183288D01*
X167179392Y-53856735D01*
X167170852Y-53828712D01*
X167083815Y-53543139D01*
X167082706Y-53539500D01*
X166948609Y-53236179D01*
X166883004Y-53125907D01*
X166780983Y-52954424D01*
X166780979Y-52954418D01*
X166779043Y-52951164D01*
X166576464Y-52688585D01*
X166343807Y-52452244D01*
X166084442Y-52245566D01*
X165802126Y-52071545D01*
X165764174Y-52054049D01*
X165504393Y-51934287D01*
X165504383Y-51934283D01*
X165500949Y-51932700D01*
X165497349Y-51931541D01*
X165497342Y-51931538D01*
X165188881Y-51832205D01*
X165188878Y-51832204D01*
X165185272Y-51831043D01*
X165181556Y-51830324D01*
X165181548Y-51830322D01*
X164863387Y-51768766D01*
X164863378Y-51768765D01*
X164859668Y-51768047D01*
X164855892Y-51767780D01*
X164855887Y-51767779D01*
X164757252Y-51760795D01*
X164597721Y-51749500D01*
X164416614Y-51749500D01*
X164414748Y-51749612D01*
X164414731Y-51749613D01*
X164172738Y-51764202D01*
X164172734Y-51764202D01*
X164168960Y-51764430D01*
X164165238Y-51765110D01*
X164165236Y-51765110D01*
X164149155Y-51768047D01*
X163842715Y-51824013D01*
X163525991Y-51922359D01*
X163223375Y-52058042D01*
X162939252Y-52229098D01*
X162936268Y-52231425D01*
X162936261Y-52231430D01*
X162915103Y-52247931D01*
X162677737Y-52433049D01*
X162442618Y-52666940D01*
X162237301Y-52927383D01*
X162064760Y-53210607D01*
X162053133Y-53236179D01*
X161929063Y-53509055D01*
X161929060Y-53509063D01*
X161927494Y-53512507D01*
X161827491Y-53828712D01*
X161766201Y-54154641D01*
X161744511Y-54485572D01*
X151505000Y-54485572D01*
X151505000Y-50754260D01*
X151525002Y-50686139D01*
X151541905Y-50665165D01*
X154665166Y-47541904D01*
X154727478Y-47507878D01*
X154754261Y-47504999D01*
X155874000Y-47504999D01*
X155875524Y-47504924D01*
X155875540Y-47504924D01*
X156057909Y-47495995D01*
X156167585Y-47490626D01*
X156512849Y-47436317D01*
X156565191Y-47424931D01*
X156565627Y-47424828D01*
X156565668Y-47424819D01*
X156626528Y-47410480D01*
X156665765Y-47401236D01*
X156998958Y-47295697D01*
X157317646Y-47152190D01*
X157424448Y-47088248D01*
X157614374Y-46974539D01*
X157614375Y-46974538D01*
X157617519Y-46972656D01*
X157620424Y-46970421D01*
X157893061Y-46760646D01*
X157893074Y-46760635D01*
X157894521Y-46759522D01*
X157916819Y-46740201D01*
X157946905Y-46714132D01*
X157946922Y-46714116D01*
X157948177Y-46713029D01*
X157949380Y-46711869D01*
X157949395Y-46711856D01*
X158174482Y-46494951D01*
X158177001Y-46492524D01*
X158400241Y-46223601D01*
X158590751Y-45930578D01*
X158646970Y-45817146D01*
X158744325Y-45620711D01*
X158745956Y-45617421D01*
X158863756Y-45288362D01*
X158883758Y-45220241D01*
X158924486Y-45066615D01*
X158985178Y-44722416D01*
X159005500Y-44373499D01*
X159005500Y-37626000D01*
X159005411Y-37624167D01*
X158991292Y-37335790D01*
X158991127Y-37332415D01*
X158936818Y-36987151D01*
X158925432Y-36934809D01*
X158924979Y-36932884D01*
X158902281Y-36836545D01*
X158901737Y-36834235D01*
X158796198Y-36501042D01*
X158652691Y-36182354D01*
X158473157Y-35882481D01*
X158388980Y-35773079D01*
X158261147Y-35606939D01*
X158261136Y-35606926D01*
X158260023Y-35605479D01*
X158240702Y-35583181D01*
X158214633Y-35553095D01*
X158214617Y-35553078D01*
X158213530Y-35551823D01*
X158212370Y-35550620D01*
X158212357Y-35550605D01*
X157995452Y-35325518D01*
X157993025Y-35322999D01*
X157894466Y-35241182D01*
X157726921Y-35102099D01*
X157726920Y-35102098D01*
X157724102Y-35099759D01*
X157431079Y-34909249D01*
X157427793Y-34907620D01*
X157427787Y-34907617D01*
X157272951Y-34830879D01*
X157117922Y-34754044D01*
X156788863Y-34636244D01*
X156764820Y-34629184D01*
X156721516Y-34616469D01*
X156721497Y-34616464D01*
X156720742Y-34616242D01*
X156720007Y-34616047D01*
X156719985Y-34616041D01*
X156569692Y-34576197D01*
X156569694Y-34576197D01*
X156567116Y-34575514D01*
X156222917Y-34514822D01*
X156219264Y-34514609D01*
X156219262Y-34514609D01*
X156103944Y-34507893D01*
X155874000Y-34494500D01*
X142626000Y-34494500D01*
X142557879Y-34474498D01*
X142511386Y-34420842D01*
X142500000Y-34368500D01*
X142500000Y-23626000D01*
X142520002Y-23557879D01*
X142573658Y-23511386D01*
X142626000Y-23500000D01*
X191374000Y-23500000D01*
X191442121Y-23520002D01*
G37*
G04 #@! TD.AperFunction*
G04 #@! TA.AperFunction,Conductor*
G36*
X170442121Y-70020002D02*
G01*
X170488614Y-70073658D01*
X170500000Y-70126000D01*
X170500000Y-70500000D01*
X178875207Y-79672846D01*
X180967049Y-81963911D01*
X180998210Y-82027704D01*
X181000000Y-82048869D01*
X181000000Y-108874000D01*
X180979998Y-108942121D01*
X180926342Y-108988614D01*
X180874000Y-109000000D01*
X168626000Y-109000000D01*
X168557879Y-108979998D01*
X168511386Y-108926342D01*
X168500000Y-108874000D01*
X168500000Y-70126000D01*
X168520002Y-70057879D01*
X168573658Y-70011386D01*
X168626000Y-70000000D01*
X170374000Y-70000000D01*
X170442121Y-70020002D01*
G37*
G04 #@! TD.AperFunction*
M02*
