G04 #@! TF.GenerationSoftware,KiCad,Pcbnew,6.0.11+dfsg-1*
G04 #@! TF.CreationDate,2023-07-14T21:47:45+01:00*
G04 #@! TF.ProjectId,bridge-rectifier,62726964-6765-42d7-9265-637469666965,rev?*
G04 #@! TF.SameCoordinates,Original*
G04 #@! TF.FileFunction,Copper,L2,Bot*
G04 #@! TF.FilePolarity,Positive*
%FSLAX46Y46*%
G04 Gerber Fmt 4.6, Leading zero omitted, Abs format (unit mm)*
G04 Created by KiCad (PCBNEW 6.0.11+dfsg-1) date 2023-07-14 21:47:45*
%MOMM*%
%LPD*%
G01*
G04 APERTURE LIST*
G04 Aperture macros list*
%AMRoundRect*
0 Rectangle with rounded corners*
0 $1 Rounding radius*
0 $2 $3 $4 $5 $6 $7 $8 $9 X,Y pos of 4 corners*
0 Add a 4 corners polygon primitive as box body*
4,1,4,$2,$3,$4,$5,$6,$7,$8,$9,$2,$3,0*
0 Add four circle primitives for the rounded corners*
1,1,$1+$1,$2,$3*
1,1,$1+$1,$4,$5*
1,1,$1+$1,$6,$7*
1,1,$1+$1,$8,$9*
0 Add four rect primitives between the rounded corners*
20,1,$1+$1,$2,$3,$4,$5,0*
20,1,$1+$1,$4,$5,$6,$7,0*
20,1,$1+$1,$6,$7,$8,$9,0*
20,1,$1+$1,$8,$9,$2,$3,0*%
G04 Aperture macros list end*
G04 #@! TA.AperFunction,ComponentPad*
%ADD10RoundRect,0.250001X-1.099999X-1.099999X1.099999X-1.099999X1.099999X1.099999X-1.099999X1.099999X0*%
G04 #@! TD*
G04 #@! TA.AperFunction,ComponentPad*
%ADD11C,2.700000*%
G04 #@! TD*
G04 #@! TA.AperFunction,ComponentPad*
%ADD12R,1.800000X1.800000*%
G04 #@! TD*
G04 #@! TA.AperFunction,ComponentPad*
%ADD13C,1.800000*%
G04 #@! TD*
G04 #@! TA.AperFunction,ComponentPad*
%ADD14C,2.000000*%
G04 #@! TD*
G04 #@! TA.AperFunction,ComponentPad*
%ADD15C,1.600000*%
G04 #@! TD*
G04 #@! TA.AperFunction,ComponentPad*
%ADD16O,1.600000X1.600000*%
G04 #@! TD*
G04 #@! TA.AperFunction,ComponentPad*
%ADD17C,3.000000*%
G04 #@! TD*
G04 #@! TA.AperFunction,ComponentPad*
%ADD18R,2.200000X2.200000*%
G04 #@! TD*
G04 #@! TA.AperFunction,ComponentPad*
%ADD19O,2.200000X2.200000*%
G04 #@! TD*
G04 #@! TA.AperFunction,ViaPad*
%ADD20C,0.800000*%
G04 #@! TD*
G04 #@! TA.AperFunction,Conductor*
%ADD21C,0.400000*%
G04 #@! TD*
G04 APERTURE END LIST*
D10*
X189342500Y-106000000D03*
D11*
X193302500Y-106000000D03*
D10*
X172742500Y-105950000D03*
D11*
X176702500Y-105950000D03*
D10*
X185142500Y-39250000D03*
D11*
X189102500Y-39250000D03*
D10*
X144942500Y-39250000D03*
D11*
X148902500Y-39250000D03*
D10*
X145242500Y-105950000D03*
D11*
X149202500Y-105950000D03*
D12*
X156000000Y-123200000D03*
D13*
X158540000Y-123200000D03*
D14*
X152000000Y-70000000D03*
X162000000Y-70000000D03*
X169500000Y-70000000D03*
X177000000Y-70000000D03*
D15*
X148920000Y-114000000D03*
D16*
X159080000Y-114000000D03*
D17*
X147000000Y-98750000D03*
X147000000Y-76250000D03*
D18*
X162480000Y-119000000D03*
D19*
X152320000Y-119000000D03*
D20*
X162000000Y-79000000D03*
X162000000Y-74000000D03*
X147000000Y-79000000D03*
X152000000Y-79000000D03*
X157000000Y-79000000D03*
X194500000Y-16000000D03*
X134500000Y-21000000D03*
X169500000Y-16000000D03*
X134500000Y-61000000D03*
X159500000Y-16000000D03*
X199500000Y-66000000D03*
X199500000Y-111000000D03*
X199500000Y-31000000D03*
X199500000Y-96000000D03*
X134500000Y-101000000D03*
X199500000Y-16000000D03*
X192000000Y-111000000D03*
X179500000Y-16000000D03*
X134500000Y-76000000D03*
X192000000Y-116000000D03*
X199500000Y-116000000D03*
X134500000Y-36000000D03*
X199500000Y-51000000D03*
X134500000Y-26000000D03*
X192000000Y-121000000D03*
X154500000Y-16000000D03*
X199500000Y-71000000D03*
X199500000Y-36000000D03*
X139500000Y-16000000D03*
X199500000Y-106000000D03*
X134500000Y-66000000D03*
X189500000Y-16000000D03*
X134500000Y-126000000D03*
X134500000Y-91000000D03*
X134500000Y-16000000D03*
X199500000Y-121000000D03*
X134500000Y-31000000D03*
X199500000Y-46000000D03*
X164500000Y-16000000D03*
X134500000Y-116000000D03*
X134500000Y-96000000D03*
X199500000Y-61000000D03*
X134500000Y-81000000D03*
X199500000Y-26000000D03*
X199500000Y-21000000D03*
X149500000Y-16000000D03*
X192000000Y-126000000D03*
X174500000Y-16000000D03*
X199500000Y-56000000D03*
X134500000Y-46000000D03*
X199500000Y-86000000D03*
X134500000Y-121000000D03*
X199500000Y-126000000D03*
X199500000Y-41000000D03*
X199500000Y-101000000D03*
X134500000Y-106000000D03*
X184500000Y-16000000D03*
X134500000Y-111000000D03*
X134500000Y-86000000D03*
X134500000Y-51000000D03*
X134500000Y-71000000D03*
X199500000Y-76000000D03*
X144500000Y-16000000D03*
X199500000Y-91000000D03*
X134500000Y-56000000D03*
X199500000Y-81000000D03*
X134500000Y-41000000D03*
X145500000Y-66000000D03*
X145500000Y-46000000D03*
X152000000Y-41000000D03*
X145500000Y-61000000D03*
X145500000Y-51000000D03*
X145500000Y-56000000D03*
X178000000Y-89000000D03*
X171000000Y-79000000D03*
X178000000Y-94000000D03*
X171000000Y-99000000D03*
X171000000Y-104000000D03*
X171000000Y-74000000D03*
X171000000Y-84000000D03*
X178000000Y-84000000D03*
X171000000Y-94000000D03*
X171000000Y-89000000D03*
X178000000Y-99000000D03*
X183500000Y-61000000D03*
X183500000Y-66000000D03*
X188500000Y-51000000D03*
X188500000Y-41000000D03*
X188500000Y-66000000D03*
X188500000Y-61000000D03*
X188500000Y-56000000D03*
X183500000Y-46000000D03*
X188500000Y-46000000D03*
X183500000Y-56000000D03*
X183500000Y-51000000D03*
X177300000Y-41000000D03*
X144800000Y-97000000D03*
X149300000Y-108000000D03*
X144800000Y-102500000D03*
X149300000Y-102500000D03*
X144800000Y-108000000D03*
X149300000Y-97000000D03*
X163000000Y-41000000D03*
X190000000Y-26500000D03*
X161000000Y-61500000D03*
X170000000Y-58000000D03*
X168000000Y-26500000D03*
X166000000Y-26500000D03*
X157000000Y-30500000D03*
X190000000Y-30500000D03*
X159000000Y-61500000D03*
X145000000Y-26500000D03*
X161000000Y-41000000D03*
X161000000Y-46500000D03*
X174000000Y-26500000D03*
X151000000Y-30500000D03*
X163000000Y-61500000D03*
X168000000Y-30500000D03*
X170000000Y-54000000D03*
X166000000Y-58000000D03*
X157000000Y-26500000D03*
X159000000Y-26500000D03*
X184000000Y-30500000D03*
X178000000Y-30500000D03*
X172000000Y-26500000D03*
X168000000Y-54000000D03*
X166000000Y-61500000D03*
X147000000Y-26500000D03*
X178000000Y-26500000D03*
X166000000Y-41000000D03*
X188000000Y-30500000D03*
X161000000Y-58000000D03*
X153000000Y-30500000D03*
X161000000Y-36000000D03*
X182000000Y-26500000D03*
X176000000Y-26500000D03*
X161000000Y-26500000D03*
X168000000Y-50000000D03*
X166000000Y-50000000D03*
X147000000Y-30500000D03*
X163000000Y-46500000D03*
X151000000Y-26500000D03*
X161000000Y-54000000D03*
X166000000Y-46500000D03*
X186000000Y-30500000D03*
X184000000Y-26500000D03*
X180000000Y-30500000D03*
X159000000Y-30500000D03*
X163000000Y-30500000D03*
X163000000Y-36000000D03*
X166000000Y-36000000D03*
X163000000Y-26500000D03*
X159000000Y-58000000D03*
X170000000Y-50000000D03*
X188000000Y-26500000D03*
X159000000Y-50000000D03*
X168000000Y-58000000D03*
X180000000Y-26500000D03*
X149000000Y-30500000D03*
X168000000Y-41000000D03*
X161000000Y-50000000D03*
X163000000Y-58000000D03*
X176000000Y-30500000D03*
X168000000Y-46500000D03*
X170000000Y-26500000D03*
X145000000Y-30500000D03*
X168000000Y-36000000D03*
X163000000Y-50000000D03*
X182000000Y-30500000D03*
X166000000Y-30500000D03*
X149000000Y-26500000D03*
X174000000Y-30500000D03*
X155000000Y-30500000D03*
X161000000Y-30500000D03*
X168000000Y-61500000D03*
X155000000Y-26500000D03*
X153000000Y-26500000D03*
X159000000Y-54000000D03*
X170000000Y-30500000D03*
X170000000Y-61500000D03*
X172000000Y-30500000D03*
X186000000Y-26500000D03*
D21*
X155000000Y-116320000D02*
X155000000Y-84250000D01*
X152320000Y-119000000D02*
X155000000Y-116320000D01*
X155000000Y-84250000D02*
X147000000Y-76250000D01*
G04 #@! TA.AperFunction,Conductor*
G36*
X197000000Y-127799500D02*
G01*
X188351690Y-127799500D01*
X188283569Y-127779498D01*
X188262595Y-127762595D01*
X187536905Y-127036905D01*
X187502879Y-126974593D01*
X187500000Y-126947810D01*
X187500000Y-102052190D01*
X187520002Y-101984069D01*
X187536905Y-101963095D01*
X188463095Y-101036905D01*
X188525407Y-101002879D01*
X188552190Y-101000000D01*
X197000000Y-101000000D01*
X197000000Y-127799500D01*
G37*
G04 #@! TD.AperFunction*
G04 #@! TA.AperFunction,Conductor*
G36*
X137000000Y-127673500D02*
G01*
X136979998Y-127741621D01*
X136926342Y-127788114D01*
X136874000Y-127799500D01*
X132326500Y-127799500D01*
X132258379Y-127779498D01*
X132211886Y-127725842D01*
X132200500Y-127673500D01*
X132200500Y-14326500D01*
X132220502Y-14258379D01*
X132274158Y-14211886D01*
X132326500Y-14200500D01*
X137000000Y-14200500D01*
X137000000Y-127673500D01*
G37*
G04 #@! TD.AperFunction*
G04 #@! TA.AperFunction,Conductor*
G36*
X201741621Y-14220502D02*
G01*
X201788114Y-14274158D01*
X201799500Y-14326500D01*
X201799500Y-127673500D01*
X201779498Y-127741621D01*
X201725842Y-127788114D01*
X201673500Y-127799500D01*
X197000000Y-127799500D01*
X197000000Y-14200500D01*
X201673500Y-14200500D01*
X201741621Y-14220502D01*
G37*
G04 #@! TD.AperFunction*
G04 #@! TA.AperFunction,Conductor*
G36*
X197000000Y-18000000D02*
G01*
X137000000Y-18000000D01*
X137000000Y-14200500D01*
X197000000Y-14200500D01*
X197000000Y-18000000D01*
G37*
G04 #@! TD.AperFunction*
G04 #@! TA.AperFunction,Conductor*
G36*
X162942121Y-70020002D02*
G01*
X162988614Y-70073658D01*
X163000000Y-70126000D01*
X163000000Y-81874000D01*
X162979998Y-81942121D01*
X162926342Y-81988614D01*
X162874000Y-82000000D01*
X145626000Y-82000000D01*
X145557879Y-81979998D01*
X145511386Y-81926342D01*
X145500000Y-81874000D01*
X145500000Y-76067433D01*
X145520002Y-75999312D01*
X145556108Y-75962595D01*
X146930108Y-75046595D01*
X146997883Y-75025451D01*
X147069892Y-75046595D01*
X148484477Y-75989652D01*
X148484479Y-75989653D01*
X148500000Y-76000000D01*
X155500000Y-76000000D01*
X161000000Y-70500000D01*
X161000000Y-70126000D01*
X161020002Y-70057879D01*
X161073658Y-70011386D01*
X161126000Y-70000000D01*
X162874000Y-70000000D01*
X162942121Y-70020002D01*
G37*
G04 #@! TD.AperFunction*
G04 #@! TA.AperFunction,Conductor*
G36*
X155942121Y-37520002D02*
G01*
X155988614Y-37573658D01*
X156000000Y-37626000D01*
X156000000Y-45989852D01*
X155998375Y-46010021D01*
X153000000Y-64500000D01*
X153000000Y-69932567D01*
X152979998Y-70000688D01*
X152943892Y-70037405D01*
X151560840Y-70959440D01*
X151493065Y-70980584D01*
X151434601Y-70967300D01*
X142569650Y-66534825D01*
X142517667Y-66486471D01*
X142500000Y-66422128D01*
X142500000Y-37626000D01*
X142520002Y-37557879D01*
X142573658Y-37511386D01*
X142626000Y-37500000D01*
X155874000Y-37500000D01*
X155942121Y-37520002D01*
G37*
G04 #@! TD.AperFunction*
G04 #@! TA.AperFunction,Conductor*
G36*
X151442121Y-96020002D02*
G01*
X151488614Y-96073658D01*
X151500000Y-96126000D01*
X151500000Y-108874000D01*
X151479998Y-108942121D01*
X151426342Y-108988614D01*
X151374000Y-109000000D01*
X143126000Y-109000000D01*
X143057879Y-108979998D01*
X143011386Y-108926342D01*
X143000000Y-108874000D01*
X143000000Y-96126000D01*
X143020002Y-96057879D01*
X143073658Y-96011386D01*
X143126000Y-96000000D01*
X151374000Y-96000000D01*
X151442121Y-96020002D01*
G37*
G04 #@! TD.AperFunction*
G04 #@! TA.AperFunction,Conductor*
G36*
X191442121Y-37520002D02*
G01*
X191488614Y-37573658D01*
X191500000Y-37626000D01*
X191500000Y-70874000D01*
X191479998Y-70942121D01*
X191426342Y-70988614D01*
X191374000Y-71000000D01*
X177067433Y-71000000D01*
X176999312Y-70979998D01*
X176962595Y-70943892D01*
X176021162Y-69531743D01*
X176000000Y-69461851D01*
X176000000Y-64500000D01*
X173001812Y-47010570D01*
X173000000Y-46989281D01*
X173000000Y-37626000D01*
X173020002Y-37557879D01*
X173073658Y-37511386D01*
X173126000Y-37500000D01*
X191374000Y-37500000D01*
X191442121Y-37520002D01*
G37*
G04 #@! TD.AperFunction*
G04 #@! TA.AperFunction,Conductor*
G36*
X191442121Y-23520002D02*
G01*
X191488614Y-23573658D01*
X191500000Y-23626000D01*
X191500000Y-34368500D01*
X191479998Y-34436621D01*
X191426342Y-34483114D01*
X191374000Y-34494500D01*
X173126000Y-34494500D01*
X173124476Y-34494575D01*
X173124460Y-34494575D01*
X172942091Y-34503504D01*
X172832415Y-34508873D01*
X172487151Y-34563182D01*
X172434809Y-34574568D01*
X172434373Y-34574671D01*
X172434332Y-34574680D01*
X172373472Y-34589019D01*
X172334235Y-34598263D01*
X172001042Y-34703802D01*
X171682354Y-34847309D01*
X171679214Y-34849189D01*
X171679212Y-34849190D01*
X171575551Y-34911252D01*
X171382481Y-35026843D01*
X171379578Y-35029076D01*
X171379576Y-35029078D01*
X171106939Y-35238853D01*
X171106926Y-35238864D01*
X171105479Y-35239977D01*
X171083181Y-35259298D01*
X171053095Y-35285367D01*
X171053078Y-35285383D01*
X171051823Y-35286470D01*
X171050620Y-35287630D01*
X171050605Y-35287643D01*
X170908590Y-35424496D01*
X170822999Y-35506975D01*
X170820772Y-35509658D01*
X170820769Y-35509661D01*
X170742382Y-35604089D01*
X170599759Y-35775898D01*
X170409249Y-36068921D01*
X170254044Y-36382078D01*
X170136244Y-36711137D01*
X170116242Y-36779258D01*
X170116047Y-36779993D01*
X170116041Y-36780015D01*
X170083786Y-36901682D01*
X170075514Y-36932884D01*
X170014822Y-37277083D01*
X169994500Y-37626000D01*
X169994500Y-46989281D01*
X170005328Y-47244171D01*
X170007140Y-47265460D01*
X170039524Y-47518391D01*
X170796263Y-51932700D01*
X172753978Y-63352711D01*
X172745774Y-63423232D01*
X172700745Y-63478122D01*
X172629790Y-63500000D01*
X156355001Y-63500000D01*
X156286880Y-63479998D01*
X156240387Y-63426342D01*
X156230626Y-63353831D01*
X157220356Y-57250500D01*
X157668723Y-54485572D01*
X161744511Y-54485572D01*
X161762735Y-54816712D01*
X161820608Y-55143265D01*
X161821713Y-55146890D01*
X161821714Y-55146895D01*
X161897475Y-55395471D01*
X161917294Y-55460500D01*
X162051391Y-55763821D01*
X162053332Y-55767083D01*
X162219017Y-56045576D01*
X162219021Y-56045582D01*
X162220957Y-56048836D01*
X162423536Y-56311415D01*
X162656193Y-56547756D01*
X162915558Y-56754434D01*
X163197874Y-56928455D01*
X163201321Y-56930044D01*
X163495607Y-57065713D01*
X163495617Y-57065717D01*
X163499051Y-57067300D01*
X163502651Y-57068459D01*
X163502658Y-57068462D01*
X163811119Y-57167795D01*
X163811122Y-57167796D01*
X163814728Y-57168957D01*
X163818444Y-57169676D01*
X163818452Y-57169678D01*
X164136613Y-57231234D01*
X164136622Y-57231235D01*
X164140332Y-57231953D01*
X164144108Y-57232220D01*
X164144113Y-57232221D01*
X164242748Y-57239205D01*
X164402279Y-57250500D01*
X164583386Y-57250500D01*
X164585252Y-57250388D01*
X164585269Y-57250387D01*
X164827262Y-57235798D01*
X164827266Y-57235798D01*
X164831040Y-57235570D01*
X164834762Y-57234890D01*
X164834764Y-57234890D01*
X164908632Y-57221399D01*
X165157285Y-57175987D01*
X165474009Y-57077641D01*
X165776625Y-56941958D01*
X166060748Y-56770902D01*
X166063732Y-56768575D01*
X166063739Y-56768570D01*
X166319268Y-56569287D01*
X166319270Y-56569285D01*
X166322263Y-56566951D01*
X166557382Y-56333060D01*
X166762699Y-56072617D01*
X166935240Y-55789393D01*
X166990021Y-55668909D01*
X167070937Y-55490945D01*
X167070940Y-55490937D01*
X167072506Y-55487493D01*
X167172509Y-55171288D01*
X167233799Y-54845359D01*
X167255489Y-54514428D01*
X167237265Y-54183288D01*
X167179392Y-53856735D01*
X167170852Y-53828712D01*
X167083815Y-53543139D01*
X167082706Y-53539500D01*
X166948609Y-53236179D01*
X166883004Y-53125907D01*
X166780983Y-52954424D01*
X166780979Y-52954418D01*
X166779043Y-52951164D01*
X166576464Y-52688585D01*
X166343807Y-52452244D01*
X166084442Y-52245566D01*
X165802126Y-52071545D01*
X165764174Y-52054049D01*
X165504393Y-51934287D01*
X165504383Y-51934283D01*
X165500949Y-51932700D01*
X165497349Y-51931541D01*
X165497342Y-51931538D01*
X165188881Y-51832205D01*
X165188878Y-51832204D01*
X165185272Y-51831043D01*
X165181556Y-51830324D01*
X165181548Y-51830322D01*
X164863387Y-51768766D01*
X164863378Y-51768765D01*
X164859668Y-51768047D01*
X164855892Y-51767780D01*
X164855887Y-51767779D01*
X164757252Y-51760795D01*
X164597721Y-51749500D01*
X164416614Y-51749500D01*
X164414748Y-51749612D01*
X164414731Y-51749613D01*
X164172738Y-51764202D01*
X164172734Y-51764202D01*
X164168960Y-51764430D01*
X164165238Y-51765110D01*
X164165236Y-51765110D01*
X164149155Y-51768047D01*
X163842715Y-51824013D01*
X163525991Y-51922359D01*
X163223375Y-52058042D01*
X162939252Y-52229098D01*
X162936268Y-52231425D01*
X162936261Y-52231430D01*
X162915103Y-52247931D01*
X162677737Y-52433049D01*
X162442618Y-52666940D01*
X162237301Y-52927383D01*
X162064760Y-53210607D01*
X162053133Y-53236179D01*
X161929063Y-53509055D01*
X161929060Y-53509063D01*
X161927494Y-53512507D01*
X161827491Y-53828712D01*
X161766201Y-54154641D01*
X161744511Y-54485572D01*
X157668723Y-54485572D01*
X158965121Y-46491115D01*
X158994167Y-46251390D01*
X158995792Y-46231221D01*
X159005500Y-45989852D01*
X159005500Y-37626000D01*
X159005411Y-37624167D01*
X158991292Y-37335790D01*
X158991127Y-37332415D01*
X158936818Y-36987151D01*
X158925432Y-36934809D01*
X158924979Y-36932884D01*
X158902281Y-36836545D01*
X158901737Y-36834235D01*
X158796198Y-36501042D01*
X158652691Y-36182354D01*
X158473157Y-35882481D01*
X158388980Y-35773079D01*
X158261147Y-35606939D01*
X158261136Y-35606926D01*
X158260023Y-35605479D01*
X158240702Y-35583181D01*
X158214633Y-35553095D01*
X158214617Y-35553078D01*
X158213530Y-35551823D01*
X158212370Y-35550620D01*
X158212357Y-35550605D01*
X157995452Y-35325518D01*
X157993025Y-35322999D01*
X157894466Y-35241182D01*
X157726921Y-35102099D01*
X157726920Y-35102098D01*
X157724102Y-35099759D01*
X157431079Y-34909249D01*
X157427793Y-34907620D01*
X157427787Y-34907617D01*
X157272951Y-34830879D01*
X157117922Y-34754044D01*
X156788863Y-34636244D01*
X156764820Y-34629184D01*
X156721516Y-34616469D01*
X156721497Y-34616464D01*
X156720742Y-34616242D01*
X156720007Y-34616047D01*
X156719985Y-34616041D01*
X156569692Y-34576197D01*
X156569694Y-34576197D01*
X156567116Y-34575514D01*
X156222917Y-34514822D01*
X156219264Y-34514609D01*
X156219262Y-34514609D01*
X156103944Y-34507893D01*
X155874000Y-34494500D01*
X142626000Y-34494500D01*
X142557879Y-34474498D01*
X142511386Y-34420842D01*
X142500000Y-34368500D01*
X142500000Y-23626000D01*
X142520002Y-23557879D01*
X142573658Y-23511386D01*
X142626000Y-23500000D01*
X191374000Y-23500000D01*
X191442121Y-23520002D01*
G37*
G04 #@! TD.AperFunction*
G04 #@! TA.AperFunction,Conductor*
G36*
X170442121Y-70020002D02*
G01*
X170488614Y-70073658D01*
X170500000Y-70126000D01*
X170500000Y-70500000D01*
X178875207Y-79672846D01*
X180967049Y-81963911D01*
X180998210Y-82027704D01*
X181000000Y-82048869D01*
X181000000Y-108874000D01*
X180979998Y-108942121D01*
X180926342Y-108988614D01*
X180874000Y-109000000D01*
X168626000Y-109000000D01*
X168557879Y-108979998D01*
X168511386Y-108926342D01*
X168500000Y-108874000D01*
X168500000Y-70126000D01*
X168520002Y-70057879D01*
X168573658Y-70011386D01*
X168626000Y-70000000D01*
X170374000Y-70000000D01*
X170442121Y-70020002D01*
G37*
G04 #@! TD.AperFunction*
M02*
